<?xml version="1.0" encoding="utf-8"?>
<!-- Generator: Adobe Illustrator 22.0.1, SVG Export Plug-In . SVG Version: 6.00 Build 0)  -->
<svg version="1.1" id="Calque_1" xmlns="http://www.w3.org/2000/svg" xmlns:xlink="http://www.w3.org/1999/xlink" x="0px" y="0px"
	 viewBox="0 0 1215.2 435.1" style="enable-background:new 0 0 1215.2 435.1;" xml:space="preserve">
<style type="text/css">
	.st0{fill:none;}
	.st1{fill:#2A4E96;}
	.st2{fill:#F1A34F;}
</style>
<g id="encart">
</g>
<g id="Calque_1_1_">
</g>
<g id="Calque_3">
	<g>
		<path class="st0" d="M1195.3,436.3H213.6c-117,0-212.8-95.8-212.8-212.8v-11.2C0.8,95.3,96.6-0.5,213.6-0.5h981.7
			c11.9,0,21.5,9.7,21.5,21.5v393.7C1216.8,426.6,1207.1,436.3,1195.3,436.3z"/>
		<g>
			<g>
				<path class="st1" d="M204.5,285.9c1.7,35.3,17.7,67,43,90.9c86.9-9.6,152.4-85.3,148.2-173.8c-1.2-25.4-8.1-49.2-19.3-70.3
					c-4-0.1-8.1,0-12.2,0.2C272.2,137.3,200.7,205.8,204.5,285.9z"/>
				<path class="st2" d="M107.3,101.2c-24,27.3-39.3,62.6-41.2,101.7c-4.4,86.9,58.4,161.6,142.9,173.6
					c24-27.3,39.3-62.6,41.2-101.7C254.6,187.9,191.7,113.3,107.3,101.2z"/>
				<path class="st1" d="M236,364.1c-49.6-61.2-26.5-120.8-26.5-120.8c17.7,36.8,53.7,94.6,53.7,94.6L236,364.1z"/>
				<ellipse transform="matrix(0.5 -0.866 0.866 0.5 19.9281 210.8475)" class="st2" cx="192.6" cy="88.2" rx="32.3" ry="21.9"/>

					<ellipse transform="matrix(0.9297 -0.3682 0.3682 0.9297 -22.73 110.9708)" class="st1" cx="279.4" cy="115" rx="23.1" ry="28.8"/>
			</g>
			<g>
				<path class="st1" d="M856.5,198.6c10.5,0,17.8-5.3,21.9-9.4c1.8,4.2,4.9,7.1,9.2,8.6l0.6,0.2l0.6-0.3c2.7-1.3,4.8-4.3,5.7-6.5
					l0.4-0.9l-0.7-0.7c-3.3-3.3-3.8-9.4-3.8-15v-82c0-4.4-0.6-9-7.4-9h-4.7l-1.8,1.8V124c-5.9-3.4-11.6-5-17.2-5
					c-7.5,0-14.9,3.5-20.1,9.7c-6.2,7.3-9.4,17.9-9.4,30.8C829.8,184,839.8,198.6,856.5,198.6z M844.1,159.5
					c0-12.8,4.3-27.9,16.3-27.9c6.1,0,11.8,3.1,16.2,6v37.9c-4.6,6.4-11.6,10.5-18,10.5C847.9,186,844.1,172.3,844.1,159.5z"/>
				<path class="st1" d="M967.8,190l0.8-0.5l-0.1-0.9c-0.3-2.5-2-6.4-4.6-8.6l-0.8-0.7l-0.9,0.5c-7.7,4.2-14.2,6.1-21,6.1
					c-11.3,0-16.9-7.1-17.7-22.4h46.2l0.2-1.3c0.6-3.9,0.8-6.6,0.8-10.1c0-20.4-11.9-33.6-30.4-33.6c-19.1,0-31.5,15.7-31.5,40
					c0,25.9,11,40.2,31,40.2C949.5,198.6,960,195.4,967.8,190z M956.3,151.4v0.4h-32.8c1.1-13.9,7.1-21.8,16.7-21.8
					C954.7,130,956.3,145,956.3,151.4z"/>
				<path class="st1" d="M1008.7,198.6c17.7,0,29.1-8.9,29.1-22.7c0-10.4-6.4-18-19.6-23.1l-8.9-3.5c-7.4-2.8-10.3-5.5-10.3-9.5
					c0-5.6,4.7-9.4,11.8-9.4c5.8,0,12.2,1.5,19,4.5l0.9,0.4l0.7-0.7c2.3-2.3,3.9-6.3,3.9-9.8v-1l-0.9-0.4c-6.6-3-16.3-5.1-23.4-5.1
					c-15.4,0-26.5,9.3-26.5,22.2c0,9.9,6.6,17.1,20.1,22.2l8.4,3.3c6.2,2.3,9.9,6.2,9.9,10.5c-0.1,6.1-5.9,10.2-14.4,10.2
					c-7.7,0-15.4-3.8-20.5-6.7l-0.9-0.5l-0.8,0.6c-2.6,2.1-4.7,6.1-4.9,9.2v0.9l0.8,0.5C988,194.4,997.1,198.6,1008.7,198.6z"/>
				<path class="st1" d="M552.7,197.4c1,0.1,2,0.1,2.9,0.1c11.9,0,20.1-4.9,24.3-8.3c3.8,5.5,10.1,9.4,18.9,9.4
					c7.7,0,15.4-3.4,22.8-10c1.7,4.5,4.8,7.5,9.5,9.2l0.6,0.2l0.6-0.3c2.7-1.2,5-4.3,5.9-6.5l0.4-0.9l-0.7-0.7
					c-3.2-3-3.7-6.9-3.7-13.4v-30.9c0-17.4-8.6-26.5-24.7-26.5c-12.4,0-25.1,5-30,7.2l-0.9,0.4v1c0,3.4,1.9,7.7,4.4,9.8l0.7,0.6
					l0.9-0.4c9.2-4,16.9-6,23.8-6c8.3,0,12,4.2,12,13.8v5.7c-4.3-0.7-9.3-1.1-15-1.1c-18.8,0-29.5,9.3-29.5,25.6
					c0,0.5,0,1.1,0.1,1.6c-4.8,4.6-10.1,8.3-18.4,8.3c-0.2,0-0.5,0-0.7,0c-1.5,0-2.5-0.4-3.2-1c-1.1-1.2-1.1-3.7-1-6
					c0-0.6,0-1.3,0-1.9V92.8c0-4.4-0.6-9-7.5-9h-4.7l-1.8,1.8v98C538.5,191.9,543.6,196.8,552.7,197.4z M590,174.6
					c0-8.6,5.6-13.5,15.4-13.5c3.8,0,9.4,0.2,14.8,0.9v13.1c-5.5,6.9-12.9,11-19.9,11C592.7,186.2,590,180,590,174.6z"/>
				<path class="st1" d="M488,79.8c-6.7,0-12.8,0.1-19.4,0.3c-3.9,0.1-7.8,0.2-12.1,0.2h-0.6l-1.9,1.9v113.5l1.2,0.2
					c1.7,0.3,4,0.5,6.4,0.5c2.6,0,5-0.2,6.7-0.5l1.2-0.2v-42.2h18.4c23.3,0,37.8-14.2,37.8-37C525.8,93.9,511.3,79.8,488,79.8z
					 M509.4,116.6c0,20.3-13.2,23.4-21.1,23.4c-4.1,0-12.2,0-18.8,0.1V93.3c6,0.1,13.9,0.1,18.8,0.1
					C506.7,93.3,509.4,107.9,509.4,116.6z"/>
				<path class="st1" d="M706.7,187.4l0.6-0.6l-0.2-0.8c-0.7-2.9-3.2-6.4-5.9-8l-0.9-0.5l-0.8,0.6c-5.5,4-11.5,8-18.3,8
					c-14.6,0-17.7-14.6-17.7-26.8c0-18,6.3-28.8,16.8-28.8c4.4,0,7.8,1.3,10.2,3.9c2.8,3,4.2,7.9,3.9,13.4l-0.1,1.4l1.4,0.2
					c1.7,0.3,3.2,0.5,5,0.5c7.4,0,7.4-6.3,7.4-8.4c0-8.9-7.5-22.9-27.4-22.9c-14.6,0-31.6,10.7-31.6,40.8c0,19.1,8.1,39.4,30.7,39.4
					C689.7,198.6,698.7,194.9,706.7,187.4z"/>
				<path class="st1" d="M750,118.4c-19.1,0-31.5,15.7-31.5,40c0,25.9,11,40.2,31,40.2c9.8,0,20.3-3.2,28.1-8.7l0.8-0.5l-0.1-0.9
					c-0.3-2.6-2-6.4-4.6-8.6l-0.8-0.7l-0.9,0.5c-7.7,4.2-14.2,6.1-21,6.1c-11.3,0-17-7.1-17.8-22.4h46.2l0.2-1.3
					c0.6-3.9,0.8-6.6,0.8-10.1C780.5,131.6,768.5,118.4,750,118.4z M766.2,151.4v0.4h-32.8c1.1-13.9,7.1-21.8,16.7-21.8
					C764.6,130,766.2,145,766.2,151.4z"/>
				<path class="st1" d="M748.9,274.4c-8,0-14.9,2.8-20.1,7.8c-4.3-3.1-12.4-7.3-22.5-6.9c-8.5,0.3-15.3,4.2-19.6,10.8
					c-2.1-5.3-5.7-9.1-10.7-10.9l-0.7-0.3l-0.6,0.4c-2.3,1.5-4.7,4.6-5.4,7.2l-0.3,0.9l0.7,0.6c2.4,2.2,4.9,7.2,4.9,14.2v54.3
					l1.2,0.2c1.6,0.3,3.6,0.5,6,0.5c2.1,0,4.1-0.2,5.7-0.5l1.2-0.2v-50.8c3.2-6.8,9.5-13.9,18-13.9c7.3,0,12.2,3,14.8,5.2
					c-2.6,6-4,13.1-4,21.3c0,25.9,11,40.2,31,40.2c9.8,0,20.3-3.2,28.1-8.7l0.8-0.5l-0.1-0.9c-0.3-2.5-2-6.4-4.6-8.6l-0.8-0.7
					l-0.9,0.5c-7.7,4.2-14.2,6.1-21,6.1c-11.3,0-16.9-7.1-17.7-22.4h46.2l0.2-1.3c0.6-3.9,0.8-6.6,0.8-10.1
					C779.3,287.5,767.4,274.4,748.9,274.4z M765.1,307.3v0.4h-32.8c1.1-13.9,7.1-21.8,16.7-21.8
					C763.5,285.9,765.1,300.9,765.1,307.3z"/>
				<path class="st1" d="M469.2,340c0-0.5,0-0.9,0.1-1.3c0-1,0.1-2.1,0.1-3.3v-33.2c3.1,0.1,6.1,0.1,8.4,0.1h35.4l0.2-1.2
					c0.3-1.7,0.5-4,0.5-5.7c0-1.6-0.2-3.8-0.5-5.7l-0.2-1.3h-35.4c-1.2,0-2.7,0-4.2,0.1c-1.3,0-2.7,0.1-4.2,0.1v-27.7
					c0-2.2,0-3.7-0.1-5.2c0-1.1-0.1-2.2-0.1-3.5c2,0,4,0,5.8,0c1,0,1.9,0,2.7,0h43.1l0.3-1c0.7-2,0.9-4.5,0.9-6.3
					c0-1.5,0-3.3-0.3-5.4l-0.2-1.3h-65.6l-1.9,1.9v104c0,5.9,3.4,9.8,8.6,9.8h51.9c5.2,0,8.6-2.5,9.6-7l0,0c0.4-1.9,0.4-4.4,0.4-5.5
					v-1.5h-46.7C474.5,339.8,471.7,339.9,469.2,340z"/>
				<path class="st1" d="M599.1,337v-37.2c0-15.8-7.6-24.9-20.9-24.9c-8.3,0-17.4,3.3-24.3,8.8c-0.2-4.3-1.4-8.1-7.5-8.1h-4.8
					l-1.8,1.8v75l1.2,0.2c1.6,0.3,3.6,0.5,6,0.5c2.1,0,4.1-0.2,5.7-0.5l1.2-0.2v-53.9c5.6-6.3,14.4-10.6,21.6-10.6
					c7.2,0,9.4,3.6,9.4,15.3v41.5c0,3.8,0.7,8.9,7.2,8.9c3.2,0,6.4-1.1,8.1-2.8l0.7-0.7l-0.4-0.9C599.3,345.9,599.1,341.2,599.1,337
					z"/>
				<path class="st1" d="M656.8,276.1l-18.8,0.3v-21.6l-1.8-1.8h-4.7c-6.8,0-7.4,4.7-7.4,9v14.2l-10.4-0.1l-0.2,1.2
					c-0.3,1.7-0.5,3-0.5,4.5c0,1.9,0.2,3.2,0.5,4.6l0.2,1.2l10.4-0.1v51.8c0,8.7,5.7,14,15.2,14c5.7,0,10.4-0.3,15.3-0.9l0.8-0.1
					l0.4-0.7c0.5-0.9,0.5-2,0.5-2.9c0-2.3-0.4-4.7-1.2-6.6l-0.4-1h-12.4c-3.1,0-4.3-1.4-4.3-4.8v-48.8l18.8,0.1l0.2-1.2
					c0.3-1.4,0.5-2.8,0.5-4.6c0-1.5-0.1-2.8-0.5-4.5L656.8,276.1z"/>
				<path class="st1" d="M831.4,274.4c-7.5,0-14.8,2.9-20.5,8c-0.4-3.7-2.1-6.7-7.5-6.7h-4.6l-1.8,1.8v105.7l1.8,1.8h4.7
					c6.9,0,7.5-4.7,7.5-9v-27c5.8,3.3,11.5,4.9,17.5,4.9c14.2,0,29.5-12.6,29.5-40.3C858.1,289,848.1,274.4,831.4,274.4z
					 M843.8,313.6c0,12.8-4.3,27.7-16.3,27.7c-5.2,0-10.4-1.9-16.5-6V298c4.5-6.7,11.6-10.9,18.3-10.9
					C836.3,287.1,843.8,294.1,843.8,313.6z"/>
				<path class="st1" d="M909,275.3c-8.4,0-15.2,3.8-19.7,10.8c-2.1-5.3-5.7-9-10.7-10.9l-0.7-0.3l-0.6,0.4
					c-2.3,1.5-4.7,4.6-5.4,7.2l-0.3,0.9l0.7,0.6c2.4,2.2,4.9,7.2,4.9,14.2v54.3l1.2,0.2c1.6,0.3,3.6,0.5,6,0.5
					c2.1,0,4.1-0.2,5.7-0.5l1.2-0.2v-50.8c2.7-5.8,7.7-12.5,16.8-12.5c1.7,0,3.4,0,5.1,0.1l0.9,0.1l0.5-0.8c1.7-2.8,2.8-7,2.8-11.3
					V276l-1.3-0.2C912.7,275.3,910.2,275.3,909,275.3z"/>
				<path class="st1" d="M935.1,275.7h-1.2c-1.7,0-4.3,0.3-7.7,0.8l-1,0.1l-0.3,0.9c-0.5,1.5-0.7,2.9-0.7,4.5c0,1.7,0.2,3.1,0.7,4.6
					l0.3,1.1h2.5c3.6,0,4.6,0.7,4.6,5.7v59.1l1.2,0.2c1.6,0.3,3.6,0.5,6,0.5c2.1,0,4.1-0.2,5.7-0.5l1.2-0.2V288
					C946.5,280.4,942.1,275.7,935.1,275.7z"/>
				<path class="st1" d="M944.6,250.8c-1.8-1.2-5.6-1.8-7.6-1.8c-2.7,0-5.8,0.7-7.5,1.7l-0.4,0.2l-0.2,0.4c-0.8,1.5-1.2,4.4-1.2,6.2
					c0,1.9,0.5,4.7,1.2,6.2l0.2,0.4l0.4,0.2c1.8,1.1,5,1.9,7.5,1.9c2.1,0,6-0.7,7.7-2l0.3-0.2l0.2-0.3c0.8-1.5,1.2-4.4,1.2-6.2
					c0-1.9-0.5-4.7-1.2-6.2l-0.2-0.4L944.6,250.8z"/>
				<path class="st1" d="M998.4,308.8l-8.9-3.5c-7.4-2.8-10.3-5.5-10.3-9.5c0-5.6,4.8-9.4,11.8-9.4c5.8,0,12.2,1.5,19,4.5l1,0.4
					l0.7-0.7c2.3-2.3,3.9-6.3,3.9-9.8v-1l-0.9-0.4c-6.6-3-16.3-5.1-23.4-5.1c-15.4,0-26.5,9.3-26.5,22.2c0,9.9,6.6,17.1,20.1,22.2
					l8.4,3.3c6.2,2.3,9.9,6.2,9.9,10.5c-0.1,6.1-5.9,10.2-14.4,10.2c-7.7,0-15.4-3.8-20.5-6.7l-0.9-0.5l-0.8,0.6
					c-2.6,2.1-4.7,6.1-4.9,9.2v0.9l0.8,0.5c5.6,3.5,14.6,7.7,26.3,7.7c17.7,0,29.1-8.9,29.1-22.7
					C1018,321.5,1011.6,313.9,998.4,308.8z"/>
				<path class="st1" d="M1060.7,274.4c-19.1,0-31.5,15.7-31.5,40c0,25.9,11,40.2,31,40.2c9.8,0,20.3-3.2,28.1-8.7l0.8-0.5l-0.1-0.9
					c-0.3-2.5-2-6.4-4.6-8.6l-0.8-0.7l-0.9,0.5c-7.7,4.2-14.2,6.1-21,6.1c-11.3,0-16.9-7.1-17.8-22.4h46.2l0.2-1.3
					c0.6-3.9,0.8-6.6,0.8-10.1C1091.1,287.5,1079.2,274.4,1060.7,274.4z M1076.8,307.3v0.4H1044c1.1-13.9,7.1-21.8,16.7-21.8
					C1075.2,285.9,1076.8,300.9,1076.8,307.3z"/>
				<path class="st1" d="M1138.8,308.8l-8.9-3.5c-7.4-2.8-10.3-5.5-10.3-9.5c0-5.6,4.8-9.4,11.8-9.4c5.8,0,12.2,1.5,19,4.5l1,0.4
					l0.7-0.7c2.3-2.3,3.9-6.3,3.9-9.8v-1l-0.9-0.4c-6.6-3-16.3-5.1-23.4-5.1c-15.4,0-26.5,9.3-26.5,22.2c0,9.9,6.6,17.1,20.1,22.2
					l8.4,3.3c6.2,2.3,9.9,6.2,9.9,10.5c-0.1,6.1-5.9,10.2-14.4,10.2c-7.7,0-15.4-3.8-20.5-6.7l-0.9-0.5l-0.8,0.6
					c-2.6,2.1-4.7,6.1-4.9,9.2v0.9l0.8,0.5c5.6,3.5,14.6,7.7,26.3,7.7c17.7,0,29.1-8.9,29.1-22.7
					C1158.4,321.5,1152,313.9,1138.8,308.8z"/>
			</g>
		</g>
	</g>
</g>
</svg>
