<?xml version="1.0" encoding="utf-8"?>
<!-- Generator: Adobe Illustrator 23.0.1, SVG Export Plug-In . SVG Version: 6.00 Build 0)  -->
<svg version="1.1" xmlns="http://www.w3.org/2000/svg" xmlns:xlink="http://www.w3.org/1999/xlink" x="0px" y="0px"
	 viewBox="0 0 1433 636" style="enable-background:new 0 0 1433 636;" xml:space="preserve">
<style type="text/css">
	.st0{fill:#F2C2C2;}
	.st1{fill:none;stroke:#2A4E96;stroke-width:5;stroke-miterlimit:10;}
	.st2{fill:#2A4E96;}
	.st3{fill:none;stroke:#000000;stroke-width:1.005;stroke-miterlimit:10;}
	.st4{fill:none;stroke:#000000;stroke-width:1.005;stroke-miterlimit:10;stroke-dasharray:11.8904,11.8904;}
	.st5{fill:none;stroke:#000000;stroke-width:1.005;stroke-miterlimit:10;stroke-dasharray:11.6667,11.6667;}
	.st6{fill:#80B276;}
	.st7{fill-rule:evenodd;clip-rule:evenodd;fill:#FFFFFF;}
	.st8{fill:#FFFFFF;}
	.st9{fill:#F1A34F;}
	.st10{fill:#A5A5A5;}
	.st11{fill:none;stroke:#000000;stroke-width:2;stroke-miterlimit:10;}
	.st12{fill:none;stroke:#000000;stroke-width:2;stroke-miterlimit:10;stroke-dasharray:12.0597,12.0597;}
	.st13{fill:none;stroke:#000000;stroke-width:2;stroke-miterlimit:10;stroke-dasharray:12.3704,12.3704;}
	.st14{fill:none;stroke:#000000;stroke-width:0.25;stroke-miterlimit:10;}
	.st15{fill:none;stroke:#000000;stroke-width:0.2739;stroke-miterlimit:10;}
	.st16{fill:none;stroke:#000000;stroke-width:0.2732;stroke-miterlimit:10;}
</style>
<g id="encart">
</g>
<g id="Calque_1">
</g>
<g id="Calque_3">
	<g>
		<path class="st8" d="M1292.5,521.8H310.8C193.8,521.8,98,426,98,309v-11.2C98,180.8,193.8,85,310.8,85h981.7
			c11.9,0,21.5,9.7,21.5,21.5v393.7C1314,512.1,1304.3,521.8,1292.5,521.8z"/>
		<g>
			<g>
				<path class="st2" d="M301.7,371.4c1.7,35.3,17.7,67,43,90.9c86.9-9.6,152.4-85.3,148.2-173.8c-1.2-25.4-8.1-49.2-19.3-70.3
					c-4-0.1-8.1,0-12.2,0.2C369.4,222.8,297.9,291.3,301.7,371.4z"/>
				<path class="st9" d="M204.5,186.7c-24,27.3-39.3,62.6-41.2,101.7C158.9,375.3,221.7,450,306.2,462c24-27.3,39.3-62.6,41.2-101.7
					C351.8,273.4,288.9,198.8,204.5,186.7z"/>
				<path class="st2" d="M333.2,449.6c-49.6-61.2-26.5-120.8-26.5-120.8c17.7,36.8,53.7,94.6,53.7,94.6L333.2,449.6z"/>
				<ellipse transform="matrix(0.5 -0.866 0.866 0.5 -5.5316 337.7358)" class="st9" cx="289.7" cy="173.7" rx="32.3" ry="21.9"/>
				
					<ellipse transform="matrix(0.9297 -0.3682 0.3682 0.9297 -47.3875 152.7536)" class="st2" cx="376.6" cy="200.6" rx="23.1" ry="28.8"/>
			</g>
			<g>
				<path class="st2" d="M953.7,284.1c10.5,0,17.8-5.3,21.9-9.4c1.8,4.2,4.9,7.1,9.2,8.6l0.6,0.2l0.6-0.3c2.7-1.3,4.8-4.3,5.7-6.5
					l0.4-0.9l-0.7-0.7c-3.3-3.3-3.8-9.4-3.8-15v-82c0-4.4-0.6-9-7.4-9h-4.7l-1.8,1.8v38.6c-5.9-3.4-11.6-5-17.2-5
					c-7.5,0-14.9,3.5-20.1,9.7c-6.2,7.3-9.4,17.9-9.4,30.8C927,269.5,937,284.1,953.7,284.1z M941.3,245c0-12.8,4.3-27.9,16.3-27.9
					c6.1,0,11.8,3.1,16.2,6V261c-4.6,6.4-11.6,10.5-18,10.5C945.1,271.5,941.3,257.8,941.3,245z"/>
				<path class="st2" d="M1065,275.5l0.8-0.5l-0.1-0.9c-0.3-2.5-2-6.4-4.6-8.6l-0.8-0.7l-0.9,0.5c-7.7,4.2-14.2,6.1-21,6.1
					c-11.3,0-16.9-7.1-17.7-22.4h46.2l0.2-1.3c0.6-3.9,0.8-6.6,0.8-10.1c0-20.4-11.9-33.6-30.4-33.6c-19.1,0-31.5,15.7-31.5,40
					c0,25.9,11,40.2,31,40.2C1046.7,284.1,1057.2,280.9,1065,275.5z M1053.5,236.9v0.4h-32.8c1.1-13.9,7.1-21.8,16.7-21.8
					C1051.9,215.5,1053.5,230.5,1053.5,236.9z"/>
				<path class="st2" d="M1105.9,284.1c17.7,0,29.1-8.9,29.1-22.7c0-10.4-6.4-18-19.6-23.1l-8.9-3.5c-7.4-2.8-10.3-5.5-10.3-9.5
					c0-5.6,4.7-9.4,11.8-9.4c5.8,0,12.2,1.5,19,4.5l0.9,0.4l0.7-0.7c2.3-2.3,3.9-6.3,3.9-9.8v-1l-0.9-0.4c-6.6-3-16.3-5.1-23.4-5.1
					c-15.4,0-26.5,9.3-26.5,22.2c0,9.9,6.6,17.1,20.1,22.2l8.4,3.3c6.2,2.3,9.9,6.2,9.9,10.5c-0.1,6.1-5.9,10.2-14.4,10.2
					c-7.7,0-15.4-3.8-20.5-6.7l-0.9-0.5l-0.8,0.6c-2.6,2.1-4.7,6.1-4.9,9.2l0,0.9l0.8,0.5C1085.2,279.9,1094.3,284.1,1105.9,284.1z"
					/>
				<path class="st2" d="M649.9,282.9c1,0.1,2,0.1,2.9,0.1c11.9,0,20.1-4.9,24.3-8.3c3.8,5.5,10.1,9.4,18.9,9.4
					c7.7,0,15.4-3.4,22.8-10c1.7,4.5,4.8,7.5,9.5,9.2l0.6,0.2l0.6-0.3c2.7-1.2,5-4.3,5.9-6.5l0.4-0.9l-0.7-0.7
					c-3.2-3-3.7-6.9-3.7-13.4v-30.9c0-17.4-8.6-26.5-24.7-26.5c-12.4,0-25.1,5-30,7.2l-0.9,0.4v1c0,3.4,1.9,7.7,4.4,9.8l0.7,0.6
					l0.9-0.4c9.2-4,16.9-6,23.8-6c8.3,0,12,4.2,12,13.8v5.7c-4.3-0.7-9.3-1.1-15-1.1c-18.8,0-29.5,9.3-29.5,25.6
					c0,0.5,0,1.1,0.1,1.6c-4.8,4.6-10.1,8.3-18.4,8.3c-0.2,0-0.5,0-0.7,0c-1.5,0-2.5-0.4-3.2-1c-1.1-1.2-1.1-3.7-1-6
					c0-0.6,0-1.3,0-1.9v-83.6c0-4.4-0.6-9-7.5-9h-4.7l-1.8,1.8v98C635.7,277.4,640.8,282.3,649.9,282.9z M687.2,260.1
					c0-8.6,5.6-13.5,15.4-13.5c3.8,0,9.4,0.2,14.8,0.9v13.1c-5.5,6.9-12.9,11-19.9,11C689.9,271.7,687.2,265.5,687.2,260.1z"/>
				<path class="st2" d="M585.2,165.3c-6.7,0-12.8,0.1-19.4,0.3c-3.9,0.1-7.8,0.2-12.1,0.2l-0.6,0l-1.9,1.9v113.5l1.2,0.2
					c1.7,0.3,4,0.5,6.4,0.5c2.6,0,5-0.2,6.7-0.5l1.2-0.2V239h18.4c23.3,0,37.8-14.2,37.8-37C623,179.4,608.5,165.3,585.2,165.3z
					 M606.6,202.1c0,20.3-13.2,23.4-21.1,23.4c-4.1,0-12.2,0-18.8,0.1v-46.8c6,0.1,13.9,0.1,18.8,0.1
					C603.9,178.8,606.6,193.4,606.6,202.1z"/>
				<path class="st2" d="M803.9,272.9l0.6-0.6l-0.2-0.8c-0.7-2.9-3.2-6.4-5.9-8l-0.9-0.5l-0.8,0.6c-5.5,4-11.5,8-18.3,8
					c-14.6,0-17.7-14.6-17.7-26.8c0-18,6.3-28.8,16.8-28.8c4.4,0,7.8,1.3,10.2,3.9c2.8,3,4.2,7.9,3.9,13.4l-0.1,1.4l1.4,0.2
					c1.7,0.3,3.2,0.5,5,0.5c7.4,0,7.4-6.3,7.4-8.4c0-8.9-7.5-22.9-27.4-22.9c-14.6,0-31.6,10.7-31.6,40.8c0,19.1,8.1,39.4,30.7,39.4
					C786.9,284.1,795.9,280.4,803.9,272.9z"/>
				<path class="st2" d="M847.2,203.9c-19.1,0-31.5,15.7-31.5,40c0,25.9,11,40.2,31,40.2c9.8,0,20.3-3.2,28.1-8.7l0.8-0.5l-0.1-0.9
					c-0.3-2.6-2-6.4-4.6-8.6l-0.8-0.7l-0.9,0.5c-7.7,4.2-14.2,6.1-21,6.1c-11.3,0-17-7.1-17.8-22.4h46.2l0.2-1.3
					c0.6-3.9,0.8-6.6,0.8-10.1C877.7,217.1,865.7,203.9,847.2,203.9z M863.4,236.9v0.4h-32.8c1.1-13.9,7.1-21.8,16.7-21.8
					C861.8,215.5,863.4,230.5,863.4,236.9z"/>
				<path class="st2" d="M846.1,359.9c-8,0-14.9,2.8-20.1,7.8c-4.3-3.1-12.4-7.3-22.5-6.9c-8.5,0.3-15.3,4.2-19.6,10.8
					c-2.1-5.3-5.7-9.1-10.7-10.9l-0.7-0.3l-0.6,0.4c-2.3,1.5-4.7,4.6-5.4,7.2l-0.3,0.9l0.7,0.6c2.4,2.2,4.9,7.2,4.9,14.2V438
					l1.2,0.2c1.6,0.3,3.6,0.5,6,0.5c2.1,0,4.1-0.2,5.7-0.5l1.2-0.2v-50.8c3.2-6.8,9.5-13.9,18-13.9c7.3,0,12.2,3,14.8,5.2
					c-2.6,6-4,13.1-4,21.3c0,25.9,11,40.2,31,40.2c9.8,0,20.3-3.2,28.1-8.7l0.8-0.5l-0.1-0.9c-0.3-2.5-2-6.4-4.6-8.6l-0.8-0.7
					l-0.9,0.5c-7.7,4.2-14.2,6.1-21,6.1c-11.3,0-16.9-7.1-17.7-22.4h46.2l0.2-1.3c0.6-3.9,0.8-6.6,0.8-10.1
					C876.5,373,864.6,359.9,846.1,359.9z M862.3,392.8v0.4h-32.8c1.1-13.9,7.1-21.8,16.7-21.8C860.7,371.4,862.3,386.4,862.3,392.8z
					"/>
				<path class="st2" d="M566.4,425.5c0-0.5,0-0.9,0.1-1.3c0-1,0.1-2.1,0.1-3.3v-33.2c3.1,0.1,6.1,0.1,8.4,0.1h35.4l0.2-1.2
					c0.3-1.7,0.5-4,0.5-5.7c0-1.6-0.2-3.8-0.5-5.7l-0.2-1.3h-35.4c-1.2,0-2.7,0-4.2,0.1c-1.3,0-2.7,0.1-4.2,0.1v-27.7
					c0-2.2,0-3.7-0.1-5.2c0-1.1-0.1-2.2-0.1-3.5c2,0,4,0,5.8,0c1,0,1.9,0,2.7,0H618l0.3-1c0.7-2,0.9-4.5,0.9-6.3
					c0-1.5,0-3.3-0.3-5.4l-0.2-1.3h-65.6l-1.9,1.9v104c0,5.9,3.4,9.8,8.6,9.8h51.9c5.2,0,8.6-2.5,9.6-7l0,0c0.4-1.9,0.4-4.4,0.4-5.5
					v-1.5h-46.7C571.7,425.3,568.9,425.4,566.4,425.5z"/>
				<path class="st2" d="M696.3,422.5v-37.2c0-15.8-7.6-24.9-20.9-24.9c-8.3,0-17.4,3.3-24.3,8.8c-0.2-4.3-1.4-8.1-7.5-8.1h-4.8
					l-1.8,1.8v75l1.2,0.2c1.6,0.3,3.6,0.5,6,0.5c2.1,0,4.1-0.2,5.7-0.5l1.2-0.2v-53.9c5.6-6.3,14.4-10.6,21.6-10.6
					c7.2,0,9.4,3.6,9.4,15.3v41.5c0,3.8,0.7,8.9,7.2,8.9c3.2,0,6.4-1.1,8.1-2.8l0.7-0.7l-0.4-0.9
					C696.5,431.4,696.3,426.7,696.3,422.5z"/>
				<path class="st2" d="M754,361.6l-18.8,0.3v-21.6l-1.8-1.8h-4.7c-6.8,0-7.4,4.7-7.4,9v14.2l-10.4-0.1l-0.2,1.2
					c-0.3,1.7-0.5,3-0.5,4.5c0,1.9,0.2,3.2,0.5,4.6l0.2,1.2l10.4-0.1v51.8c0,8.7,5.7,14,15.2,14c5.7,0,10.4-0.3,15.3-0.9l0.8-0.1
					l0.4-0.7c0.5-0.9,0.5-2,0.5-2.9c0-2.3-0.4-4.7-1.2-6.6l-0.4-1h-12.4c-3.1,0-4.3-1.4-4.3-4.8v-48.8l18.8,0.1l0.2-1.2
					c0.3-1.4,0.5-2.8,0.5-4.6c0-1.5-0.1-2.8-0.5-4.5L754,361.6z"/>
				<path class="st2" d="M928.6,359.9c-7.5,0-14.8,2.9-20.5,8c-0.4-3.7-2.1-6.7-7.5-6.7H896l-1.8,1.8v105.7l1.8,1.8h4.7
					c6.9,0,7.5-4.7,7.5-9v-27c5.8,3.3,11.5,4.9,17.5,4.9c14.2,0,29.5-12.6,29.5-40.3C955.3,374.5,945.3,359.9,928.6,359.9z
					 M941,399.1c0,12.8-4.3,27.7-16.3,27.7c-5.2,0-10.4-1.9-16.5-6v-37.3c4.5-6.7,11.6-10.9,18.3-10.9
					C933.5,372.6,941,379.6,941,399.1z"/>
				<path class="st2" d="M1006.2,360.8c-8.4,0-15.2,3.8-19.7,10.8c-2.1-5.3-5.7-9-10.7-10.9l-0.7-0.3l-0.6,0.4
					c-2.3,1.5-4.7,4.6-5.4,7.2l-0.3,0.9l0.7,0.6c2.4,2.2,4.9,7.2,4.9,14.2V438l1.2,0.2c1.6,0.3,3.6,0.5,6,0.5c2.1,0,4.1-0.2,5.7-0.5
					l1.2-0.2v-50.8c2.7-5.8,7.7-12.5,16.8-12.5c1.7,0,3.4,0,5.1,0.1l0.9,0.1l0.5-0.8c1.7-2.8,2.8-7,2.8-11.3v-1.3l-1.3-0.2
					C1009.9,360.8,1007.4,360.8,1006.2,360.8z"/>
				<path class="st2" d="M1032.3,361.2h-1.2c-1.7,0-4.3,0.3-7.7,0.8l-1,0.1l-0.3,0.9c-0.5,1.5-0.7,2.9-0.7,4.5
					c0,1.7,0.2,3.1,0.7,4.6l0.3,1.1h2.5c3.6,0,4.6,0.7,4.6,5.7V438l1.2,0.2c1.6,0.3,3.6,0.5,6,0.5c2.1,0,4.1-0.2,5.7-0.5l1.2-0.2
					v-64.5C1043.7,365.9,1039.3,361.2,1032.3,361.2z"/>
				<path class="st2" d="M1041.8,336.3c-1.8-1.2-5.6-1.8-7.6-1.8c-2.7,0-5.8,0.7-7.5,1.7l-0.4,0.2l-0.2,0.4
					c-0.8,1.5-1.2,4.4-1.2,6.2c0,1.9,0.5,4.7,1.2,6.2l0.2,0.4l0.4,0.2c1.8,1.1,5,1.9,7.5,1.9c2.1,0,6-0.7,7.7-2l0.3-0.2l0.2-0.3
					c0.8-1.5,1.2-4.4,1.2-6.2c0-1.9-0.5-4.7-1.2-6.2l-0.2-0.4L1041.8,336.3z"/>
				<path class="st2" d="M1095.6,394.3l-8.9-3.5c-7.4-2.8-10.3-5.5-10.3-9.5c0-5.6,4.8-9.4,11.8-9.4c5.8,0,12.2,1.5,19,4.5l1,0.4
					l0.7-0.7c2.3-2.3,3.9-6.3,3.9-9.8v-1l-0.9-0.4c-6.6-3-16.3-5.1-23.4-5.1c-15.4,0-26.5,9.3-26.5,22.2c0,9.9,6.6,17.1,20.1,22.2
					l8.4,3.3c6.2,2.3,9.9,6.2,9.9,10.5c-0.1,6.1-5.9,10.2-14.4,10.2c-7.7,0-15.4-3.8-20.5-6.7l-0.9-0.5l-0.8,0.6
					c-2.6,2.1-4.7,6.1-4.9,9.2l0,0.9l0.8,0.5c5.6,3.5,14.6,7.7,26.3,7.7c17.7,0,29.1-8.9,29.1-22.7
					C1115.2,407,1108.8,399.4,1095.6,394.3z"/>
				<path class="st2" d="M1157.9,359.9c-19.1,0-31.5,15.7-31.5,40c0,25.9,11,40.2,31,40.2c9.8,0,20.3-3.2,28.1-8.7l0.8-0.5l-0.1-0.9
					c-0.3-2.5-2-6.4-4.6-8.6l-0.8-0.7l-0.9,0.5c-7.7,4.2-14.2,6.1-21,6.1c-11.3,0-16.9-7.1-17.8-22.4h46.2l0.2-1.3
					c0.6-3.9,0.8-6.6,0.8-10.1C1188.3,373,1176.4,359.9,1157.9,359.9z M1174,392.8v0.4h-32.8c1.1-13.9,7.1-21.8,16.7-21.8
					C1172.4,371.4,1174,386.4,1174,392.8z"/>
				<path class="st2" d="M1236,394.3l-8.9-3.5c-7.4-2.8-10.3-5.5-10.3-9.5c0-5.6,4.8-9.4,11.8-9.4c5.8,0,12.2,1.5,19,4.5l1,0.4
					l0.7-0.7c2.3-2.3,3.9-6.3,3.9-9.8v-1l-0.9-0.4c-6.6-3-16.3-5.1-23.4-5.1c-15.4,0-26.5,9.3-26.5,22.2c0,9.9,6.6,17.1,20.1,22.2
					l8.4,3.3c6.2,2.3,9.9,6.2,9.9,10.5c-0.1,6.1-5.9,10.2-14.4,10.2c-7.7,0-15.4-3.8-20.5-6.7l-0.9-0.5l-0.8,0.6
					c-2.6,2.1-4.7,6.1-4.9,9.2l0,0.9l0.8,0.5c5.6,3.5,14.6,7.7,26.3,7.7c17.7,0,29.1-8.9,29.1-22.7
					C1255.6,407,1249.2,399.4,1236,394.3z"/>
			</g>
		</g>
	</g>
</g>
</svg>
