<svg width="129" height="75" xmlns="http://www.w3.org/2000/svg"><path d="M76.712 0h35.903l3.856 3.255c1.08.919.85 1.523.392 2.836-.689 1.93-1.403 2.284-4.359 2.154-1.024-.054-2.103-.132-2.414-.171-.35-.052-.013.145.972.552 2.13.892 3.21 1.574 4.802 3.046 1.2 1.102 1.484 1.299 2.037 1.365.743.092.769.183.311.761-.405.486-.298.723.337.723.377 0 .526-.106.89-.71.472-.788.729-.945 1.2-.721.73.354 1.175 1.628.784 2.284-.081.145-.648.63-1.268 1.09-1.296.958-1.377 1.221-.743 2.35.338.63.634 1.444 1.755 4.805 1.496 4.505 1.807 6.815 1.28 9.612-.256 1.313-.242 1.379.095 2.403.338 1.037 1.51 2.967 2.47 4.083.7.827 3.156 4.228 3.534 4.911.458.84.54 1.286.378 1.983-.202.814-.715 1.195-2.118 1.561-1.673.435-2.024.578-2.213.92-.297.512-.162 1.379.378 2.284.283.474.513 1.051.513 1.288 0 .55-.797 1.325-1.876 1.825l-.782.367.377.276c.203.145.486.275.634.275.23.013 1.148 1.55 1.148 1.944-.002.065-.54.59-1.197 1.168-1.331 1.143-1.424 1.405-.876 2.377.408.722.412 1.812.01 3.007-.523 1.556-1.623 2.502-3.482 2.99-.963.255-3.014.228-4.415-.055-1.84-.377-6.395-1.05-7.878-1.17-1.73-.135-3.126.035-4.25.518-.914.392-3.113 2.446-4.11 3.84-.946 1.318-1.597 2.517-2.227 4.088l-.373.869-19.475-.011v.01H28.807c1.322 0 1.627-.468 3.394-1.44 1.443-.787.593-.656-1.242.198-1.78.827-2.401.945-1.551.276.297-.237.66-.407.796-.394.134.026.636-.197 1.12-.473 2.86-1.72 5.748-2.469 13.294-3.453 2.32-.302 4.527-.723 5.896-1.116.44-.118 1.923-.906 3.299-1.733 2.726-1.642 4.047-2.771 4.681-4.005.365-.723.5-1.524.253-1.524-.067 0-.553.394-1.08.88-1.82 1.68-4.376 3.375-6.84 4.504-2.89 1.326-4.227 1.563-11.39 2.048-.482.04-.728.026-.553-.013.175-.04.459-.289.634-.538.216-.302.472-.473.756-.512.23-.013.499-.132.607-.25a.747.747 0 0 1 .499-.21c.175 0 .283-.079.243-.183-.068-.197-.58-.21-1.673-.04-.742.118-.796.04-.486-.578.108-.196.324-.367.486-.367.175 0 .54-.21.837-.473.296-.25 2.185-1.274 4.222-2.272 2.023-.998 3.683-1.864 3.683-1.93 0-.066-.12-.092-.256-.039-.756.263-1.052.276-.999.027.041-.158.446-.368 1.093-.578.567-.184 1.821-.67 2.793-1.065.958-.407 1.848-.773 1.983-.814.135-.052-.203-.052-.756 0-1.093.093-1.308-.078-.512-.407.324-.13.485-.288.485-.511 0-.184.095-.329.203-.329.148 0 .148-.039-.013-.13-.163-.093-.095-.145.27-.224.54-.105.836-.367.431-.367-.135 0-.243-.067-.243-.145 0-.223.648-.552 1.457-.749.837-.184.971-.327.445-.485-.188-.052-.296-.132-.242-.184.054-.04-.027-.158-.163-.25-.229-.157-.202-.25.23-.958.392-.617 1.295-3.151 1.295-3.624 0-.276-.553-.066-1.241.446-1.579 1.195-5.168 2.39-7.947 2.652-2.023.197-2.522.067-3.898-.997-3.211-2.482-11.062-4.464-17.97-4.53l-1.35-.013.878-.29c.472-.157 1.915-.51 3.184-.774a102.08 102.08 0 0 0 4.398-1.063c1.146-.315 2.577-.643 3.184-.749 2.199-.367 2.293-.446.472-.38-3.683.13-11.198 1.864-13.384 3.085-.714.407-1.349.499-1.349.21 0-.617 2.874-3.006 4.533-3.768.931-.42 1.39-.539 3.104-.722 2.226-.25 3.345-.21 7.986.25 2.631.262 6.57.892 8.148 1.286.42.105.743.341 1.148.853.525.67.593.71 1.483.788.958.092 2.037.29 2.523.46.256.079.27.04.19-.368-.136-.646.363-.948 1.24-.731.756.188 1.309.075 1.538-.312.257-.439.068-.77-1.133-1.986-.607-.608-1.093-1.2-1.093-1.313 0-.113.58.313 1.309.95 1.7 1.497 2.806 2.146 4.155 2.448 1.16.257 1.875.143 1.875-.298 0-.537-1.322-2.236-3.143-4.048-.796-.792-1.16-1.267-1.16-1.516a.674.674 0 0 0-.31-.543c-.176-.1-.311-.294-.311-.433 0-.14-.149-.544-.337-.9-.688-1.305-.77-1.534-.863-2.598a13.33 13.33 0 0 0-.392-2.092c-.161-.555-.701-2.894-1.2-5.195-1.148-5.227-1.215-6.56-.432-8.31.499-1.126 3.048-5.19 4.384-6.995.985-1.328 2.172-2.494 3.17-3.106.648-.402.837-.621 1.053-1.212.575-1.606 2.88-4.51 4.591-5.783.504-.377 1.9-1.127 3.1-1.669L68.506 0h8.206zM19.505 74.983c.026.023-2.248.023-6.82-.001l.35-.447c.931-1.157 1.889-1.628 4.776-2.31 1.16-.276 2.355-.603 2.655-.728.443-.185.88-.207 2.387-.127 1.016.055 1.944.147 2.065.205.149.072-.288.387-1.354.975-3.318 1.829-4.128 2.372-4.06 2.433zm-5.949-9.433c-.871.479-1.82.96-2.105 1.07l.048-.13c-.282.104-.593.196-.687.196-.419 0-.027-.512.729-.958.242-.145.377-.355.377-.604 0-.46 1.052-1.431 3.468-3.178.903-.643 1.632-1.286 1.632-1.405 0-.131.417-.63.917-1.116.512-.485 1.04-1.09 1.188-1.339.148-.25.58-.644.97-.867l.703-.394-.352-.275c-.27-.21-.526-.263-1.092-.223-.405.026-.864-.013-1.026-.093-.242-.117-.215-.17.31-.393.473-.21.54-.29.351-.38-.647-.33.067-.894 1.363-1.065.403-.06.797-.17 1.174-.327.472-.224.445-.237-1.39-.303-2.226-.091-2.374-.17-1.942-1.037.755-1.524 2.104-2.994 3.574-3.886.77-.46.918-.5 1.04-.197.144.34-.41 1.195-.922 1.418-.59.262-.508.314.903.537 1.909.29 3.612.868 2.621.868-.64 0-.045.249.877.368 1.009.13 1.522.301 1.522.511 0 .17-.517.132-1.196-.091-.213-.067-.264-.054-.159.039.087.078 1.126.394 2.31.695 6.795 1.72 9.892 2.823 12.974 4.609l1.264.736-1.264.525c-1.747.722-3.736 1.326-6.361 1.93-3.88.88-5.32 1.13-5.99 1.024-.485-.079-.624-.053-.624.118 0 .145-.248.236-.787.302-.433.053-.989.184-1.236.302-.627.296-2.118.372-2.118.112 0-.071.162-.18.358-.242.276-.089.159-.129-.512-.17-.481-.03-.924-.128-.984-.214-.17-.25-3.135.527-5.154 1.351l-2.47 1.011c-.394.162-1.43.688-2.302 1.165zm18.066-.99c-.247.133-.939.3-1.535.373v.01c-.615.07-1.23.144-1.844.223-1.102.149-.95-.393.227-.796.291-.1.876-.308 1.298-.463l.767-.281.768.346.77.347-.451.241zM12.348 51.02c-3.18 1.995-5.686 3.99-9.234 7.352l.048-.048c-.846.803-1.683 1.617-2.509 2.442-1.08 1.13-.782.525.608-1.235 1.47-1.864 3.034-4.162 3.898-5.764.446-.814.728-1.156 1.093-1.312 1.133-.487 3.373-2.22 6.22-4.793 3.953-3.585 6.03-5.095 8.89-6.5 1.228-.59 1.565-.696 2.55-.748 1.28-.08 3.008.184 2.914.446-.054.158-1.767.828-2.132.828-.121 0-.161-.132-.107-.315.067-.25-.136-.145-1.012.485-.607.433-1.714 1.234-2.483 1.76-1.618 1.129-2.044 1.589-3.164 3.427-1.08 1.76-1.513 2.271-2.379 2.77-.753.434-1.217.512-1.32.237-.038-.103-.801.29-1.881.968zm26.33-6.235c-.151.037-.027.066.28.066.305 0 .432-.029.278-.066a1.443 1.443 0 0 0-.557 0zm7.687 28.393c-2.992.117-3.463.178-7.726.982l-.003-.014-4.54.827H59.31l1.983-1.93c2.213-2.22 3.67-3.506 5.733-5.056.904-.682 1.404-1.156 1.404-1.34 0-.327-.014-.327-1.31.487-1.348.853-1.47.578-.148-.303 1.142-.774 1.345-.944.899-.787-.151.053-.239-.002-.239-.15 0-.172-.152-.23-.598-.23-1.49.005-2.982.649-4.73 2.045-.63.498-.778.556-1.272.472-.464-.078-.756 0-1.718.473-.638.313-1.875 1.025-2.752 1.58-2.142 1.359-3.24 1.9-3.396 1.673-.09-.128-.344-.078-.992.197-2.021.86-2.45.94-5.809 1.074zm67.566-33.968c-.842 0-1.2.233-.505.33l.028-.054c.916.131 3.016.104 3.582-.039.781-.196.97-.536.835-1.49-.068-.47-.04-.875.067-1.058.121-.196.121-.418.027-.64-.12-.301-.067-.418.364-.797.282-.248.632-.444.767-.444s.418-.131.62-.275l.377-.274-.728-.706.445-.313c1.064-.758 1.697-2.274 1.118-2.705-.297-.222-2.774-.744-3.515-.744-1.899 0-5.346.888-7.137 1.855-1.333.705-1.603.993-.647.666.93-.326 3.178-.758 4.485-.849 1.131-.079 3.514.17 3.77.405.243.222-.444.914-1.548 1.568-.647.379-1.36.849-1.589 1.032-.216.183-.579.372-.822.422-.296.065-.47.231-.606.575-.16.46-.215.488-1.05.551-.47.035-.943.132-1.037.213-.256.238 1.212 1.028 2.114 1.137.512.061.862.192.997.375.161.197.323.252.552.187.27-.077.323-.036.323.226 0 .554-.444.846-1.287.846z" fill="#FFF" fill-rule="evenodd" fill-opacity=".2"/></svg>