<?xml version="1.0" encoding="utf-8"?>
<!-- Generator: Adobe Illustrator 25.4.1, SVG Export Plug-In . SVG Version: 6.00 Build 0)  -->
<svg version="1.1" id="Calque_1" xmlns="http://www.w3.org/2000/svg" xmlns:xlink="http://www.w3.org/1999/xlink" x="0px" y="0px"
	 viewBox="0 0 270.13 130.92" style="enable-background:new 0 0 270.13 130.92;" xml:space="preserve">
<style type="text/css">
	.st0{fill:#322E52;}
	.st1{fill:#312E51;}
	.st2{fill:#006D91;}
	.st3{fill:#0DAE8E;}
	.st4{fill:#0FAC8B;}
</style>
<g>
	<g>
		<path class="st0" d="M254.87,27.03v14.83c0,7.8,6.94,7.13,14.21,5.41l1.05,12.25c-3.35,1.24-8.37,2.1-12.2,2.1
			c-10.53,0-18.13-5.07-18.13-17.32V27.03h-7.32v-12.3h7.32V0h14.59v14.73h12.97v12.3H254.87z"/>
		<path class="st0" d="M212.18,43.94l11.69,8.89c-4.15,5.47-10.76,8.91-18.97,8.91c-15.7,0-24.7-11.03-24.7-23.99
			s9-23.99,24.7-23.99c8.2,0,14.82,3.44,18.97,8.91l-11.69,8.89c-1.49-2.23-3.97-3.97-7.52-3.97c-5.37,0-9.34,4.05-9.34,10.16
			c0,6.2,3.97,10.16,9.58,10.16C208.14,47.91,210.7,46.17,212.18,43.94z"/>
		<path class="st0" d="M49.84,60.66V14.74l-15.07,4.83c-2.63-3.2-7.08-5.79-13.54-5.79C8.99,13.78,0,24.02,0,37.75
			c0,13.73,8.99,23.87,21.24,23.87c6.34,0,10.72-2.45,13.37-5.62l0.46,4.67H49.84z M24.83,48.32c-5.84,0-9.9-4.35-9.9-10.57
			c0-6.22,4.06-10.57,9.9-10.57c5.84,0.05,9.9,4.35,9.9,10.57C34.73,43.97,30.66,48.32,24.83,48.32z M34.71,55.89
			c0.02-0.02,0.04-0.04,0.06-0.06l0.01,0.08L34.71,55.89z"/>
		<g>
			<g>
				<polygon class="st1" points="153.81,21.97 153.81,37.9 168.88,37.9 168.88,14.73 				"/>
			</g>
			<g>
				<polygon class="st2" points="153.81,21.97 153.81,37.9 168.88,37.9 168.88,14.73 				"/>
			</g>
			<g>
				<g>
					<path class="st3" d="M144.76,13.78c-13.32,0-24.12,10.8-24.12,24.12c0,13.32,10.8,24.12,24.12,24.12
						c13.32,0,24.12-10.8,24.12-24.12C168.88,24.58,158.08,13.78,144.76,13.78z M144.76,46.95c-5,0-9.05-4.05-9.05-9.05
						s4.05-9.05,9.05-9.05c5,0,9.05,4.05,9.05,9.05S149.76,46.95,144.76,46.95z"/>
				</g>
				<g>
					<path class="st2" d="M153.81,37.9c0,5-4.05,9.05-9.05,9.05c-7.69,0-17.05-9.86-17.05-26.1c-4.36,4.36-7.06,10.39-7.06,17.05
						c0,13.32,10.8,24.12,24.12,24.12c13.32,0,24.12-10.8,24.12-24.12H153.81z"/>
				</g>
			</g>
			<g>
				<polygon class="st3" points="153.81,37.9 153.81,53.55 168.88,60.66 168.88,37.9 				"/>
			</g>
			<path class="st0" d="M168.88,37.87c-0.01-7.6-3.54-14.37-9.05-18.79l-6.02,2.89v31.58l6.29,2.97c5.35-4.42,8.77-11.1,8.78-18.58
				V37.87z"/>
		</g>
		<g>
			<path class="st0" d="M77.96,19.57c3.25-4.11,8.8-5.79,14.21-5.79c8.66,0,16.98,6.07,16.98,17.03v29.85H94.08V35.11
				c0-5.12-4.07-7.56-7.7-7.56c-3.78,0-7.65,2.44-7.65,7.56v25.55H63.66V14.73L77.96,19.57z"/>
		</g>
	</g>
	<g>
		<g>
			<path class="st1" d="M94.04,84.96c0-2.64,1.81-4.52,4.2-4.52c1.35,0,2.27,0.52,2.84,1.23l0.04-1.05h2.28v8.72h-2.28l-0.04-1.05
				c-0.57,0.73-1.49,1.23-2.84,1.23C95.85,89.52,94.04,87.6,94.04,84.96z M98.7,82.52c-1.4,0-2.34,1.05-2.34,2.44
				c0,1.4,0.94,2.49,2.34,2.49c1.39,0,2.38-1.09,2.38-2.49C101.08,83.57,100.09,82.52,98.7,82.52z"/>
			<path class="st1" d="M105.23,84.97c0-2.65,1.75-4.53,4.22-4.53c1.4,0,2.3,0.51,2.88,1.23l0.04-1.05h2.23v8.41
				c0,2.76-2.35,4.12-5.07,4.12c-1.42,0-2.71-0.34-3.48-0.73l0.27-2c0.66,0.35,1.93,0.65,3.05,0.65c1.46,0,2.9-0.65,2.9-2.11v-0.62
				c-0.53,0.7-1.55,1.16-2.83,1.16C106.98,89.52,105.23,87.6,105.23,84.97z M109.93,82.53c-1.39,0-2.36,1.03-2.36,2.43
				c0,1.38,0.97,2.47,2.36,2.47c1.37,0,2.37-1.09,2.37-2.47C112.3,83.57,111.3,82.53,109.93,82.53z"/>
			<path class="st1" d="M124.77,88.7c-0.84,0.48-2.02,0.82-3.29,0.82c-3.09,0-5.07-1.83-5.07-4.54c0-2.67,1.89-4.54,4.48-4.54
				c2.68,0,4.71,2.02,4.14,5.24h-6.3c0.24,1.22,1.33,1.8,2.76,1.8c1.08,0,2.09-0.25,2.95-0.66L124.77,88.7z M122.94,84.11
				c-0.06-0.97-0.8-1.72-2-1.72c-1.24,0-2.08,0.73-2.18,1.72H122.94z"/>
			<path class="st1" d="M135.33,83.86v5.47h-2.33v-4.88c0-1.21-0.78-1.86-1.8-1.86c-1.03,0-1.93,0.65-1.93,1.86v4.88h-2.32v-8.72
				h2.21l0.05,1.01c0.45-0.61,1.39-1.19,2.69-1.19C133.9,80.44,135.33,81.76,135.33,83.86z"/>
			<path class="st1" d="M141.94,80.44c1.07,0,2,0.25,2.74,0.58l-0.2,2.02c-0.63-0.27-1.43-0.47-2.29-0.47
				c-1.59,0-2.81,0.82-2.81,2.39c0,1.49,1.15,2.42,2.73,2.42c0.88,0,1.64-0.22,2.4-0.57l0.27,2.07c-0.92,0.41-1.76,0.64-2.82,0.64
				c-2.87,0-4.91-1.85-4.91-4.55C137.05,82.14,139.12,80.44,141.94,80.44z"/>
			<path class="st1" d="M154.2,88.7c-0.84,0.48-2.02,0.82-3.29,0.82c-3.09,0-5.07-1.83-5.07-4.54c0-2.67,1.89-4.54,4.48-4.54
				c2.68,0,4.71,2.02,4.14,5.24h-6.3c0.24,1.22,1.33,1.8,2.76,1.8c1.08,0,2.09-0.25,2.95-0.66L154.2,88.7z M152.38,84.11
				c-0.06-0.97-0.8-1.72-2-1.72c-1.24,0-2.08,0.73-2.18,1.72H152.38z"/>
			<path class="st1" d="M169.31,83.86v5.47h-2.33v-4.88c0-1.21-0.78-1.86-1.8-1.86c-1.03,0-1.93,0.65-1.93,1.86v4.88h-2.32v-8.72
				h2.21l0.05,1.01c0.45-0.61,1.39-1.19,2.69-1.19C167.89,80.44,169.31,81.76,169.31,83.86z"/>
			<path class="st1" d="M171.05,84.96c0-2.64,1.81-4.52,4.2-4.52c1.35,0,2.27,0.52,2.84,1.23l0.04-1.05h2.28v8.72h-2.28l-0.04-1.05
				c-0.57,0.73-1.49,1.23-2.84,1.23C172.86,89.52,171.05,87.6,171.05,84.96z M175.71,82.52c-1.4,0-2.34,1.05-2.34,2.44
				c0,1.4,0.94,2.49,2.34,2.49c1.39,0,2.38-1.09,2.38-2.49C178.08,83.57,177.09,82.52,175.71,82.52z"/>
			<path class="st1" d="M185.7,82.55v3.59c0,0.91,0.51,1.31,1.29,1.31c0.44,0,0.99-0.07,1.48-0.21l0.22,1.93
				c-0.54,0.21-1.4,0.34-2.11,0.34c-1.92,0-3.21-0.99-3.21-3.04v-3.92h-1.47v-1.93h1.48v-2.8h2.26v2.8h2.52v1.93H185.7z"/>
			<path class="st1" d="M189.91,77.82c0-0.79,0.54-1.34,1.33-1.34s1.34,0.54,1.34,1.34c0,0.79-0.55,1.33-1.34,1.33
				S189.91,78.61,189.91,77.82z M190.09,89.34v-8.72h2.33v8.72H190.09z"/>
			<path class="st1" d="M198.88,80.44c2.68,0,4.66,1.97,4.66,4.54c0,2.58-1.98,4.54-4.66,4.54c-2.67,0-4.66-1.96-4.66-4.54
				C194.22,82.41,196.21,80.44,198.88,80.44z M198.88,87.41c1.37,0,2.34-1.04,2.34-2.43c0-1.39-0.97-2.42-2.34-2.42
				c-1.36,0-2.34,1.04-2.34,2.42C196.54,86.38,197.52,87.41,198.88,87.41z"/>
			<path class="st1" d="M213.72,83.86v5.47h-2.33v-4.88c0-1.21-0.78-1.86-1.8-1.86c-1.03,0-1.93,0.65-1.93,1.86v4.88h-2.32v-8.72
				h2.21l0.05,1.01c0.45-0.61,1.39-1.19,2.69-1.19C212.3,80.44,213.72,81.76,213.72,83.86z"/>
			<path class="st1" d="M215.46,84.96c0-2.64,1.81-4.52,4.2-4.52c1.35,0,2.27,0.52,2.84,1.23l0.04-1.05h2.28v8.72h-2.28l-0.04-1.05
				c-0.57,0.73-1.49,1.23-2.84,1.23C217.26,89.52,215.46,87.6,215.46,84.96z M220.11,82.52c-1.4,0-2.34,1.05-2.34,2.44
				c0,1.4,0.94,2.49,2.34,2.49c1.39,0,2.38-1.09,2.38-2.49C222.49,83.57,221.5,82.52,220.11,82.52z"/>
			<path class="st1" d="M229.44,89.34h-2.32V76.55h2.32V89.34z"/>
			<path class="st1" d="M239.6,88.7c-0.84,0.48-2.02,0.82-3.29,0.82c-3.09,0-5.07-1.83-5.07-4.54c0-2.67,1.89-4.54,4.48-4.54
				c2.68,0,4.71,2.02,4.14,5.24h-6.3c0.24,1.22,1.33,1.8,2.76,1.8c1.08,0,2.09-0.25,2.95-0.66L239.6,88.7z M237.78,84.11
				c-0.06-0.97-0.8-1.72-2-1.72c-1.24,0-2.08,0.73-2.18,1.72H237.78z"/>
			<path class="st1" d="M73.04,105.72c0,2.63-1.75,4.5-4.22,4.5c-1.28,0-2.25-0.44-2.83-1.1v4.55h-2.32v-12.35h2.24l0.05,1.05
				c0.57-0.73,1.47-1.23,2.87-1.23C71.29,101.14,73.04,103.06,73.04,105.72z M68.34,108.13c1.38,0,2.36-1.04,2.36-2.42
				c0-1.41-0.97-2.48-2.36-2.48c-1.38,0-2.37,1.09-2.37,2.48C65.98,107.09,66.97,108.13,68.34,108.13z"/>
			<path class="st1" d="M79.17,101.14c2.68,0,4.66,1.97,4.66,4.54c0,2.58-1.98,4.54-4.66,4.54c-2.67,0-4.66-1.96-4.66-4.54
				C74.51,103.11,76.5,101.14,79.17,101.14z M79.17,108.11c1.37,0,2.34-1.04,2.34-2.43c0-1.39-0.97-2.42-2.34-2.42
				c-1.36,0-2.34,1.04-2.34,2.42C76.83,107.08,77.81,108.11,79.17,108.11z"/>
			<path class="st1" d="M91.56,101.32h2.32v5.13c0,2.21-1.66,3.77-4.12,3.77c-2.47,0-4.08-1.54-4.08-3.71v-5.18h2.33v4.89
				c0,1.11,0.72,1.86,1.74,1.86c1.08,0,1.8-0.75,1.8-1.86V101.32z"/>
			<path class="st1" d="M98.52,102.51c0.45-0.91,1.29-1.37,2.27-1.37c0.52,0,0.95,0.14,1.13,0.2l-0.18,2.08
				c-0.24-0.08-0.62-0.2-1.08-0.2c-1.03,0-2.11,0.55-2.11,2.35v4.47h-2.33v-8.72h2.25L98.52,102.51z"/>
			<path class="st1" d="M110.09,110.04h-2.32V97.25h2.32V110.04z"/>
			<path class="st1" d="M115.81,97.07l-1.84,4.68h-1.87l1.24-4.68H115.81z"/>
			<path class="st1" d="M116.09,105.66c0-2.64,1.81-4.52,4.2-4.52c1.35,0,2.27,0.52,2.84,1.23l0.04-1.05h2.28v8.72h-2.28l-0.04-1.05
				c-0.57,0.73-1.49,1.23-2.84,1.23C117.89,110.22,116.09,108.3,116.09,105.66z M120.74,103.22c-1.4,0-2.34,1.05-2.34,2.44
				c0,1.4,0.94,2.49,2.34,2.49c1.39,0,2.38-1.09,2.38-2.49C123.12,104.27,122.13,103.22,120.74,103.22z"/>
			<path class="st1" d="M135.75,102.68c0.62-0.93,1.72-1.54,3.02-1.54c2,0,3.42,1.3,3.42,3.42v5.47h-2.33v-4.88
				c0-1.21-0.74-1.86-1.74-1.86c-1,0-1.92,0.63-1.92,1.81v4.93h-2.33v-4.88c0-1.21-0.75-1.86-1.73-1.86c-1.01,0-1.91,0.65-1.91,1.86
				v4.88h-2.33v-8.72h2.21l0.05,1.01c0.44-0.61,1.39-1.19,2.67-1.19C134.15,101.14,135.24,101.69,135.75,102.68z"/>
			<path class="st1" d="M152.42,109.4c-0.84,0.48-2.02,0.82-3.29,0.82c-3.09,0-5.07-1.83-5.07-4.54c0-2.67,1.89-4.54,4.48-4.54
				c2.68,0,4.71,2.02,4.14,5.24h-6.3c0.24,1.22,1.33,1.8,2.76,1.8c1.08,0,2.09-0.25,2.95-0.66L152.42,109.4z M150.59,104.82
				c-0.06-0.97-0.8-1.72-2-1.72c-1.24,0-2.08,0.73-2.18,1.72H150.59z M149.65,100.1h-1.96l1.42-3.03h2.65L149.65,100.1z"/>
			<path class="st1" d="M157.06,110.04h-2.32V97.25h2.32V110.04z"/>
			<path class="st1" d="M159.33,98.53c0-0.79,0.54-1.34,1.33-1.34s1.34,0.54,1.34,1.34c0,0.79-0.55,1.33-1.34,1.33
				S159.33,99.31,159.33,98.53z M159.5,110.04v-8.72h2.33v8.72H159.5z"/>
			<path class="st1" d="M168.44,101.14c2.68,0,4.66,1.97,4.66,4.54c0,2.58-1.98,4.54-4.66,4.54c-2.67,0-4.66-1.96-4.66-4.54
				C163.78,103.11,165.77,101.14,168.44,101.14z M168.44,108.11c1.37,0,2.34-1.04,2.34-2.43c0-1.39-0.97-2.42-2.34-2.42
				c-1.36,0-2.34,1.04-2.34,2.42C166.1,107.08,167.08,108.11,168.44,108.11z"/>
			<path class="st1" d="M177.34,102.51c0.45-0.91,1.29-1.37,2.27-1.37c0.52,0,0.95,0.14,1.13,0.2l-0.18,2.08
				c-0.24-0.08-0.62-0.2-1.08-0.2c-1.03,0-2.11,0.55-2.11,2.35v4.47h-2.33v-8.72h2.25L177.34,102.51z"/>
			<path class="st1" d="M181.62,105.66c0-2.64,1.81-4.52,4.2-4.52c1.35,0,2.27,0.52,2.84,1.23l0.04-1.05h2.28v8.72h-2.28l-0.04-1.05
				c-0.57,0.73-1.49,1.23-2.84,1.23C183.43,110.22,181.62,108.3,181.62,105.66z M186.28,103.22c-1.4,0-2.34,1.05-2.34,2.44
				c0,1.4,0.94,2.49,2.34,2.49c1.39,0,2.38-1.09,2.38-2.49C188.66,104.27,187.67,103.22,186.28,103.22z"/>
			<path class="st1" d="M196.42,103.26v3.59c0,0.91,0.51,1.31,1.29,1.31c0.44,0,0.99-0.07,1.48-0.21l0.22,1.93
				c-0.54,0.21-1.4,0.34-2.11,0.34c-1.92,0-3.21-0.99-3.21-3.04v-3.92h-1.47v-1.93h1.48v-2.8h2.26v2.8h2.52v1.93H196.42z"/>
			<path class="st1" d="M200.79,98.53c0-0.79,0.54-1.34,1.33-1.34s1.34,0.54,1.34,1.34c0,0.79-0.55,1.33-1.34,1.33
				S200.79,99.31,200.79,98.53z M200.96,110.04v-8.72h2.33v8.72H200.96z"/>
			<path class="st1" d="M209.9,101.14c2.68,0,4.66,1.97,4.66,4.54c0,2.58-1.98,4.54-4.66,4.54c-2.67,0-4.66-1.96-4.66-4.54
				C205.24,103.11,207.23,101.14,209.9,101.14z M209.9,108.11c1.37,0,2.34-1.04,2.34-2.43c0-1.39-0.97-2.42-2.34-2.42
				c-1.36,0-2.34,1.04-2.34,2.42C207.56,107.08,208.54,108.11,209.9,108.11z"/>
			<path class="st1" d="M224.89,104.56v5.47h-2.33v-4.88c0-1.21-0.78-1.86-1.8-1.86c-1.03,0-1.93,0.65-1.93,1.86v4.88h-2.32v-8.72
				h2.21l0.05,1.01c0.45-0.61,1.39-1.19,2.69-1.19C223.47,101.14,224.89,102.47,224.89,104.56z"/>
			<path class="st1" d="M63.19,126.37c0-2.65,1.75-4.53,4.22-4.53c1.4,0,2.3,0.51,2.88,1.23v-5.13h2.29v12.79h-2.29l-0.05-0.93
				c-0.58,0.67-1.55,1.11-2.83,1.11C64.94,130.92,63.19,129,63.19,126.37z M67.89,123.93c-1.39,0-2.36,1.03-2.36,2.43
				c0,1.38,0.97,2.47,2.36,2.47c1.37,0,2.37-1.09,2.37-2.47C70.26,124.97,69.26,123.93,67.89,123.93z"/>
			<path class="st1" d="M82.75,130.1c-0.84,0.48-2.02,0.82-3.29,0.82c-3.09,0-5.07-1.83-5.07-4.54c0-2.67,1.89-4.54,4.48-4.54
				c2.68,0,4.71,2.02,4.14,5.24h-6.3c0.24,1.22,1.33,1.8,2.76,1.8c1.08,0,2.09-0.25,2.95-0.66L82.75,130.1z M80.93,125.52
				c-0.06-0.97-0.8-1.72-2-1.72c-1.24,0-2.08,0.73-2.18,1.72H80.93z"/>
			<path class="st1" d="M89.06,125.59c1.72,0.32,2.59,1.1,2.59,2.61c0,1.75-1.45,2.72-3.69,2.72c-1.31,0-2.57-0.24-3.36-0.63
				l0.25-1.91c0.86,0.36,2.04,0.61,2.93,0.61c1.13,0,1.62-0.24,1.62-0.75c0-0.46-0.37-0.69-1.39-0.87l-1.04-0.2
				c-1.68-0.29-2.5-1.14-2.5-2.59c0-1.62,1.51-2.74,3.82-2.74c1.09,0,2.17,0.2,2.95,0.54l-0.2,1.9c-0.63-0.27-1.8-0.49-2.63-0.49
				c-1.14,0-1.7,0.27-1.7,0.79c0,0.43,0.38,0.64,1.42,0.83L89.06,125.59z"/>
			<path class="st1" d="M102.39,121.84c1.07,0,2,0.25,2.74,0.58l-0.2,2.02c-0.63-0.27-1.43-0.47-2.29-0.47
				c-1.59,0-2.81,0.82-2.81,2.39c0,1.49,1.15,2.42,2.73,2.42c0.88,0,1.64-0.22,2.4-0.57l0.27,2.07c-0.92,0.41-1.76,0.64-2.82,0.64
				c-2.87,0-4.91-1.85-4.91-4.55C97.5,123.54,99.57,121.84,102.39,121.84z"/>
			<path class="st1" d="M110.97,121.84c2.68,0,4.66,1.97,4.66,4.54c0,2.58-1.98,4.54-4.66,4.54c-2.67,0-4.66-1.96-4.66-4.54
				C106.31,123.81,108.3,121.84,110.97,121.84z M110.97,128.81c1.37,0,2.34-1.04,2.34-2.43c0-1.39-0.97-2.42-2.34-2.42
				c-1.36,0-2.34,1.04-2.34,2.42C108.63,127.78,109.61,128.81,110.97,128.81z"/>
			<path class="st1" d="M125.83,125.26v5.47h-2.33v-4.88c0-1.21-0.78-1.86-1.8-1.86c-1.03,0-1.93,0.65-1.93,1.86v4.88h-2.32v-8.72
				h2.21l0.05,1.01c0.45-0.61,1.39-1.19,2.69-1.19C124.41,121.84,125.83,123.17,125.83,125.26z"/>
			<path class="st1" d="M127.58,126.37c0-2.65,1.75-4.53,4.22-4.53c1.4,0,2.3,0.51,2.88,1.23v-5.13h2.29v12.79h-2.29l-0.05-0.93
				c-0.58,0.67-1.55,1.11-2.83,1.11C129.34,130.92,127.58,129,127.58,126.37z M132.29,123.93c-1.39,0-2.36,1.03-2.36,2.43
				c0,1.38,0.97,2.47,2.36,2.47c1.37,0,2.37-1.09,2.37-2.47C134.66,124.97,133.66,123.93,132.29,123.93z"/>
			<path class="st1" d="M139.11,119.23c0-0.79,0.54-1.34,1.33-1.34s1.34,0.54,1.34,1.34c0,0.79-0.55,1.33-1.34,1.33
				S139.11,120.02,139.11,119.23z M139.28,130.74v-8.72h2.33v8.72H139.28z"/>
			<path class="st1" d="M146.92,123.96v3.59c0,0.91,0.51,1.31,1.29,1.31c0.44,0,0.99-0.07,1.48-0.21l0.22,1.93
				c-0.54,0.21-1.4,0.34-2.11,0.34c-1.92,0-3.21-0.99-3.21-3.04v-3.92h-1.47v-1.93h1.48v-2.8h2.26v2.8h2.52v1.93H146.92z"/>
			<path class="st1" d="M151.15,119.23c0-0.79,0.54-1.34,1.33-1.34s1.34,0.54,1.34,1.34c0,0.79-0.55,1.33-1.34,1.33
				S151.15,120.02,151.15,119.23z M151.32,130.74v-8.72h2.33v8.72H151.32z"/>
			<path class="st1" d="M160.13,121.84c2.68,0,4.66,1.97,4.66,4.54c0,2.58-1.98,4.54-4.66,4.54c-2.67,0-4.66-1.96-4.66-4.54
				C155.47,123.81,157.46,121.84,160.13,121.84z M160.13,128.81c1.37,0,2.34-1.04,2.34-2.43c0-1.39-0.97-2.42-2.34-2.42
				c-1.36,0-2.34,1.04-2.34,2.42C157.79,127.78,158.77,128.81,160.13,128.81z"/>
			<path class="st1" d="M174.99,125.26v5.47h-2.33v-4.88c0-1.21-0.78-1.86-1.8-1.86c-1.03,0-1.93,0.65-1.93,1.86v4.88h-2.32v-8.72
				h2.21l0.05,1.01c0.45-0.61,1.39-1.19,2.69-1.19C173.57,121.84,174.99,123.17,174.99,125.26z"/>
			<path class="st1" d="M181.34,125.59c1.72,0.32,2.59,1.1,2.59,2.61c0,1.75-1.45,2.72-3.69,2.72c-1.31,0-2.57-0.24-3.36-0.63
				l0.25-1.91c0.86,0.36,2.04,0.61,2.93,0.61c1.13,0,1.62-0.24,1.62-0.75c0-0.46-0.37-0.69-1.39-0.87l-1.04-0.2
				c-1.68-0.29-2.5-1.14-2.5-2.59c0-1.62,1.51-2.74,3.82-2.74c1.09,0,2.17,0.2,2.95,0.54l-0.2,1.9c-0.63-0.27-1.8-0.49-2.63-0.49
				c-1.14,0-1.7,0.27-1.7,0.79c0,0.43,0.38,0.64,1.42,0.83L181.34,125.59z"/>
			<path class="st1" d="M189.79,126.37c0-2.65,1.75-4.53,4.22-4.53c1.4,0,2.3,0.51,2.88,1.23v-5.13h2.29v12.79h-2.29l-0.05-0.93
				c-0.58,0.67-1.55,1.11-2.83,1.11C191.54,130.92,189.79,129,189.79,126.37z M194.49,123.93c-1.39,0-2.36,1.03-2.36,2.43
				c0,1.38,0.97,2.47,2.36,2.47c1.37,0,2.37-1.09,2.37-2.47C196.86,124.97,195.86,123.93,194.49,123.93z"/>
			<path class="st1" d="M209.36,130.1c-0.84,0.48-2.02,0.82-3.29,0.82c-3.09,0-5.07-1.83-5.07-4.54c0-2.67,1.89-4.54,4.48-4.54
				c2.68,0,4.71,2.02,4.14,5.24h-6.3c0.24,1.22,1.33,1.8,2.76,1.8c1.08,0,2.09-0.25,2.95-0.66L209.36,130.1z M207.53,125.52
				c-0.06-0.97-0.8-1.72-2-1.72c-1.24,0-2.08,0.73-2.18,1.72H207.53z"/>
			<path class="st1" d="M219.11,123.96v3.59c0,0.91,0.51,1.31,1.29,1.31c0.44,0,0.99-0.07,1.48-0.21l0.22,1.93
				c-0.54,0.21-1.4,0.34-2.11,0.34c-1.92,0-3.21-0.99-3.21-3.04v-3.92h-1.47v-1.93h1.48v-2.8h2.26v2.8h2.52v1.93H219.11z"/>
			<path class="st1" d="M225.81,123.21c0.45-0.91,1.29-1.37,2.27-1.37c0.52,0,0.95,0.14,1.13,0.2l-0.18,2.08
				c-0.24-0.08-0.62-0.2-1.08-0.2c-1.03,0-2.11,0.55-2.11,2.35v4.47h-2.33v-8.72h2.25L225.81,123.21z"/>
			<path class="st1" d="M229.96,126.36c0-2.64,1.81-4.52,4.2-4.52c1.35,0,2.27,0.52,2.84,1.23l0.04-1.05h2.28v8.72h-2.28l-0.04-1.05
				c-0.57,0.73-1.49,1.23-2.84,1.23C231.77,130.92,229.96,129,229.96,126.36z M234.62,123.92c-1.4,0-2.34,1.05-2.34,2.44
				c0,1.4,0.94,2.49,2.34,2.49c1.39,0,2.38-1.09,2.38-2.49C237,124.97,236.01,123.92,234.62,123.92z"/>
			<path class="st1" d="M247.79,122.02h2.47l-3.31,8.72h-2.83l-3.32-8.72h2.47l2.27,6.44L247.79,122.02z"/>
			<path class="st1" d="M250.97,126.36c0-2.64,1.81-4.52,4.2-4.52c1.35,0,2.27,0.52,2.84,1.23l0.04-1.05h2.28v8.72h-2.28l-0.04-1.05
				c-0.57,0.73-1.49,1.23-2.84,1.23C252.78,130.92,250.97,129,250.97,126.36z M255.63,123.92c-1.4,0-2.34,1.05-2.34,2.44
				c0,1.4,0.94,2.49,2.34,2.49c1.39,0,2.38-1.09,2.38-2.49C258.01,124.97,257.02,123.92,255.63,123.92z"/>
			<path class="st1" d="M262.48,119.23c0-0.79,0.54-1.34,1.33-1.34s1.34,0.54,1.34,1.34c0,0.79-0.55,1.33-1.34,1.33
				S262.48,120.02,262.48,119.23z M262.65,130.74v-8.72h2.33v8.72H262.65z"/>
			<path class="st1" d="M269.61,130.74h-2.32v-12.78h2.32V130.74z"/>
		</g>
		<g>
			<rect x="63.66" y="86.81" class="st4" width="15.07" height="2.52"/>
		</g>
	</g>
</g>
</svg>
