<?xml version="1.0" encoding="utf-8"?>
<!-- Generator: Adobe Illustrator 16.0.0, SVG Export Plug-In . SVG Version: 6.00 Build 0)  -->
<!DOCTYPE svg PUBLIC "-//W3C//DTD SVG 1.1//EN" "http://www.w3.org/Graphics/SVG/1.1/DTD/svg11.dtd">
<svg version="1.1" id="Calque_1" xmlns="http://www.w3.org/2000/svg" xmlns:xlink="http://www.w3.org/1999/xlink" x="0px" y="0px"
	 width="170.272px" height="80.76px" viewBox="0 0 170.272 80.76" enable-background="new 0 0 170.272 80.76" xml:space="preserve">
<g>
	<path fill="#C3CCDA" d="M83.787,54c2.236-5.904,3.313-11.34,3.313-11.34s1.021,5.465,3.395,11.328
		c2.117,5.268,4.882,10.235,4.882,10.235h10.37c0,0-3.541-4.973-5.958-10.181c-2.591-5.576-3.675-9.609-4.229-12.283
		c-0.828-3.962-1.024-7.201-1.045-9.648c-0.036-4.031,0.642-7.587,1.008-9.684c0.325-1.86,1.896-7.497,4.145-12.273
		C102.13,4.9,105.422,0,105.422,0H95.199c0,0-3.459,6.9-4.751,10.08c-2.086,5.071-3.42,11.844-3.42,11.844
		s-1.053-5.562-3.493-11.808c-1.461-3.773-4.859-10.103-4.859-10.103H68.379c0,0,3.576,4.792,5.967,10.143
		c1.449,3.244,3.492,8.48,4.185,12.271c0.373,2.043,1.17,5.82,1.082,9.648c-0.049,2.29-0.064,5.652-0.974,9.673
		c-0.604,2.718-1.68,6.847-4.122,12.258c-2.371,5.264-5.937,10.182-5.937,10.182l10.322,0.021C78.902,64.21,81.879,59.056,83.787,54
		"/>
	<path fill="#C3CCDA" d="M71.223,55.943H60.675c0,0,6.684-11.097,7.74-14.184c1.733-5.07,2.317-12.487-0.072-19.332
		c-0.721-2.064-7.705-13.967-7.705-13.967H71.08c0,0,5.737,11.729,6.403,15.562c1.053,6.056,1.166,11.417-0.25,17.584
		C76.494,44.825,71.223,55.943,71.223,55.943"/>
	<path fill="#C3CCDA" d="M52.395,16.092c0,0,8.273,6.878,8.353,15.984c0.082,10.003-8.281,16.235-8.281,16.235h11.015
		c0,0,2.176-2.451,3.666-6.562c1.022-2.817,1.639-6.014,1.59-9.637c-0.035-2.831-0.554-6.372-1.756-9.625
		c-1.402-3.79-3.57-6.396-3.57-6.396H52.395z"/>
	<path fill="#C3CCDA" d="M102.832,55.938h10.549c0,0-6.688-11.097-7.74-14.184c-1.734-5.07-2.317-12.487,0.071-19.332
		c0.721-2.064,7.703-13.967,7.703-13.967h-10.439c0,0-5.736,11.729-6.402,15.562c-1.055,6.056-1.167,11.417,0.25,17.584
		C97.56,44.819,102.832,55.938,102.832,55.938"/>
	<path fill="#C3CCDA" d="M121.66,16.086c0,0-8.273,6.878-8.354,15.984c-0.084,10.003,8.28,16.235,8.28,16.235h-11.016
		c0,0-2.177-2.451-3.664-6.562c-1.021-2.817-1.639-6.014-1.593-9.637c0.037-2.831,0.558-6.372,1.76-9.625
		c1.399-3.79,3.569-6.396,3.569-6.396H121.66z"/>
</g>
<path fill="#1B3E76" d="M88.649,31.664c-0.269-2.235-1.512-3.43-2.194-4.019c-0.891-0.774-2.794-1.302-3.839-1.37
	c-1.104-0.068-5.387-0.091-5.574,0.047c-0.16,0.117-0.135,0.212-0.016,0.381c0.119,0.168,0.258-0.127,0.547,0.449
	c0.287,0.576,0.272,1.104,0.272,1.104l0.101,9.133c0,0,0.043,1.287-0.269,1.573c-0.313,0.288-0.608,0.376-0.606,0.548
	c0.004,0.273,0.385,0.244,0.385,0.244l5.65-0.076c0,0,1.658-0.223,2.694-0.882c0.983-0.622,1.838-1.364,2.223-2.202
	C89.035,34.391,88.794,32.85,88.649,31.664 M84.115,37.532c-1.465,0.648-3.043,0.54-3.51,0.288
	c-0.469-0.253-0.451-0.522-0.451-0.522l-0.107-9.036c0,0,0.486-0.233,1.529-0.233c1.045,0,2.197,0.161,3.06,0.827
	c0.342,0.266,1.805,1.263,1.854,3.87C86.545,35.764,85.41,36.956,84.115,37.532"/>
<path fill="#1B3E76" d="M51.248,40.981c-0.113-0.11-0.208-0.011-0.572,0.054c-0.533,0.098-1.768-0.616-2.174-0.803
	c-0.405-0.188-1.556-0.845-1.556-0.845s1.424-0.833,2.367-2.328c0.67-1.064,0.974-2.619,0.992-3.889
	c0.047-3.232-1.78-5.474-3.594-6.395c-1.75-0.888-5.125-0.951-7.008,0.197c-1.569,0.946-3.296,2.779-3.294,6.026
	c0.002,4.265,2.767,6.258,4.225,6.744c2.14,0.72,3.821,0.4,3.821,0.4s2.704,1.565,3.157,1.749c0.461,0.187,1.225,0.686,1.741,0.661
	c0.742-0.032,1.827-1.208,1.827-1.208S51.364,41.098,51.248,40.981 M43.685,38.372c-1.737,0.073-3.229-0.672-4.113-2.015
	c-1.219-1.845-1.188-5.225,0.466-7.006c0.794-0.858,1.316-1.259,3.109-1.432c3.15,0,4.491,1.986,4.809,4.281
	C48.37,35.207,46.887,38.236,43.685,38.372"/>
<path fill="#1B3E76" d="M23.719,39.915h3.456c0,0,0.214-0.002,0.18-0.241c-0.032-0.225-0.457,0.014-0.756-0.684
	c-0.189-0.447-0.229-0.985-0.229-0.985l-0.036-7.102l8.712,9.419c0,0,0.269,0.156,0.362,0.059c0.094-0.097,0.094-0.288,0.094-0.288
	l-0.035-11.795c0,0,0.026-0.723,0.217-1.08c0.183-0.344,0.577-0.302,0.599-0.518c0.02-0.2-0.108-0.191-0.108-0.191l-3.672-0.002
	c0,0-0.137,0.021-0.144,0.207c-0.012,0.264,0.443,0,0.684,0.371c0.203,0.31,0.349,0.839,0.349,0.839l0.094,7.634l-8.82-9.6
	c0,0-0.094-0.097-0.263-0.072c-0.097,0.014-0.166,0.217-0.166,0.217l0.106,12.168c0,0-0.005,0.569-0.289,0.936
	c-0.236,0.307-0.467,0.319-0.454,0.538C23.605,39.895,23.719,39.915,23.719,39.915"/>
<path fill="#1B3E76" d="M50.406,26.495l3.672-0.011c0,0,0.151-0.031,0.157,0.119c0.01,0.223-0.252,0.254-0.515,0.518
	c-0.263,0.263-0.312,1.379-0.312,1.379l0.071,6.986c0,0-0.035,0.851,0.388,1.551c0.533,0.878,1.313,1.303,2.564,1.294
	c1.757-0.018,2.318-0.981,2.509-1.288c0.235-0.394,0.328-0.895,0.383-1.64c0.097-1.316-0.072-7.477-0.072-7.477
	s-0.099-0.824-0.397-0.949c-0.38-0.167-0.488-0.327-0.418-0.471c0.09-0.183,0.25-0.129,0.25-0.129l3.531,0.011
	c0,0,0.186,0.058,0.129,0.242c-0.068,0.247-0.371,0.15-0.565,0.56c-0.193,0.41-0.25,1.094-0.25,1.094l-0.013,7.25
	c0,0,0.099,1.393-0.731,2.614c-0.983,1.454-2.668,2.027-4.151,2.023c-1.424,0-2.769-0.129-4.32-1.649
	c-1.035-1.022-1.044-2.532-1.044-2.532l-0.133-7.465c0,0-0.045-0.824-0.271-1.267c-0.174-0.336-0.59-0.324-0.628-0.57
	C50.21,26.498,50.406,26.495,50.406,26.495"/>
<path fill="#1B3E76" d="M63.002,26.383c0,0-0.291,0.095-0.1,0.288c0.192,0.193,0.538,0.174,0.657,0.678
	c0.119,0.504,0.173,0.922,0.173,0.922l0.034,9.602c0,0-0.039,0.851-0.246,1.213c-0.192,0.333-0.614,0.227-0.575,0.47
	c0.041,0.232,0.33,0.257,0.33,0.257l7.678-0.045c0,0,0.028-0.043,0.17-1.035c0.133-0.912,0.291-1.745-0.017-1.705
	c-0.381,0.049-0.163,0.336-0.672,0.647c-0.539,0.333-0.996,0.284-0.996,0.284l-2.625,0.052c0,0-0.401-0.01-0.627-0.21
	c-0.153-0.129-0.145-0.676-0.145-0.676l-0.019-3.498c0,0,2.089-0.038,2.798,0.016c0.698,0.053,0.981,0.155,1.221,0.382
	c0.18,0.17,0.268,0.514,0.459,0.503c0.131-0.012,0.188-0.302,0.188-0.302l-0.022-3.182c0,0-0.029-0.259-0.223-0.188
	c-0.193,0.072-0.349,0.398-0.517,0.591c-0.219,0.253-0.719,0.333-0.719,0.333l-3.205,0.062c0,0-0.062-2.69-0.045-3.522
	c0.002-0.154,0.252-0.202,0.252-0.202l2.857,0.005c0,0,0.831-0.02,1.034,0.162c0.277,0.248,0.4,0.709,0.722,0.713
	c0.211,0.003,0.2-0.332,0.2-0.332l-0.024-1.969c0,0,0.018-0.246-0.115-0.313c-0.135-0.069-0.594-0.052-0.594-0.052L63.002,26.383z"
	/>
<path fill="#1B3E76" d="M106.207,32.568l0.012,4.945c0,0,0.021,0.683,0.275,1.188c0.302,0.601,0.649,0.441,0.746,0.636
	c0.096,0.192,0,0.31-0.218,0.359c-0.216,0.049-3.959,0.014-3.959,0.014s-0.319-0.01-0.277-0.277c0.041-0.247,0.37-0.139,0.684-0.612
	c0.373-0.551,0.349-1.344,0.349-1.344l-0.047-11.076c0,0,0.015-0.83-0.336-1.319c-0.391-0.536-0.667-0.283-0.695-0.639
	c-0.021-0.238,0.396-0.236,0.396-0.236l8.146,0.021c0,0,0.459-0.031,0.528,0.074c0.084,0.124,0.072,0.408,0.072,0.408l0.003,2.207
	c0,0,0.021,0.263-0.241,0.229c-0.326-0.045-0.292-0.632-0.863-0.839c-0.466-0.169-1.335-0.158-1.335-0.158l-3.262-0.011v4.426
	l3.188,0.027c0,0,0.695-0.122,1.129-0.279c0.525-0.191,0.556-0.733,0.729-0.767c0.324-0.073,0.313,0.205,0.313,0.205l-0.01,3.516
	c0,0-0.008,0.385-0.239,0.335c-0.215-0.047-0.294-0.226-0.538-0.6c-0.216-0.336-0.951-0.408-0.951-0.408L106.207,32.568z"/>
<path fill="#1B3E76" d="M112.939,27.007c-0.227-0.405-0.659-0.414-0.649-0.666c0.008-0.201,0.299-0.217,0.299-0.217l5.785,0.025
	c0,0,2.087,0.225,2.904,1.512c0.366,0.57,0.749,1.22,0.72,2.568c-0.021,0.955-0.53,1.977-1.262,2.604
	c-0.525,0.452-1.512,0.792-1.512,0.792s0.003,0.128,0.062,0.216c0.579,0.839,3.463,4.962,3.463,4.962l1.053,0.856
	c0,0-2.218,0.143-2.756-0.006c-0.591-0.165-1.107-0.988-1.107-0.988l-3.471-5.245c0,0-0.566-0.718-0.391-1.026
	c0.112-0.193,1.066,0.13,2.074-0.205c1.008-0.337,1.505-1.074,1.525-2.009c0.026-0.948-0.517-1.959-1.429-2.188
	c-0.988-0.248-2.525-0.223-2.739-0.049c-0.16,0.132-0.107,0.368-0.107,0.368l0.097,9.583c0,0,0.042,0.669,0.378,1.053
	c0.334,0.385,0.463,0.261,0.461,0.488c-0.003,0.2-0.268,0.205-0.268,0.205l-3.458,0.002c0,0-0.218-0.032-0.188-0.256
	c0.026-0.174,0.438-0.179,0.633-0.609c0.192-0.433,0.175-0.901,0.175-0.901l-0.07-9.749
	C113.161,28.127,113.186,27.447,112.939,27.007"/>
<path fill="#1B3E76" d="M160.555,39.314c0,0-1.523,0.704-3.781,0.67c-1.821-0.028-4.401-0.492-6.071-3.601
	c-1.088-2.031-0.925-4.934-0.337-6.36c0.6-1.451,1.536-3.085,4.02-4.007c1.737-0.646,4.467-0.105,4.684-0.034
	c0.215,0.072,0.691,0.212,0.959,0.2c0.254-0.011,0.254-0.216,0.55-0.166c0.192,0.031,0.183,0.252,0.183,0.252l0.01,2.088
	c0,0-0.026,0.29-0.264,0.288c-0.347-0.002-0.554-0.567-1.634-0.831c-1.077-0.263-2.782-0.555-4.295,0.327
	c-1.246,0.727-2.378,2.403-2.331,4.73c0.033,1.562,0.401,3.236,1.939,4.402c1.205,0.911,2.535,0.999,3.838,0.771
	c1.371-0.247,2.187-0.893,2.187-0.893s0.155-0.288,0.431-0.274c0.187,0.012,0.203,0.494,0.203,0.494L160.555,39.314z"/>
<path fill="#1B3E76" d="M88.946,26.264c0,0-0.289,0.095-0.099,0.288c0.192,0.193,0.537,0.174,0.658,0.678
	c0.118,0.503,0.171,0.922,0.171,0.922l0.035,9.601c0,0-0.041,0.852-0.247,1.214c-0.191,0.333-0.613,0.227-0.575,0.47
	c0.041,0.232,0.332,0.257,0.332,0.257l7.677-0.045c0,0,0.026-0.043,0.171-1.034c0.134-0.914,0.291-1.747-0.019-1.706
	c-0.38,0.049-0.162,0.335-0.673,0.647c-0.537,0.333-0.994,0.283-0.994,0.283l-2.626,0.052c0,0-0.4-0.009-0.627-0.21
	c-0.151-0.128-0.145-0.675-0.145-0.675l-0.021-3.498c0,0,2.09-0.039,2.799,0.016c0.699,0.053,0.982,0.155,1.222,0.384
	c0.181,0.168,0.27,0.512,0.459,0.501c0.132-0.012,0.188-0.302,0.188-0.302l-0.021-3.182c0,0-0.029-0.259-0.223-0.187
	c-0.193,0.071-0.351,0.397-0.517,0.59c-0.221,0.253-0.72,0.333-0.72,0.333l-3.204,0.062c0,0-0.064-2.689-0.046-3.521
	c0.003-0.154,0.253-0.201,0.253-0.201l2.855,0.004c0,0,0.831-0.021,1.033,0.162c0.278,0.248,0.4,0.709,0.723,0.713
	c0.21,0.003,0.2-0.333,0.2-0.333l-0.023-1.968c0,0,0.017-0.246-0.116-0.313c-0.134-0.069-0.593-0.052-0.593-0.052L88.946,26.264z"/>
<path fill="#1B3E76" d="M137.074,39.436h3.457c0,0,0.213-0.002,0.18-0.24c-0.033-0.226-0.458,0.013-0.757-0.685
	c-0.189-0.447-0.23-0.985-0.23-0.985l-0.035-7.102l8.713,9.419c0,0,0.269,0.156,0.36,0.059c0.095-0.097,0.095-0.288,0.095-0.288
	l-0.035-11.795c0,0,0.026-0.722,0.219-1.08c0.182-0.344,0.575-0.302,0.597-0.518c0.021-0.2-0.105-0.19-0.105-0.19l-3.675-0.003
	c0,0-0.137,0.021-0.142,0.207c-0.012,0.264,0.442,0,0.683,0.371c0.201,0.31,0.35,0.84,0.35,0.84l0.094,7.633l-8.821-9.6
	c0,0-0.092-0.097-0.262-0.072c-0.097,0.014-0.167,0.217-0.167,0.217l0.107,12.167c0,0-0.005,0.57-0.288,0.937
	c-0.236,0.308-0.471,0.32-0.454,0.538C136.96,39.416,137.074,39.436,137.074,39.436"/>
<path fill="#1B3E76" d="M161.918,25.976c0,0-0.291,0.095-0.101,0.288c0.192,0.193,0.539,0.281,0.657,0.785
	c0.121,0.504,0.173,0.923,0.173,0.923l0.034,9.601c0,0-0.039,0.852-0.246,1.214c-0.191,0.333-0.611,0.227-0.575,0.47
	c0.041,0.231,0.332,0.256,0.332,0.256l7.748-0.044c0,0,0.028-0.043,0.17-1.035c0.134-0.914,0.291-1.747-0.017-1.706
	c-0.379,0.049-0.162,0.335-0.672,0.647c-0.539,0.333-1.066,0.284-1.066,0.284l-2.627,0.051c0,0-0.4-0.008-0.627-0.209
	c-0.15-0.128-0.145-0.674-0.145-0.674l-0.02-3.499c0,0,2.089-0.038,2.798,0.016c0.7,0.052,0.983,0.154,1.222,0.382
	c0.182,0.169,0.342,0.514,0.533,0.502c0.129-0.011,0.186-0.302,0.186-0.302l-0.021-3.181c0,0-0.028-0.26-0.224-0.188
	c-0.191,0.072-0.422,0.398-0.588,0.59c-0.221,0.254-0.721,0.333-0.721,0.333l-3.203,0.062c0,0-0.063-2.798-0.047-3.63
	c0.004-0.154,0.254-0.201,0.254-0.201l2.856,0.004c0,0,0.83-0.021,1.032,0.162c0.277,0.247,0.475,0.709,0.795,0.714
	c0.212,0.002,0.201-0.334,0.201-0.334l-0.026-1.968c0,0,0.021-0.246-0.112-0.313c-0.138-0.069-0.666-0.052-0.666-0.052
	L161.918,25.976z"/>
<path fill="#1B3E76" d="M10.027,32.852c-0.63-0.704-1.789-1.276-1.789-1.276S9.23,31.099,9.8,30.082
	c0.295-0.531,0.367-1.235,0.293-2.173c-0.162-2.073-2.215-3.054-3.522-3.138c-1.104-0.064-6.383-0.072-6.383-0.072
	s-0.171-0.009-0.171,0.255c0,0.128,0.457,0.304,0.686,0.62c0.385,0.527,0.319,1.396,0.319,1.396l0.005,10.58
	c0,0,0.016,0.608-0.162,1.17c-0.231,0.75-0.607,0.595-0.801,0.86c-0.193,0.265,0.111,0.38,0.111,0.38l6,0.048
	c0,0,1.913,0.065,3.362-1.114c0.641-0.518,1.422-1.378,1.446-3.188C10.995,34.553,10.604,33.495,10.027,32.852 M3.462,26.605
	c0,0,2.738-0.451,3.649,0.576c0.988,1.111,0.605,2.711-0.481,3.28c-1.263,0.662-3.168,0.414-3.168,0.414V26.605z M7.917,37.305
	c-1.105,1.183-3.641,0.907-4.07,0.688c-0.345-0.174-0.39-0.532-0.39-0.532v-4.464c0,0-0.009-0.142,0.614-0.167
	c0.578-0.024,1.537-0.008,2.023,0.084c1.325,0.265,1.85,0.755,2.241,1.64C8.605,35.16,8.569,36.607,7.917,37.305"/>
<path fill="#1B3E76" d="M23.332,39.561c-0.075-0.134-0.385,0.091-1.015-1.18c-0.245-0.498-5.406-12.079-5.406-12.079
	s-0.19-0.259-0.367-0.271c-0.146-0.01-0.252,0.216-0.252,0.216l-5.529,12.778c0,0-0.2,0.396-0.454,0.475
	c-0.342,0.105-0.477,0.385-0.164,0.456c0.313,0.072,3.231-0.028,3.231-0.028s0.167,0.066,0.119-0.217
	c-0.056-0.346-0.405-0.106-0.376-0.756c0.018-0.43,1.044-2.61,1.044-2.61l4.905-0.014c0,0,0.986,1.882,0.968,2.665
	c-0.011,0.56-0.428,0.47-0.439,0.737c-0.011,0.25,0.275,0.219,0.275,0.219l3.336-0.015C23.208,39.937,23.53,39.877,23.332,39.561
	 M14.818,34.582l1.841-4.54l1.77,4.554L14.818,34.582z"/>
<path fill="#1B3E76" d="M136.749,39.122c-0.075-0.134-0.384,0.091-1.014-1.18c-0.246-0.498-5.407-12.079-5.407-12.079
	s-0.189-0.259-0.367-0.271c-0.146-0.01-0.253,0.216-0.253,0.216l-5.527,12.778c0,0-0.199,0.396-0.455,0.475
	c-0.343,0.105-0.477,0.385-0.164,0.456c0.312,0.072,3.232-0.028,3.232-0.028s0.166,0.066,0.118-0.217
	c-0.056-0.346-0.406-0.106-0.376-0.756c0.017-0.43,1.045-2.61,1.045-2.61l4.905-0.014c0,0,0.983,1.881,0.967,2.665
	c-0.012,0.561-0.427,0.47-0.439,0.737c-0.011,0.25,0.274,0.219,0.274,0.219l3.337-0.015
	C136.625,39.498,136.946,39.438,136.749,39.122 M128.235,34.144l1.84-4.54l1.77,4.555L128.235,34.144z"/>
<path fill="#1B3E76" d="M41.641,71.638c0,0-0.189,0.063-0.063,0.188c0.123,0.126,0.349,0.183,0.424,0.511
	c0.079,0.328,0.115,0.6,0.115,0.6l0.02,6.234c0,0-0.024,0.553-0.159,0.787c-0.125,0.219-0.4,0.15-0.375,0.307
	c0.027,0.152,0.217,0.168,0.217,0.168l5.035-0.026c0,0,0.017-0.028,0.109-0.675c0.088-0.594,0.19-1.135-0.01-1.109
	c-0.247,0.032-0.107,0.219-0.437,0.422c-0.351,0.213-0.695,0.184-0.695,0.184l-1.705,0.035c0,0-0.26-0.008-0.409-0.137
	c-0.097-0.086-0.092-0.438-0.092-0.438l-0.013-2.273c0,0,1.359-0.027,1.818,0.008c0.452,0.035,0.638,0.102,0.793,0.25
	c0.117,0.111,0.221,0.334,0.345,0.324c0.086-0.005,0.122-0.193,0.122-0.193l-0.014-2.068c0,0-0.019-0.168-0.144-0.12
	c-0.125,0.044-0.275,0.259-0.381,0.384c-0.145,0.164-0.469,0.215-0.469,0.215l-2.082,0.041c0,0-0.041-1.818-0.03-2.359
	c0.003-0.098,0.165-0.131,0.165-0.131l1.857,0.006c0,0,0.538-0.016,0.668,0.102c0.182,0.162,0.308,0.461,0.518,0.467
	c0.139,0,0.131-0.217,0.131-0.217l-0.018-1.281c0,0,0.012-0.158-0.075-0.203c-0.087-0.045-0.431-0.031-0.431-0.031L41.641,71.638z"
	/>
<path fill="#1B3E76" d="M48.488,71.681l2.387-0.004c0,0,0.099-0.022,0.103,0.074c0.004,0.146-0.165,0.164-0.336,0.34
	c-0.172,0.166-0.202,0.893-0.202,0.893l0.045,4.539c0,0-0.022,0.555,0.252,1.009c0.347,0.571,0.855,0.847,1.665,0.843
	c1.143-0.016,1.506-0.639,1.633-0.838c0.15-0.257,0.211-0.584,0.248-1.068c0.062-0.853-0.048-4.853-0.048-4.853
	s-0.065-0.538-0.258-0.62c-0.247-0.107-0.317-0.21-0.27-0.307c0.058-0.116,0.162-0.082,0.162-0.082l2.293,0.007
	c0,0,0.121,0.038,0.086,0.157c-0.048,0.16-0.242,0.099-0.369,0.365c-0.125,0.266-0.162,0.707-0.162,0.707l-0.006,4.711
	c0,0,0.062,0.906-0.479,1.699c-0.639,0.946-1.732,1.316-2.696,1.314c-0.924,0-1.799-0.084-2.806-1.072
	c-0.672-0.662-0.679-1.643-0.679-1.643l-0.084-4.852c0,0-0.03-0.533-0.177-0.82c-0.113-0.221-0.384-0.213-0.407-0.371
	C48.36,71.687,48.488,71.681,48.488,71.681"/>
<path fill="#1B3E76" d="M58.249,72.191c-0.146-0.262-0.428-0.268-0.421-0.434c0.006-0.129,0.194-0.139,0.194-0.139l3.758,0.018
	c0,0,1.355,0.145,1.886,0.982c0.239,0.369,0.487,0.789,0.467,1.668c-0.011,0.621-0.343,1.285-0.818,1.689
	c-0.342,0.295-0.983,0.518-0.983,0.518s0.004,0.082,0.042,0.139c0.376,0.547,2.25,3.225,2.25,3.225l0.683,0.555
	c0,0-1.441,0.096-1.789-0.004c-0.385-0.107-0.721-0.639-0.721-0.639l-2.254-3.408c0,0-0.369-0.469-0.253-0.668
	c0.072-0.125,0.691,0.084,1.345-0.133c0.656-0.219,0.979-0.697,0.992-1.306c0.016-0.616-0.336-1.272-0.929-1.42
	c-0.641-0.161-1.638-0.149-1.778-0.034c-0.105,0.084-0.069,0.238-0.069,0.238l0.062,6.227c0,0,0.027,0.434,0.244,0.684
	c0.218,0.252,0.3,0.172,0.3,0.316c0,0.129-0.173,0.135-0.173,0.135l-2.246,0.002c0,0-0.143-0.021-0.123-0.166
	c0.018-0.113,0.285-0.115,0.41-0.396c0.126-0.283,0.113-0.585,0.113-0.585l-0.043-6.334C58.395,72.921,58.408,72.479,58.249,72.191"
	/>
<path fill="#1B3E76" d="M106.548,71.664c0,0-0.188,0.063-0.063,0.188c0.125,0.126,0.35,0.11,0.425,0.44
	c0.079,0.326,0.116,0.601,0.116,0.601l0.019,6.235c0,0-0.025,0.552-0.159,0.785c-0.124,0.221-0.4,0.15-0.374,0.308
	c0.028,0.151,0.217,0.168,0.217,0.168l4.987-0.028c0,0,0.017-0.027,0.11-0.676c0.085-0.592,0.189-1.133-0.014-1.107
	c-0.243,0.033-0.103,0.217-0.435,0.422c-0.351,0.215-0.646,0.185-0.646,0.185l-1.708,0.032c0,0-0.258-0.006-0.406-0.135
	c-0.098-0.084-0.094-0.438-0.094-0.438l-0.013-2.274c0,0,1.357-0.025,1.82,0.01c0.45,0.035,0.635,0.102,0.793,0.25
	c0.115,0.109,0.174,0.334,0.296,0.326c0.087-0.008,0.124-0.197,0.124-0.197l-0.015-2.066c0,0-0.018-0.168-0.144-0.119
	c-0.125,0.045-0.229,0.258-0.338,0.383c-0.142,0.164-0.466,0.215-0.466,0.215l-2.082,0.043c0,0-0.043-1.75-0.03-2.291
	c0.004-0.098,0.166-0.131,0.166-0.131l1.853,0.002c0,0,0.541-0.012,0.672,0.105c0.181,0.162,0.26,0.459,0.472,0.467
	c0.137,0,0.129-0.217,0.129-0.217l-0.018-1.279c0,0,0.014-0.16-0.074-0.205c-0.087-0.045-0.384-0.031-0.384-0.031L106.548,71.664z"
	/>
<path fill="#1B3E76" d="M125.194,71.672c0,0-0.188,0.06-0.063,0.188c0.122,0.123,0.349,0.11,0.425,0.438
	c0.077,0.328,0.114,0.601,0.114,0.601l0.021,6.235c0,0-0.025,0.554-0.159,0.787c-0.128,0.217-0.4,0.146-0.374,0.305
	c0.028,0.152,0.216,0.166,0.216,0.166l4.988-0.027c0,0,0.016-0.027,0.11-0.672c0.085-0.594,0.189-1.135-0.014-1.107
	c-0.246,0.029-0.104,0.217-0.435,0.418c-0.351,0.217-0.649,0.188-0.649,0.188l-1.704,0.028c0,0-0.259-0.004-0.408-0.135
	c-0.097-0.082-0.092-0.435-0.092-0.435l-0.014-2.274c0,0,1.355-0.027,1.819,0.008c0.451,0.033,0.636,0.102,0.794,0.25
	c0.116,0.107,0.174,0.332,0.296,0.328c0.087-0.01,0.124-0.197,0.124-0.197l-0.016-2.066c0,0-0.021-0.17-0.143-0.123
	c-0.125,0.047-0.229,0.26-0.338,0.385c-0.145,0.164-0.471,0.213-0.471,0.213l-2.077,0.043c0,0-0.043-1.75-0.03-2.289
	c0-0.1,0.163-0.131,0.163-0.131l1.854,0.004c0,0,0.541-0.016,0.673,0.105c0.181,0.159,0.26,0.461,0.469,0.463
	c0.139,0,0.132-0.217,0.132-0.217l-0.02-1.279c0,0,0.013-0.156-0.072-0.201c-0.089-0.047-0.388-0.035-0.388-0.035L125.194,71.672z"
	/>
<path fill="#1B3E76" d="M81.283,73.873c-0.027,0.004-0.055-0.006-0.076-0.024c-0.026-0.021-0.041-0.048-0.049-0.082
	c-0.094-0.502-0.297-0.901-0.609-1.192c-0.342-0.312-0.711-0.332-1.243-0.332c-0.515,0-0.914,0.108-1.195,0.328
	c-0.279,0.221-0.418,0.533-0.418,0.936c0,0.354,0.102,0.541,0.438,0.832c0.338,0.289,0.865,0.564,1.586,0.82
	c0.843,0.313,1.457,0.68,1.836,1.098c0.376,0.425,0.566,0.945,0.566,1.574c0,0.834-0.311,1.496-0.928,1.984
	c-0.615,0.491-1.451,0.732-2.504,0.732c-0.443,0-0.832-0.037-1.158-0.116c-0.269-0.071-0.562-0.181-0.871-0.327
	c-0.055-0.025-0.098-0.061-0.125-0.102c-0.027-0.041-0.045-0.094-0.055-0.155l-0.021-1.274c-0.004-0.029,0.017-0.117,0.037-0.178
	c0.014-0.048,0.076-0.137,0.105-0.141l0.11-0.082c0.029-0.006,0.056,0.002,0.086,0.02c0.027,0.014,0.047,0.039,0.06,0.073
	c0.17,0.479,0.35,0.795,0.703,1.099c0.377,0.328,0.787,0.496,1.229,0.496c0.619,0,1.096-0.131,1.432-0.386
	c0.335-0.259,0.584-0.543,0.584-1.024c0-0.318-0.141-0.607-0.422-0.861c-0.282-0.252-0.721-0.485-1.317-0.705
	c-0.967-0.355-1.668-0.762-2.105-1.221c-0.43-0.459-0.647-1.018-0.647-1.678c0-0.701,0.299-1.289,0.899-1.768
	c0.601-0.48,1.338-0.723,2.209-0.723c0.435,0,0.812,0.039,1.134,0.117c0.249,0.059,0.506,0.153,0.78,0.287
	c0.086,0.039,0.148,0.092,0.193,0.15c0.041,0.061,0.065,0.134,0.07,0.223l0.022,1.316c-0.02,0.078-0.02,0.141-0.072,0.189
	c-0.02,0.023-0.065,0.059-0.096,0.061L81.283,73.873z"/>
<path fill="#1B3E76" d="M73.662,72.668c-0.883-0.856-1.963-1.287-3.244-1.287c-1.275,0-2.356,0.477-3.236,1.435
	c-0.883,0.955-1.323,2.125-1.323,3.505c0,1.245,0.44,2.297,1.323,3.152c0.88,0.857,1.961,1.287,3.236,1.287
	c1.281,0,2.361-0.477,3.244-1.43c0.881-0.953,1.322-2.119,1.322-3.502C74.984,74.58,74.542,73.527,73.662,72.668 M70.582,79.461
	c-1.129,0.047-2.098-0.438-2.672-1.311c-0.791-1.199-0.769-3.393,0.303-4.548c0.515-0.558,0.853-0.819,2.021-0.933
	c2.045,0,2.916,1.293,3.121,2.783C73.625,77.406,72.66,79.373,70.582,79.461"/>
<path fill="#1B3E76" d="M87.778,75.555l0.064,3.803c0,0,0.026,0.432,0.243,0.684c0.22,0.248,0.301,0.168,0.297,0.316
	c0,0.132-0.171,0.134-0.171,0.134h-2.247c0,0-0.143-0.021-0.121-0.165c0.017-0.113,0.281-0.117,0.41-0.4
	c0.123-0.275,0.113-0.58,0.113-0.58l-0.045-3.914"/>
<path fill="#1B3E76" d="M91.381,71.623l-2.328-0.008c0,0-0.188-0.012-0.18,0.096c0.007,0.117,0.278,0.08,0.282,0.322
	c0.015,0.338-2.007,3.297-2.007,3.297s-2.257-3.147-2.268-3.336c-0.019-0.281,0.207-0.18,0.244-0.326
	c0.028-0.121-0.078-0.098-0.078-0.098s-1.952,0.014-2.155,0.045c-0.201,0.031-0.113,0.153,0.108,0.196
	c0.166,0.035,0.297,0.208,0.297,0.208l3.589,5.217c0,0,0.071,0.1,0.165,0.094c0.115-0.008,0.238-0.119,0.238-0.119
	s3.354-4.696,3.514-4.914c0.408-0.551,0.61-0.453,0.658-0.512C91.59,71.65,91.381,71.623,91.381,71.623"/>
<path fill="#1B3E76" d="M102.708,72.721l-0.013,6.607c0,0,0.028,0.438,0.247,0.686c0.218,0.25,0.302,0.168,0.299,0.316
	c0,0.131-0.173,0.133-0.173,0.133h-2.248c0,0-0.139-0.017-0.12-0.164c0.016-0.113,0.282-0.117,0.407-0.396
	c0.128-0.279,0.116-0.584,0.116-0.584l-0.045-6.66"/>
<path fill="#1B3E76" d="M101.49,72.757h2.305c0,0,0.538-0.014,0.671,0.104c0.178,0.162,0.259,0.459,0.469,0.464
	c0.137,0.002,0.13-0.216,0.13-0.216l-0.016-1.28c0,0,0.012-0.158-0.076-0.201c-0.087-0.045-0.383-0.035-0.383-0.035l-3.113,0.035"/>
<path fill="#1B3E76" d="M102.028,72.757l-2.005,0.008c0,0-0.54-0.014-0.672,0.104c-0.181,0.162-0.262,0.459-0.47,0.465
	c-0.134,0.002-0.129-0.217-0.129-0.217l0.014-1.279c0,0-0.01-0.16,0.076-0.205c0.09-0.043,0.387-0.033,0.387-0.033l2.785,0.033"/>
<path fill="#1B3E76" d="M96.88,73.88c-0.028,0.004-0.057-0.006-0.078-0.024c-0.025-0.021-0.041-0.048-0.047-0.08
	c-0.1-0.504-0.298-0.903-0.611-1.192c-0.341-0.316-0.709-0.334-1.242-0.334c-0.516,0-0.913,0.11-1.194,0.328
	c-0.279,0.223-0.418,0.535-0.418,0.936c0,0.354,0.102,0.541,0.438,0.834c0.334,0.289,0.866,0.562,1.587,0.822
	c0.842,0.309,1.455,0.676,1.834,1.096c0.378,0.423,0.567,0.943,0.567,1.572c0,0.834-0.311,1.496-0.927,1.984
	c-0.618,0.491-1.452,0.736-2.505,0.736c-0.444,0-0.832-0.041-1.16-0.12c-0.267-0.071-0.562-0.177-0.871-0.328
	c-0.055-0.024-0.097-0.06-0.122-0.101c-0.028-0.041-0.048-0.09-0.058-0.153l-0.02-1.276c-0.004-0.029,0.015-0.117,0.033-0.176
	c0.018-0.051,0.078-0.139,0.108-0.143l0.108-0.082c0.032-0.004,0.058,0.002,0.087,0.02c0.029,0.016,0.049,0.039,0.062,0.073
	c0.171,0.483,0.351,0.795,0.7,1.101c0.379,0.33,0.79,0.494,1.231,0.494c0.615,0,1.096-0.129,1.431-0.386
	c0.337-0.257,0.585-0.543,0.585-1.021c0-0.322-0.141-0.611-0.423-0.865c-0.283-0.252-0.72-0.485-1.316-0.705
	c-0.967-0.355-1.67-0.762-2.104-1.221c-0.43-0.459-0.65-1.016-0.65-1.678c0-0.697,0.302-1.285,0.901-1.768
	c0.599-0.48,1.338-0.723,2.209-0.723c0.432,0,0.812,0.039,1.135,0.117c0.248,0.062,0.505,0.157,0.78,0.287
	c0.084,0.041,0.147,0.092,0.191,0.152c0.042,0.059,0.066,0.135,0.07,0.221l0.022,1.32c-0.022,0.076-0.022,0.137-0.071,0.186
	c-0.021,0.023-0.067,0.059-0.096,0.061L96.88,73.88z"/>
<path fill="#1B3E76" d="M110.57,70.952c-0.022,0.035-0.042,0.055-0.063,0.06c-0.018,0.004-0.046-0.005-0.076-0.024l-2.019-1.043
	l-0.147-0.097c-0.167-0.122-0.282-0.267-0.339-0.429c-0.021-0.068-0.033-0.127-0.028-0.188c0-0.09,0.025-0.17,0.075-0.24
	c0.134-0.182,0.288-0.289,0.473-0.315c0.18-0.028,0.366,0.026,0.554,0.161l0.099,0.091l1.643,1.614
	c0.024,0.027,0.042,0.054,0.047,0.072c0,0.018-0.011,0.045-0.034,0.076L110.57,70.952z"/>
<path fill="#1B3E76" d="M121.756,71.757c0,0,0.449-0.375,0.74-0.215c0.394,0.217,0.295,0.521,0.295,0.521l-0.043,7.304
	c0,0,0.004,0.367,0.171,0.601c0.141,0.198,0.274,0.207,0.27,0.35c-0.004,0.096-0.071,0.107-0.071,0.107h-2.045
	c0,0-0.125,0-0.104-0.152c0.018-0.149,0.27,0.007,0.444-0.444c0.114-0.286,0.139-0.634,0.139-0.634l0.051-4.614l-2.526,5.018
	c0,0-0.131,0.307-0.512,0.304c-0.475-0.003-0.499-0.852-0.499-0.852"/>
<path fill="#1B3E76" d="M122.314,71.504l0.903,0.007c0,0,0.173,0.062,0.057,0.187c-0.109,0.124-0.317,0.11-0.387,0.436
	c-0.072,0.325-0.103,0.595-0.103,0.595l-0.003,0.492"/>
<path fill="#1B3E76" d="M115.71,71.903c-0.15-0.121-0.633-0.521-0.93-0.361c-0.391,0.217-0.295,0.52-0.295,0.52l0.044,7.305
	c0,0-0.003,0.366-0.173,0.601c-0.138,0.198-0.274,0.208-0.264,0.349c0.001,0.097,0.067,0.109,0.067,0.109h2.046
	c0,0,0.125,0,0.104-0.154c-0.02-0.148-0.271,0.008-0.447-0.443c-0.11-0.286-0.135-0.635-0.135-0.635l-0.022-4.574l2.499,5.031
	c0,0,0.096,0.281,0.477,0.242c0.438-0.008,0.591-1.05,0.591-1.05"/>
<path fill="#1B3E76" d="M114.96,71.494l-0.905,0.006c0,0-0.169,0.063-0.058,0.188c0.112,0.124,0.316,0.11,0.389,0.437
	c0.07,0.323,0.102,0.595,0.102,0.595l0.003,0.493"/>
</svg>
