<svg xmlns="http://www.w3.org/2000/svg" width="170.272" height="80.76"><g fill="#C3CCDA"><path d="M83.787 54c2.236-5.904 3.313-11.34 3.313-11.34s1.021 5.465 3.395 11.328c2.117 5.268 4.882 10.235 4.882 10.235h10.37s-3.541-4.973-5.958-10.181c-2.591-5.576-3.675-9.609-4.229-12.283a48.493 48.493 0 0 1-1.045-9.648c-.036-4.031.642-7.587 1.008-9.684.325-1.86 1.896-7.497 4.145-12.273C102.13 4.9 105.422 0 105.422 0H95.199s-3.459 6.9-4.751 10.08c-2.086 5.071-3.42 11.844-3.42 11.844s-1.053-5.562-3.493-11.808C82.074 6.343 78.676.013 78.676.013H68.379s3.576 4.792 5.967 10.143c1.449 3.244 3.492 8.48 4.185 12.271.373 2.043 1.17 5.82 1.082 9.648-.049 2.29-.064 5.652-.974 9.673-.604 2.718-1.68 6.847-4.122 12.258-2.371 5.264-5.937 10.182-5.937 10.182l10.322.021c0 .001 2.977-5.153 4.885-10.209"/><path d="M71.223 55.943H60.675s6.684-11.097 7.74-14.184c1.733-5.07 2.317-12.487-.072-19.332-.721-2.064-7.705-13.967-7.705-13.967H71.08s5.737 11.729 6.403 15.562c1.053 6.056 1.166 11.417-.25 17.584-.739 3.219-6.01 14.337-6.01 14.337"/><path d="M52.395 16.092s8.273 6.878 8.353 15.984c.082 10.003-8.281 16.235-8.281 16.235h11.015s2.176-2.451 3.666-6.562c1.022-2.817 1.639-6.014 1.59-9.637-.035-2.831-.554-6.372-1.756-9.625-1.402-3.79-3.57-6.396-3.57-6.396H52.395zm50.437 39.846h10.549s-6.688-11.097-7.74-14.184c-1.734-5.07-2.317-12.487.071-19.332.721-2.064 7.703-13.967 7.703-13.967h-10.439s-5.736 11.729-6.402 15.562c-1.055 6.056-1.167 11.417.25 17.584.736 3.218 6.008 14.337 6.008 14.337"/><path d="M121.66 16.086s-8.273 6.878-8.354 15.984c-.084 10.003 8.28 16.235 8.28 16.235H110.57s-2.177-2.451-3.664-6.562c-1.021-2.817-1.639-6.014-1.593-9.637.037-2.831.558-6.372 1.76-9.625 1.399-3.79 3.569-6.396 3.569-6.396h11.018z"/></g><path fill="#1B3E76" d="M88.649 31.664c-.269-2.235-1.512-3.43-2.194-4.019-.891-.774-2.794-1.302-3.839-1.37-1.104-.068-5.387-.091-5.574.047-.16.117-.135.212-.016.381.119.168.258-.127.547.449.287.576.272 1.104.272 1.104l.101 9.133s.043 1.287-.269 1.573c-.313.288-.608.376-.606.548.004.273.385.244.385.244l5.65-.076s1.658-.223 2.694-.882c.983-.622 1.838-1.364 2.223-2.202 1.012-2.203.771-3.744.626-4.93m-4.534 5.868c-1.465.648-3.043.54-3.51.288-.469-.253-.451-.522-.451-.522l-.107-9.036s.486-.233 1.529-.233c1.045 0 2.197.161 3.06.827.342.266 1.805 1.263 1.854 3.87.055 3.038-1.08 4.23-2.375 4.806m-32.867 3.449c-.113-.11-.208-.011-.572.054-.533.098-1.768-.616-2.174-.803-.405-.188-1.556-.845-1.556-.845s1.424-.833 2.367-2.328c.67-1.064.974-2.619.992-3.889.047-3.232-1.78-5.474-3.594-6.395-1.75-.888-5.125-.951-7.008.197-1.569.946-3.296 2.779-3.294 6.026.002 4.265 2.767 6.258 4.225 6.744 2.14.72 3.821.4 3.821.4s2.704 1.565 3.157 1.749c.461.187 1.225.686 1.741.661.742-.032 1.827-1.208 1.827-1.208s.184-.246.068-.363m-7.563-2.609c-1.737.073-3.229-.672-4.113-2.015-1.219-1.845-1.188-5.225.466-7.006.794-.858 1.316-1.259 3.109-1.432 3.15 0 4.491 1.986 4.809 4.281.414 3.007-1.069 6.036-4.271 6.172m-19.966 1.543h3.456s.214-.002.18-.241c-.032-.225-.457.014-.756-.684a3.616 3.616 0 0 1-.229-.985l-.036-7.102 8.712 9.419s.269.156.362.059c.094-.097.094-.288.094-.288l-.035-11.795s.026-.723.217-1.08c.183-.344.577-.302.599-.518.02-.2-.108-.191-.108-.191l-3.672-.002s-.137.021-.144.207c-.012.264.443 0 .684.371.203.31.349.839.349.839l.094 7.634-8.82-9.6s-.094-.097-.263-.072c-.097.014-.166.217-.166.217l.106 12.168s-.005.569-.289.936c-.236.307-.467.319-.454.538.005.15.119.17.119.17m26.687-13.42l3.672-.011s.151-.031.157.119c.01.223-.252.254-.515.518-.263.263-.312 1.379-.312 1.379l.071 6.986s-.035.851.388 1.551c.533.878 1.313 1.303 2.564 1.294 1.757-.018 2.318-.981 2.509-1.288.235-.394.328-.895.383-1.64.097-1.316-.072-7.477-.072-7.477s-.099-.824-.397-.949c-.38-.167-.488-.327-.418-.471.09-.183.25-.129.25-.129l3.531.011s.186.058.129.242c-.068.247-.371.15-.565.56-.193.41-.25 1.094-.25 1.094l-.013 7.25s.099 1.393-.731 2.614c-.983 1.454-2.668 2.027-4.151 2.023-1.424 0-2.769-.129-4.32-1.649-1.035-1.022-1.044-2.532-1.044-2.532l-.133-7.465s-.045-.824-.271-1.267c-.174-.336-.59-.324-.628-.57-.03-.19.166-.193.166-.193m12.596-.112s-.291.095-.1.288c.192.193.538.174.657.678s.173.922.173.922l.034 9.602s-.039.851-.246 1.213c-.192.333-.614.227-.575.47.041.232.33.257.33.257l7.678-.045s.028-.043.17-1.035c.133-.912.291-1.745-.017-1.705-.381.049-.163.336-.672.647-.539.333-.996.284-.996.284l-2.625.052s-.401-.01-.627-.21c-.153-.129-.145-.676-.145-.676l-.019-3.498s2.089-.038 2.798.016c.698.053.981.155 1.221.382.18.17.268.514.459.503.131-.012.188-.302.188-.302l-.022-3.182s-.029-.259-.223-.188c-.193.072-.349.398-.517.591-.219.253-.719.333-.719.333l-3.205.062s-.062-2.69-.045-3.522c.002-.154.252-.202.252-.202l2.857.005s.831-.02 1.034.162c.277.248.4.709.722.713.211.003.2-.332.2-.332l-.024-1.969s.018-.246-.115-.313c-.135-.069-.594-.052-.594-.052l-7.287.051zm43.205 6.185l.012 4.945s.021.683.275 1.188c.302.601.649.441.746.636.096.192 0 .31-.218.359-.216.049-3.959.014-3.959.014s-.319-.01-.277-.277c.041-.247.37-.139.684-.612.373-.551.349-1.344.349-1.344l-.047-11.076s.015-.83-.336-1.319c-.391-.536-.667-.283-.695-.639-.021-.238.396-.236.396-.236l8.146.021s.459-.031.528.074c.084.124.072.408.072.408l.003 2.207s.021.263-.241.229c-.326-.045-.292-.632-.863-.839-.466-.169-1.335-.158-1.335-.158l-3.262-.011v4.426l3.188.027s.695-.122 1.129-.279c.525-.191.556-.733.729-.767.324-.073.313.205.313.205l-.01 3.516s-.008.385-.239.335c-.215-.047-.294-.226-.538-.6-.216-.336-.951-.408-.951-.408l-3.599-.025zm6.732-5.561c-.227-.405-.659-.414-.649-.666.008-.201.299-.217.299-.217l5.785.025s2.087.225 2.904 1.512c.366.57.749 1.22.72 2.568-.021.955-.53 1.977-1.262 2.604-.525.452-1.512.792-1.512.792s.003.128.062.216c.579.839 3.463 4.962 3.463 4.962l1.053.856s-2.218.143-2.756-.006c-.591-.165-1.107-.988-1.107-.988l-3.471-5.245s-.566-.718-.391-1.026c.112-.193 1.066.13 2.074-.205 1.008-.337 1.505-1.074 1.525-2.009.026-.948-.517-1.959-1.429-2.188-.988-.248-2.525-.223-2.739-.049-.16.132-.107.368-.107.368l.097 9.583s.042.669.378 1.053c.334.385.463.261.461.488-.003.2-.268.205-.268.205l-3.458.002s-.218-.032-.188-.256c.026-.174.438-.179.633-.609.192-.433.175-.901.175-.901l-.07-9.749s.025-.68-.222-1.12m47.616 12.307s-1.523.704-3.781.67c-1.821-.028-4.401-.492-6.071-3.601-1.088-2.031-.925-4.934-.337-6.36.6-1.451 1.536-3.085 4.02-4.007 1.737-.646 4.467-.105 4.684-.034.215.072.691.212.959.2.254-.011.254-.216.55-.166.192.031.183.252.183.252l.01 2.088s-.026.29-.264.288c-.347-.002-.554-.567-1.634-.831-1.077-.263-2.782-.555-4.295.327-1.246.727-2.378 2.403-2.331 4.73.033 1.562.401 3.236 1.939 4.402 1.205.911 2.535.999 3.838.771 1.371-.247 2.187-.893 2.187-.893s.155-.288.431-.274c.187.012.203.494.203.494l-.291 1.944z"/><path fill="#1B3E76" d="M88.946 26.264s-.289.095-.099.288c.192.193.537.174.658.678.118.503.171.922.171.922l.035 9.601s-.041.852-.247 1.214c-.191.333-.613.227-.575.47.041.232.332.257.332.257l7.677-.045s.026-.043.171-1.034c.134-.914.291-1.747-.019-1.706-.38.049-.162.335-.673.647-.537.333-.994.283-.994.283l-2.626.052s-.4-.009-.627-.21c-.151-.128-.145-.675-.145-.675l-.021-3.498s2.09-.039 2.799.016c.699.053.982.155 1.222.384.181.168.27.512.459.501.132-.012.188-.302.188-.302l-.021-3.182s-.029-.259-.223-.187c-.193.071-.351.397-.517.59-.221.253-.72.333-.72.333l-3.204.062s-.064-2.689-.046-3.521c.003-.154.253-.201.253-.201l2.855.004s.831-.021 1.033.162c.278.248.4.709.723.713.21.003.2-.333.2-.333l-.023-1.968s.017-.246-.116-.313c-.134-.069-.593-.052-.593-.052l-7.287.05zm48.128 13.172h3.457s.213-.002.18-.24c-.033-.226-.458.013-.757-.685a3.638 3.638 0 0 1-.23-.985l-.035-7.102 8.713 9.419s.269.156.36.059c.095-.097.095-.288.095-.288l-.035-11.795s.026-.722.219-1.08c.182-.344.575-.302.597-.518.021-.2-.105-.19-.105-.19l-3.675-.003s-.137.021-.142.207c-.012.264.442 0 .683.371.201.31.35.84.35.84l.094 7.633-8.821-9.6s-.092-.097-.262-.072c-.097.014-.167.217-.167.217l.107 12.167s-.005.57-.288.937c-.236.308-.471.32-.454.538.002.15.116.17.116.17m24.844-13.46s-.291.095-.101.288c.192.193.539.281.657.785.121.504.173.923.173.923l.034 9.601s-.039.852-.246 1.214c-.191.333-.611.227-.575.47.041.231.332.256.332.256l7.748-.044s.028-.043.17-1.035c.134-.914.291-1.747-.017-1.706-.379.049-.162.335-.672.647-.539.333-1.066.284-1.066.284l-2.627.051s-.4-.008-.627-.209c-.15-.128-.145-.674-.145-.674l-.02-3.499s2.089-.038 2.798.016c.7.052.983.154 1.222.382.182.169.342.514.533.502.129-.011.186-.302.186-.302l-.021-3.181s-.028-.26-.224-.188c-.191.072-.422.398-.588.59-.221.254-.721.333-.721.333l-3.203.062s-.063-2.798-.047-3.63c.004-.154.254-.201.254-.201l2.856.004s.83-.021 1.032.162c.277.247.475.709.795.714.212.002.201-.334.201-.334l-.026-1.968s.021-.246-.112-.313c-.138-.069-.666-.052-.666-.052l-7.287.052zM10.027 32.852c-.63-.704-1.789-1.276-1.789-1.276s.992-.477 1.562-1.494c.295-.531.367-1.235.293-2.173-.162-2.073-2.215-3.054-3.522-3.138-1.104-.064-6.383-.072-6.383-.072s-.171-.009-.171.255c0 .128.457.304.686.62.385.527.319 1.396.319 1.396l.005 10.58s.016.608-.162 1.17c-.231.75-.607.595-.801.86-.193.265.111.38.111.38l6 .048s1.913.065 3.362-1.114c.641-.518 1.422-1.378 1.446-3.188.012-1.153-.379-2.211-.956-2.854m-6.565-6.247s2.738-.451 3.649.576c.988 1.111.605 2.711-.481 3.28-1.263.662-3.168.414-3.168.414v-4.27zm4.455 10.7c-1.105 1.183-3.641.907-4.07.688-.345-.174-.39-.532-.39-.532v-4.464s-.009-.142.614-.167c.578-.024 1.537-.008 2.023.084 1.325.265 1.85.755 2.241 1.64.27.606.234 2.053-.418 2.751m15.415 2.256c-.075-.134-.385.091-1.015-1.18-.245-.498-5.406-12.079-5.406-12.079s-.19-.259-.367-.271c-.146-.01-.252.216-.252.216l-5.529 12.778s-.2.396-.454.475c-.342.105-.477.385-.164.456.313.072 3.231-.028 3.231-.028s.167.066.119-.217c-.056-.346-.405-.106-.376-.756.018-.43 1.044-2.61 1.044-2.61l4.905-.014s.986 1.882.968 2.665c-.011.56-.428.47-.439.737-.011.25.275.219.275.219l3.336-.015s.322-.06.124-.376m-8.514-4.979l1.841-4.54 1.77 4.554-3.611-.014zm121.931 4.54c-.075-.134-.384.091-1.014-1.18-.246-.498-5.407-12.079-5.407-12.079s-.189-.259-.367-.271c-.146-.01-.253.216-.253.216l-5.527 12.778s-.199.396-.455.475c-.343.105-.477.385-.164.456.312.072 3.232-.028 3.232-.028s.166.066.118-.217c-.056-.346-.406-.106-.376-.756.017-.43 1.045-2.61 1.045-2.61l4.905-.014s.983 1.881.967 2.665c-.012.561-.427.47-.439.737-.011.25.274.219.274.219l3.337-.015s.321-.06.124-.376m-8.514-4.978l1.84-4.54 1.77 4.555-3.61-.015zM41.641 71.638s-.189.063-.063.188c.123.126.349.183.424.511.079.328.115.6.115.6l.02 6.234s-.024.553-.159.787c-.125.219-.4.15-.375.307.027.152.217.168.217.168l5.035-.026s.017-.028.109-.675c.088-.594.19-1.135-.01-1.109-.247.032-.107.219-.437.422-.351.213-.695.184-.695.184l-1.705.035s-.26-.008-.409-.137c-.097-.086-.092-.438-.092-.438l-.013-2.273s1.359-.027 1.818.008c.452.035.638.102.793.25.117.111.221.334.345.324.086-.005.122-.193.122-.193l-.014-2.068s-.019-.168-.144-.12c-.125.044-.275.259-.381.384-.145.164-.469.215-.469.215l-2.082.041s-.041-1.818-.03-2.359c.003-.098.165-.131.165-.131l1.857.006s.538-.016.668.102c.182.162.308.461.518.467.139 0 .131-.217.131-.217l-.018-1.281s.012-.158-.075-.203c-.087-.045-.431-.031-.431-.031l-4.735.028zm6.847.043l2.387-.004s.099-.022.103.074c.004.146-.165.164-.336.34-.172.166-.202.893-.202.893l.045 4.539s-.022.555.252 1.009c.347.571.855.847 1.665.843 1.143-.016 1.506-.639 1.633-.838.15-.257.211-.584.248-1.068.062-.853-.048-4.853-.048-4.853s-.065-.538-.258-.62c-.247-.107-.317-.21-.27-.307.058-.116.162-.082.162-.082l2.293.007s.121.038.086.157c-.048.16-.242.099-.369.365-.125.266-.162.707-.162.707l-.006 4.711s.062.906-.479 1.699c-.639.946-1.732 1.316-2.696 1.314-.924 0-1.799-.084-2.806-1.072-.672-.662-.679-1.643-.679-1.643L48.967 73s-.03-.533-.177-.82c-.113-.221-.384-.213-.407-.371-.023-.122.105-.128.105-.128m9.761.51c-.146-.262-.428-.268-.421-.434.006-.129.194-.139.194-.139l3.758.018s1.355.145 1.886.982c.239.369.487.789.467 1.668-.011.621-.343 1.285-.818 1.689-.342.295-.983.518-.983.518s.004.082.042.139c.376.547 2.25 3.225 2.25 3.225l.683.555s-1.441.096-1.789-.004c-.385-.107-.721-.639-.721-.639l-2.254-3.408s-.369-.469-.253-.668c.072-.125.691.084 1.345-.133.656-.219.979-.697.992-1.306.016-.616-.336-1.272-.929-1.42-.641-.161-1.638-.149-1.778-.034-.105.084-.069.238-.069.238l.062 6.227s.027.434.244.684c.218.252.3.172.3.316 0 .129-.173.135-.173.135l-2.246.002s-.143-.021-.123-.166c.018-.113.285-.115.41-.396.126-.283.113-.585.113-.585l-.043-6.334s.013-.442-.146-.73m48.299-.527s-.188.063-.063.188c.125.126.35.11.425.44.079.326.116.601.116.601l.019 6.235s-.025.552-.159.785c-.124.221-.4.15-.374.308.028.151.217.168.217.168l4.987-.028s.017-.027.11-.676c.085-.592.189-1.133-.014-1.107-.243.033-.103.217-.435.422-.351.215-.646.185-.646.185l-1.708.032s-.258-.006-.406-.135c-.098-.084-.094-.438-.094-.438l-.013-2.274s1.357-.025 1.82.01c.45.035.635.102.793.25.115.109.174.334.296.326.087-.008.124-.197.124-.197l-.015-2.066s-.018-.168-.144-.119c-.125.045-.229.258-.338.383-.142.164-.466.215-.466.215l-2.082.043s-.043-1.75-.03-2.291c.004-.098.166-.131.166-.131l1.853.002s.541-.012.672.105c.181.162.26.459.472.467.137 0 .129-.217.129-.217l-.018-1.279s.014-.16-.074-.205c-.087-.045-.384-.031-.384-.031l-4.736.029zm18.646.008s-.188.06-.063.188c.122.123.349.11.425.438.077.328.114.601.114.601l.021 6.235s-.025.554-.159.787c-.128.217-.4.146-.374.305.028.152.216.166.216.166l4.988-.027s.016-.027.11-.672c.085-.594.189-1.135-.014-1.107-.246.029-.104.217-.435.418-.351.217-.649.188-.649.188l-1.704.028s-.259-.004-.408-.135c-.097-.082-.092-.435-.092-.435l-.014-2.274s1.355-.027 1.819.008c.451.033.636.102.794.25.116.107.174.332.296.328.087-.01.124-.197.124-.197l-.016-2.066s-.021-.17-.143-.123c-.125.047-.229.26-.338.385-.145.164-.471.213-.471.213l-2.077.043s-.043-1.75-.03-2.289c0-.1.163-.131.163-.131l1.854.004s.541-.016.673.105c.181.159.26.461.469.463.139 0 .132-.217.132-.217l-.02-1.279s.013-.156-.072-.201c-.089-.047-.388-.035-.388-.035l-4.731.035zm-43.911 2.201a.097.097 0 0 1-.076-.024.142.142 0 0 1-.049-.082c-.094-.502-.297-.901-.609-1.192-.342-.312-.711-.332-1.243-.332-.515 0-.914.108-1.195.328-.279.221-.418.533-.418.936 0 .354.102.541.438.832.338.289.865.564 1.586.82.843.313 1.457.68 1.836 1.098.376.425.566.945.566 1.574 0 .834-.311 1.496-.928 1.984-.615.491-1.451.732-2.504.732-.443 0-.832-.037-1.158-.116a5.135 5.135 0 0 1-.871-.327.293.293 0 0 1-.125-.102.4.4 0 0 1-.055-.155l-.021-1.274a.638.638 0 0 1 .037-.178c.014-.048.076-.137.105-.141l.11-.082c.029-.006.056.002.086.02a.13.13 0 0 1 .06.073c.17.479.35.795.703 1.099.377.328.787.496 1.229.496.619 0 1.096-.131 1.432-.386.335-.259.584-.543.584-1.024 0-.318-.141-.607-.422-.861-.282-.252-.721-.485-1.317-.705-.967-.355-1.668-.762-2.105-1.221-.43-.459-.647-1.018-.647-1.678 0-.701.299-1.289.899-1.768.601-.48 1.338-.723 2.209-.723.435 0 .812.039 1.134.117.249.059.506.153.78.287a.501.501 0 0 1 .193.15.433.433 0 0 1 .07.223l.022 1.316c-.02.078-.02.141-.072.189-.02.023-.065.059-.096.061l-.168.036zm-7.621-1.205c-.883-.856-1.963-1.287-3.244-1.287-1.275 0-2.356.477-3.236 1.435-.883.955-1.323 2.125-1.323 3.505 0 1.245.44 2.297 1.323 3.152.88.857 1.961 1.287 3.236 1.287 1.281 0 2.361-.477 3.244-1.43.881-.953 1.322-2.119 1.322-3.502 0-1.248-.442-2.301-1.322-3.16m-3.08 6.793c-1.129.047-2.098-.438-2.672-1.311-.791-1.199-.769-3.393.303-4.548.515-.558.853-.819 2.021-.933 2.045 0 2.916 1.293 3.121 2.783.27 1.954-.695 3.921-2.773 4.009m17.196-3.906l.064 3.803s.026.432.243.684c.22.248.301.168.297.316 0 .132-.171.134-.171.134h-2.247s-.143-.021-.121-.165c.017-.113.281-.117.41-.4.123-.275.113-.58.113-.58l-.045-3.914"/><path fill="#1B3E76" d="M91.381 71.623l-2.328-.008s-.188-.012-.18.096c.007.117.278.08.282.322.015.338-2.007 3.297-2.007 3.297s-2.257-3.147-2.268-3.336c-.019-.281.207-.18.244-.326.028-.121-.078-.098-.078-.098s-1.952.014-2.155.045c-.201.031-.113.153.108.196.166.035.297.208.297.208l3.589 5.217s.071.1.165.094c.115-.008.238-.119.238-.119s3.354-4.696 3.514-4.914c.408-.551.61-.453.658-.512.13-.135-.079-.162-.079-.162m11.327 1.098l-.013 6.607s.028.438.247.686c.218.25.302.168.299.316 0 .131-.173.133-.173.133h-2.248s-.139-.017-.12-.164c.016-.113.282-.117.407-.396.128-.279.116-.584.116-.584l-.045-6.66"/><path fill="#1B3E76" d="M101.49 72.757h2.305s.538-.014.671.104c.178.162.259.459.469.464.137.002.13-.216.13-.216l-.016-1.28s.012-.158-.076-.201c-.087-.045-.383-.035-.383-.035l-3.113.035"/><path fill="#1B3E76" d="M102.028 72.757l-2.005.008s-.54-.014-.672.104c-.181.162-.262.459-.47.465-.134.002-.129-.217-.129-.217l.014-1.279s-.01-.16.076-.205c.09-.043.387-.033.387-.033l2.785.033M96.88 73.88a.1.1 0 0 1-.078-.024.135.135 0 0 1-.047-.08c-.1-.504-.298-.903-.611-1.192-.341-.316-.709-.334-1.242-.334-.516 0-.913.11-1.194.328-.279.223-.418.535-.418.936 0 .354.102.541.438.834.334.289.866.562 1.587.822.842.309 1.455.676 1.834 1.096.378.423.567.943.567 1.572 0 .834-.311 1.496-.927 1.984-.618.491-1.452.736-2.505.736-.444 0-.832-.041-1.16-.12a4.804 4.804 0 0 1-.871-.328.265.265 0 0 1-.122-.101.365.365 0 0 1-.058-.153l-.02-1.276a.654.654 0 0 1 .033-.176c.018-.051.078-.139.108-.143l.108-.082a.124.124 0 0 1 .087.02.133.133 0 0 1 .062.073c.171.483.351.795.7 1.101.379.33.79.494 1.231.494.615 0 1.096-.129 1.431-.386.337-.257.585-.543.585-1.021 0-.322-.141-.611-.423-.865-.283-.252-.72-.485-1.316-.705-.967-.355-1.67-.762-2.104-1.221-.43-.459-.65-1.016-.65-1.678 0-.697.302-1.285.901-1.768.599-.48 1.338-.723 2.209-.723.432 0 .812.039 1.135.117.248.062.505.157.78.287a.505.505 0 0 1 .191.152.411.411 0 0 1 .07.221l.022 1.32c-.022.076-.022.137-.071.186-.021.023-.067.059-.096.061l-.166.036zm13.69-2.928c-.022.035-.042.055-.063.06-.018.004-.046-.005-.076-.024l-2.019-1.043-.147-.097a.916.916 0 0 1-.339-.429.492.492 0 0 1-.028-.188c0-.09.025-.17.075-.24.134-.182.288-.289.473-.315.18-.028.366.026.554.161l.099.091 1.643 1.614a.22.22 0 0 1 .047.072c0 .018-.011.045-.034.076l-.185.262zm11.186.805s.449-.375.74-.215c.394.217.295.521.295.521l-.043 7.304s.004.367.171.601c.141.198.274.207.27.35-.004.096-.071.107-.071.107h-2.045s-.125 0-.104-.152c.018-.149.27.007.444-.444.114-.286.139-.634.139-.634l.051-4.614-2.526 5.018s-.131.307-.512.304c-.475-.003-.499-.852-.499-.852"/><path fill="#1B3E76" d="M122.314 71.504l.903.007s.173.062.057.187c-.109.124-.317.11-.387.436-.072.325-.103.595-.103.595l-.003.492m-7.071-1.318c-.15-.121-.633-.521-.93-.361-.391.217-.295.52-.295.52l.044 7.305s-.003.366-.173.601c-.138.198-.274.208-.264.349.001.097.067.109.067.109h2.046s.125 0 .104-.154c-.02-.148-.271.008-.447-.443-.11-.286-.135-.635-.135-.635l-.022-4.574 2.499 5.031s.096.281.477.242c.438-.008.591-1.05.591-1.05"/><path fill="#1B3E76" d="M114.96 71.494l-.905.006s-.169.063-.058.188c.112.124.316.11.389.437.07.323.102.595.102.595l.003.493"/></svg>