<svg id="règles" xmlns="http://www.w3.org/2000/svg" viewBox="0 0 353.2 76.7"><style>.st0{fill:#004379}.st1{fill:#e50043}</style><path class="st0" d="M70.7 36.5v-1.1c0-5.4 1.8-9.3 8.4-9.3 5 0 7.2 2.1 7.8 6.6l-4.2.6c-.2-2.4-1.1-3.8-3.6-3.8-3.4 0-4.4 2.2-4.4 5.9v1.1c0 4 1 5.9 4.4 5.9 2.7 0 3.5-1.1 3.8-4.1l4.2.5c-.7 4.3-2.8 7-8.3 7-6.2 0-8.1-3.9-8.1-9.3zm17.7 0v-1.1c0-5.4 1.8-9.3 8.4-9.3 5 0 7.2 2.1 7.8 6.6l-4.2.6c-.2-2.4-1.1-3.8-3.6-3.8-3.4 0-4.4 2.2-4.4 5.9v1.1c0 4 1 5.9 4.4 5.9 2.7 0 3.5-1.1 3.8-4.1l4.2.5c-.7 4.3-2.8 7-8.3 7-6.2 0-8.1-3.9-8.1-9.3zm18.7-10.2h3.9v19.4h-3.9V26.3zM130 37.5h-6.6v8.1h-3.5V28.1h3.5v6.3h6.6v-6.3h3.5v17.5H130v-8.1zm11.2-9.5h3.6l6 17.7h-3.6l-1.2-3.5h-6l-1.2 3.5h-3.4l5.8-17.7zm-.3 11.3h4.2l-2.1-6.2-2.1 6.2zm11.6.3V28.1h3.5v11.3c0 2.2.6 3.3 3.3 3.3 2.8 0 3.4-1.1 3.4-3.3V28.1h3.4v11.5c0 4.6-2.2 6.2-6.8 6.2s-6.8-1.6-6.8-6.2zm20.7-8.3H168v-3.1h13.8v3.1h-5.1v14.4h-3.5V31.3zm9.5 9.1l3.8-.4c.4 1.8 1.2 2.7 3.9 2.7 2 0 3.3-.5 3.3-2.1s-1.4-1.9-4-2.5c-3.2-.7-6.2-1.5-6.2-5.2 0-2.8 1.8-5 6.7-5 3.9 0 6 1.6 6.8 4.6l-3.9.5c-.3-1.4-1.1-2-2.9-2-2.4 0-3.2.6-3.2 1.8 0 1.2 1.1 1.6 3.6 2.2 4.1.9 6.6 1.8 6.6 5.6 0 3.5-3.1 5.2-6.9 5.2-5.2 0-6.8-2.2-7.6-5.4zm16.8-3.7h7.5v3h-7.5v-3zm9.6-8.6h6.1c6.1 0 7.6 3.4 7.6 8.2v1.1c0 4.8-1.9 8.2-7.6 8.2h-6.1V28.1zm6.1 14.6c3.3 0 4-2.1 4-5.3v-1.1c0-3.7-1-5.2-4-5.2h-2.5v11.6h2.5zm10-14.6h11.9v3.1h-8.4v3.4h7.5v3.1h-7.5v4.9h8.4v3.1h-11.9V28.1zm14.6 8.6h7.5v3h-7.5v-3zm9.7-8.6h11.9v3.1H253V35h7.5v3.1H253v7.6h-3.5V28.1zm20.8 10.7h-3.4v6.9h-3.5V28.1h7.6c3.1 0 6.1.9 6.1 5.2 0 2.7-1.5 4.2-3.2 4.9l3.5 7.4h-3.8l-3.3-6.8zm.2-2.9c2 0 3-.7 3-2.4 0-1.6-1-2.4-3-2.4h-3.7v4.8h3.7zm13.7-7.9h3.6l6 17.7h-3.6l-1.2-3.5h-6.1l-1.2 3.5h-3.4l5.9-17.7zm-.4 11.3h4.2l-2.1-6.2-2.1 6.2zm11.7-11.2h4.2l6 10.9V28.1h3.4v17.5h-3.5l-6.8-12.3v12.3h-3.4l.1-17.5zm16.1 9.3v-1c0-4.9 1.6-8.4 7.6-8.4 4.5 0 6.5 1.9 7 6l-3.8.6c-.1-2.2-1-3.4-3.3-3.4-3.1 0-3.9 2-3.9 5.3v1c0 3.6.9 5.3 4 5.3 2.4 0 3.1-1 3.4-3.7l3.8.4c-.7 3.9-2.5 6.3-7.5 6.3-5.6 0-7.3-3.5-7.3-8.4zm16.8-9.3h11.9v3.1H332v3.4h7.5v3.1H332v4.9h8.4v3.1h-11.9V28.1h-.1zM12.9 38.4c0 14.1 11.4 25.5 25.5 25.5 6.7 0 12-2.5 15.7-5.4l-5.4-6c-3 2.1-6.4 3.3-10.3 3.3C28.8 55.8 21 48 21 38.4S28.8 21 38.5 21c2.5 0 4.8.5 7 1.5l3.2-7.4c-3.1-1.4-6.6-2.1-10.2-2.1-14.1-.1-25.6 11.4-25.6 25.4z"/><path class="st0" d="M24.9 38.4C24.9 45.9 31 52 38.5 52c2.9 0 5.8-1 7.6-2.4 0 0-5.1-5.6-5.5-6.1-.5.2-1.4.4-2.1.4-3 0-5.5-2.5-5.5-5.5s2.5-5.6 5.5-5.6c.8 0 1.6.2 2.2.5l3.2-7.3c-1.6-.7-3.4-1.2-5.5-1.2-7.4 0-13.5 6.1-13.5 13.6z"/><path class="st1" d="M48.6 33.1c.7 1.4 1.3 3.3 1.3 5.3 0 2.6-1.1 5.3-2.5 7.2l5.5 6c3-3.2 5.1-8 5.1-13.2 0-3.1-.8-6.2-2.1-8.7l-7.3 3.4zm-2.3-3l13.9-6.5c-2-3-4.8-5.8-7.7-7.5l-6.2 14z"/></svg>