<?xml version="1.0" encoding="utf-8"?>
<!-- Generator: Adobe Illustrator 22.0.1, SVG Export Plug-In . SVG Version: 6.00 Build 0)  -->
<svg version="1.1" xmlns="http://www.w3.org/2000/svg" xmlns:xlink="http://www.w3.org/1999/xlink" x="0px" y="0px"
	 viewBox="0 0 1700.8 1474" style="enable-background:new 0 0 1700.8 1474;" xml:space="preserve">
<style type="text/css">
	.st0{fill:#E3051B;}
	.st1{fill:#005B7D;}
	.st2{fill:#FFFFFF;}
</style>
<g id="FOND">
	<rect x="100.5" y="737.2" class="st0" width="1498.6" height="632"/>
	<rect x="100.5" y="105.2" class="st1" width="1498.6" height="632"/>
</g>
<g id="LETTRAGE">
	<g>
		<path class="st2" d="M301.8,263.4v183c0,29.2,4.8,48.9,14.3,62.5c14.3,19.5,34.3,29.3,60.2,29.3c26,0,46.1-9.8,60.4-29.3
			c9.6-13.1,14.3-32.8,14.3-62.5v-183h51.4v195.5c0,35.9-11.2,65.4-33.5,88.6c-25.1,25.9-56,38.8-92.6,38.8
			c-36.6,0-67.4-12.9-92.4-38.8c-22.3-23.2-33.5-52.8-33.5-88.6V263.4H301.8z"/>
		<path class="st2" d="M583.1,283v296.6h51.8V259.5c0-2.5-2.7-4.1-4.9-2.8L583.1,283z"/>
		<path class="st2" d="M1043,579.5h-52V376.8c0-3-1.8-3.8-3.2-2.3L879.3,485.2c-0.6,0.6-1.5,0.6-2.1,0L768.7,374.5
			c-1.5-1.5-3.2-0.7-3.2,2.3v202.7h-52V259.4c0-2.9,3.5-4.3,5.5-2.3l158.2,158.2c0.7,0.7,1.5,0.7,2.1,0l158.2-158.2
			c2-2,5.5-0.6,5.5,2.3V579.5z"/>
		<path class="st2" d="M1449.2,579.5h-52V376.8c0-3-1.8-3.8-3.2-2.3l-108.5,110.7c-0.6,0.6-1.5,0.6-2.1,0l-108.5-110.7
			c-1.5-1.5-3.2-0.7-3.2,2.3v202.7h-52V259.4c0-2.9,3.5-4.3,5.5-2.3l158.2,158.2c0.7,0.7,1.5,0.7,2.1,0l158.2-158.2
			c2-2,5.5-0.6,5.5,2.3V579.5z"/>
	</g>
	<g>
		<polygon class="st2" points="262.6,920 250.5,920 250.5,1039.9 322.3,1039.9 322.3,1028.5 262.6,1028.5 		"/>
		<g>
			<polygon class="st2" points="392.3,919.3 349.3,966.8 348.9,967.2 348.9,1039.9 361.2,1039.9 361.2,971.5 392.3,937.5 
				423.4,971.5 423.4,1039.9 435.6,1039.9 435.6,967.2 393.4,920.5 			"/>
			<rect x="370.9" y="995" class="st2" width="42.5" height="10.9"/>
		</g>
		<path class="st2" d="M582,1082.7c-3.7-3.5-9-6.1-15.6-7.8c-6.5-1.6-15.4-2.5-26.4-2.5h-41.4v119.8h35.9c5.8,0,11.1-0.2,15.6-0.7
			c4.5-0.5,8.6-1.2,12.2-2.1c3.6-1,6.7-2.2,9.3-3.5c2.6-1.4,5-3,7.1-4.7c4.9-4.2,8.8-10.8,11.8-19.4c2.9-8.6,4.4-19.1,4.4-31.2
			c0-12.4-1.2-22.6-3.5-30.3C589.1,1092.4,585.9,1086.5,582,1082.7z M510.9,1084h27.9c3.6,0,7.1,0.1,10.6,0.3
			c3.4,0.2,6.6,0.6,9.6,1.1c2.9,0.5,5.6,1.3,8,2.3c2.3,1,4.1,2.2,5.6,3.7c3.4,3.5,6,8.7,7.6,15.4c1.6,6.9,2.5,14.9,2.5,23.9
			c0,10.8-1.2,19.9-3.5,27.1c-2.3,7.1-5.3,12.2-8.8,15.2c-3,2.4-7.4,4.4-13,5.8c-5.7,1.4-13.7,2.1-23.9,2.1h-22.4V1084z"/>
		<polygon class="st2" points="633.3,1136.8 686.7,1136.8 686.7,1125.6 633.3,1125.6 633.3,1083.8 696.1,1083.8 696.1,1072.5 
			621.2,1072.5 621.2,1192.3 699.1,1192.3 699.1,1181 633.3,1181 		"/>
		<polygon class="st2" points="774,1072.5 761.9,1072.5 761.9,1192.3 837.4,1192.3 837.4,1181 774,1181 		"/>
		<polygon class="st2" points="845.1,1072.5 825.3,1115.4 836.7,1115.4 858.7,1072.5 		"/>
		<polygon class="st2" points="1026.4,1180.3 1023.9,1180.3 985.1,1072.5 971.8,1072.5 1015.5,1192.3 1034.1,1192.3 1080.6,1072.5 
			1067.5,1072.5 		"/>
		<polygon class="st2" points="1105.3,1136.8 1158.7,1136.8 1158.7,1125.6 1105.3,1125.6 1105.3,1083.8 1168,1083.8 1168,1072.5 
			1093.2,1072.5 1093.2,1192.3 1171.1,1192.3 1171.1,1181 1105.3,1181 		"/>
		<polygon class="st2" points="1283.8,1179.6 1283.3,1179.6 1216.8,1072.5 1198.2,1072.5 1198.2,1192.3 1209.8,1192.3 
			1209.8,1084.3 1210.2,1084.3 1277.4,1192.3 1295.5,1192.3 1295.5,1072.5 1283.8,1072.5 		"/>
		<rect x="1328.1" y="1072.5" class="st2" width="12.2" height="119.8"/>
		<g>
			<polygon class="st2" points="916.2,1071.8 873.3,1119.2 872.9,1119.7 872.9,1192.3 885.1,1192.3 885.1,1124 916.3,1090 
				947.4,1124 947.4,1192.3 959.6,1192.3 959.6,1119.7 917.4,1073 			"/>
			<rect x="894.9" y="1147.5" class="st2" width="42.5" height="10.9"/>
		</g>
		<polygon class="st2" points="510.8,987.9 561.3,987.9 561.3,976.7 510.8,976.7 510.8,931.3 573.2,931.3 573.2,920 498.6,920 
			498.6,1039.9 510.8,1039.9 		"/>
		<g>
			<polygon class="st2" points="601.4,971.5 632.6,937.5 663.7,971.5 663.7,1039.9 675.9,1039.9 675.9,967.2 633.6,920.5 
				632.5,919.4 589.6,966.8 589.2,967.2 589.2,1039.9 601.4,1039.9 			"/>
			<rect x="611.2" y="995" class="st2" width="42.5" height="10.9"/>
		</g>
		<path class="st2" d="M773.1,975.6c4.9-5.2,7.7-12.9,7.7-22.3v-3.7c0-17.9-10.1-29.5-25.7-29.5h-51.9v51.6v10.9v57.2h57.2
			c17.6,0,27-14.5,27-32v-4C787.4,990.7,781.8,980.7,773.1,975.6z M715.4,931.2h39.1c13.6,0,15.1,12.9,15.1,18.4v3.5
			c0,5.5-1.5,18.5-15.1,18.5h-39.1V931.2z M776.1,1007.8c0,6.4-1.7,21.1-17.9,21.1h-42.8v-46.3h43.2c15.8,0.3,17.5,14.8,17.5,21.1
			V1007.8z"/>
		<path class="st2" d="M888.5,1039.9h14.3c0,0-19.1-36.6-27.9-51.6c14.6-2.4,23.7-14.3,23.7-31.9v-4c0-19.6-11.4-32.3-29.1-32.3H817
			v119.9h12.3v-51.2h32.7C865.3,993.9,888.5,1039.9,888.5,1039.9z M887.3,952.3v4c0,6.3-1.7,21.1-17.9,21.1h-40.2v-46.3h40.2
			C885.6,931.2,887.3,946,887.3,952.3z"/>
		<path class="st2" d="M1444.5,1191.2h14.3c0,0-19.1-36.6-27.9-51.6c14.6-2.4,23.7-14.3,23.7-31.9v-4c0-19.6-11.4-32.3-29.1-32.3
			H1373v119.9h12.3V1140h32.7C1421.3,1145.2,1444.5,1191.2,1444.5,1191.2z M1443.3,1103.6v4c0,6.3-1.7,21.1-17.9,21.1h-40.2v-46.3
			h40.2C1441.6,1082.5,1443.3,1097.3,1443.3,1103.6z"/>
		<rect x="931.2" y="920" class="st2" width="12.2" height="119.8"/>
		<path class="st2" d="M1071.1,1000.5v-44.6c0-13.8-5.1-25-14.9-32.3c-8.1-6.2-19.1-9.4-31.8-9.4h-6.2c-12.7,0-23.6,3.3-31.8,9.4
			c-9.7,7.4-14.9,18.5-14.9,32.3v44.6c0,13.8,5.1,25,14.9,32.3c8.1,6.2,19.1,9.4,31.8,9.4h6.2c1.7,0,3.5-0.1,5.1-0.2l19.9,24.2h13.4
			l-20.7-26.4c5.3-1.6,10.1-3.9,14.1-7C1066,1025.5,1071.1,1014.3,1071.1,1000.5z M1024.5,1030.6h-6.2c-31.5,0-34.9-21-34.9-30.1
			v-44.6c0-9,3.4-30.1,34.9-30.1h6.2c31.5,0,34.9,21,34.9,30.1v44.6C1059.4,1009.6,1056,1030.6,1024.5,1030.6z"/>
		<path class="st2" d="M1147.8,1042.3h-6.2c-27,0-42.4-15.2-42.4-41.8V920h11.7v80.5c0,20,10.3,30.1,30.7,30.1h6.2
			c20.4,0,30.7-10.1,30.7-30.1V920h11.7v80.5C1190.2,1027.1,1174.8,1042.3,1147.8,1042.3z"/>
		<polygon class="st2" points="1295.5,1028.5 1229.7,1028.5 1229.7,984.3 1283,984.3 1283,973.1 1229.7,973.1 1229.7,931.3 
			1292.4,931.3 1292.4,920 1217.6,920 1217.6,1039.9 1295.5,1039.9 		"/>
	</g>
</g>
</svg>
