<svg xmlns="http://www.w3.org/2000/svg" height="181.67" width="563.981"><path d="M131.847 120.409c-12.566 0-19.103-8.138-19.103-22.155v-29.49h7.625v29.273c0 9.589 3.995 14.745 11.623 14.745 7.989 0 11.767-4.939 11.767-14.235V68.764h7.628v29.635c0 14.238-6.902 22.01-19.54 22.01zm72.342-21.573l10.387 20.773h-8.788l-10.097-20.12-11.478-.001v20.121h-7.481V68.763h22.3c8.861 0 16.342 4.722 16.342 15.181.001 8.137-4.285 13.149-11.185 14.892zm-5.157-22.88h-14.819v16.342h14.819c5.084 0 8.643-2.614 8.643-8.134 0-5.303-3.486-8.208-8.643-8.208zm55.852 44.453c-7.409 0-13.801-3.195-18.086-8.206l5.447-5.305c3.414 3.705 8.426 6.028 13.22 6.028 7.119 0 10.533-2.468 10.533-7.407 0-3.922-2.978-5.884-11.478-8.427-10.75-3.195-15.906-5.884-15.906-14.964 0-8.789 7.408-14.163 16.778-14.163 6.9 0 12.131 2.542 16.634 6.9l-5.375 5.448c-3.195-3.269-6.828-4.867-11.839-4.867-5.956 0-8.498 2.905-8.498 6.32 0 3.558 2.323 5.302 11.112 7.916 10.025 3.053 16.272 6.247 16.272 15.326 0 9.152-5.811 15.401-18.814 15.401zm57.958 0c-7.406 0-13.8-3.195-18.084-8.206l5.449-5.305c3.412 3.705 8.424 6.028 13.218 6.028 7.121 0 10.533-2.468 10.533-7.407 0-3.922-2.978-5.884-11.478-8.427-10.75-3.195-15.906-5.884-15.906-14.964 0-8.789 7.406-14.163 16.778-14.163 6.9 0 12.129 2.542 16.634 6.9l-5.373 5.448c-3.199-3.269-6.832-4.867-11.844-4.867-5.955 0-8.496 2.905-8.496 6.32 0 3.558 2.323 5.302 11.112 7.916 10.023 3.053 16.272 6.247 16.272 15.326.001 9.152-5.81 15.401-18.815 15.401zm76.27-.799l-4.288-12.058h-20.339l-4.212 12.057h-7.917l18.302-50.846h8.065l18.522 50.846h-8.133zM378.43 89.03c-1.234-3.633-3.268-9.517-3.85-11.695-.579 2.178-2.396 7.99-3.702 11.767l-4.07 11.623H382.5l-4.07-11.695zm48.953-12.783v13.291h14.601v7.482h-14.601v22.59h-7.627V68.764h32.761v7.483h-25.134zM26.675 97.896h26.083s5.529 29.056 25.969 49.978c20.451 20.932 36.812 28.001 36.812 28.001s-30.16.138-61.837-28.52c-23.734-21.496-27.027-49.459-27.027-49.459" fill="#005aa2"/><path d="M434.646 5.865s54.044-2.932 83.007 29.142c18.998 21.063 19.653 39.553 19.653 39.553l-28.446.646s-2.074-20.108-14.32-37.433C472.508 6.605 434.646 5.865 434.646 5.865" fill="#009475"/></svg>