<?xml version="1.0" encoding="utf-8"?>
<!-- Generator: Adobe Illustrator 23.0.1, SVG Export Plug-In . SVG Version: 6.00 Build 0)  -->
<svg version="1.1" xmlns="http://www.w3.org/2000/svg" xmlns:xlink="http://www.w3.org/1999/xlink" x="0px" y="0px"
	 viewBox="0 0 1852 582" style="enable-background:new 0 0 1852 582;" xml:space="preserve">
<style type="text/css">
	.st0{fill:#F2C2C2;}
	.st1{fill:none;stroke:#2A4E96;stroke-width:5;stroke-miterlimit:10;}
	.st2{fill:#2A4E96;}
	.st3{fill:none;stroke:#000000;stroke-width:1.005;stroke-miterlimit:10;}
	.st4{fill:none;stroke:#000000;stroke-width:1.005;stroke-miterlimit:10;stroke-dasharray:11.8904,11.8904;}
	.st5{fill:none;stroke:#000000;stroke-width:1.005;stroke-miterlimit:10;stroke-dasharray:11.6667,11.6667;}
	.st6{fill:#80B276;}
	.st7{fill-rule:evenodd;clip-rule:evenodd;fill:#FFFFFF;}
	.st8{fill:#FFFFFF;}
	.st9{fill:#F1A34F;}
	.st10{fill:#A5A5A5;}
	.st11{fill:none;stroke:#000000;stroke-width:2;stroke-miterlimit:10;}
	.st12{fill:none;stroke:#000000;stroke-width:2;stroke-miterlimit:10;stroke-dasharray:12.0597,12.0597;}
	.st13{fill:none;stroke:#000000;stroke-width:2;stroke-miterlimit:10;stroke-dasharray:12.3704,12.3704;}
	.st14{fill:none;stroke:#000000;stroke-width:0.25;stroke-miterlimit:10;}
	.st15{fill:none;stroke:#000000;stroke-width:0.2739;stroke-miterlimit:10;}
	.st16{fill:none;stroke:#000000;stroke-width:0.2732;stroke-miterlimit:10;}
</style>
<g id="encart">
</g>
<g id="Calque_1">
	<g>
		<path class="st8" d="M1743.2,475.6H287.9c-92.9,0-168.9-76-168.9-168.9v0c0-92.9,76-168.9,168.9-168.9h1455.3
			c13.1,0,23.8,10.7,23.8,23.8v290.4C1767,464.9,1756.3,475.6,1743.2,475.6z"/>
		<g>
			<g>
				<path class="st2" d="M276.9,357.3c1.2,26.1,13.1,49.5,31.8,67.2c64.2-7.1,112.7-63,109.6-128.5c-0.9-18.8-6-36.4-14.2-52
					c-3,0-6,0-9,0.1C327,247.4,274.1,298.1,276.9,357.3z"/>
				<path class="st9" d="M205.1,220.8C187.3,241,176,267,174.6,296c-3.2,64.2,43.2,119.4,105.7,128.3c17.7-20.2,29-46.3,30.5-75.2
					C313.9,284.9,267.5,229.7,205.1,220.8z"/>
				<path class="st2" d="M300.2,415.1c-36.7-45.3-19.6-89.3-19.6-89.3c13.1,27.2,39.7,70,39.7,70L300.2,415.1z"/>
				<ellipse transform="matrix(0.5 -0.866 0.866 0.5 -48.7806 337.6971)" class="st9" cx="268.1" cy="211.1" rx="23.9" ry="16.2"/>
				
					<ellipse transform="matrix(0.9297 -0.3682 0.3682 0.9297 -61.7016 138.5773)" class="st2" cx="332.3" cy="231" rx="17.1" ry="21.3"/>
			</g>
		</g>
		<g>
			<g>
				<path class="st2" d="M873.5,324.5v-75.9c0-4-0.5-8.3-6.8-8.3h-4.3l-1.7,1.7v35.7c-5.5-3.1-10.7-4.6-15.9-4.6
					c-18.8,0-27.3,19.4-27.3,37.5c0,22.7,9.2,36.2,24.7,36.2c9.7,0,16.5-4.9,20.3-8.7c1.7,3.9,4.5,6.5,8.5,8l0.5,0.2l0.5-0.2
					c2.5-1.2,4.5-3.9,5.3-6l0.3-0.9l-0.6-0.6C873.9,335.3,873.5,329.6,873.5,324.5z M844,335c-9.9,0-13.4-12.7-13.4-24.5
					c0-11.9,4-25.8,15.1-25.8c5.7,0,10.9,2.9,15,5.6v35C856.4,331.2,849.9,335,844,335z"/>
				<path class="st2" d="M919.5,272.4c-17.7,0-29.1,14.5-29.1,37c0,24,10.2,37.2,28.7,37.2c9.1,0,18.8-3,26-8l0.7-0.5l-0.1-0.8
					c-0.3-2.4-1.9-6-4.2-8l-0.7-0.6l-0.9,0.5c-7.2,3.9-13.2,5.7-19.4,5.7c-10.4,0-15.7-6.6-16.4-20.8h42.7l0.2-1.2
					c0.6-3.6,0.7-6.1,0.7-9.4C947.7,284.6,936.6,272.4,919.5,272.4z M919.5,283.2c13.5,0,15,13.9,15,19.8v0.4h-30.4
					C905.1,290.5,910.7,283.2,919.5,283.2z"/>
				<path class="st2" d="M991.8,304.3l-8.2-3.2c-6.8-2.6-9.5-5.1-9.5-8.8c0-5.2,4.4-8.7,10.9-8.7c5.3,0,11.3,1.4,17.6,4.2l0.9,0.4
					l0.7-0.7c2.2-2.2,3.6-5.8,3.6-9v-0.9l-0.8-0.4c-6.1-2.8-15.1-4.7-21.7-4.7c-14.2,0-24.6,8.6-24.6,20.5c0,9.1,6.1,15.9,18.6,20.6
					l7.8,3.1c5.8,2.1,9.2,5.7,9.2,9.7c-0.1,5.6-5.5,9.4-13.3,9.4c-7.1,0-14.3-3.5-19-6.2l-0.8-0.5l-0.7,0.6
					c-2.4,1.9-4.4,5.6-4.5,8.5l0,0.8l0.7,0.4c5.1,3.3,13.5,7.2,24.3,7.2c16.4,0,26.9-8.2,26.9-21
					C1009.9,316.1,1004,309.1,991.8,304.3z"/>
				<path class="st2" d="M636.3,325.9v-28.6c0-16.1-7.9-24.6-22.9-24.6c-11.4,0-23.2,4.6-27.7,6.6l-0.8,0.4v0.9
					c0,3.1,1.8,7.1,4.1,9.1l0.7,0.6l0.8-0.4c8.5-3.7,15.7-5.6,22-5.6c7.7,0,11.1,3.9,11.1,12.7v5.3c-4-0.6-8.6-1-13.8-1
					c-17.4,0-27.3,8.7-27.3,23.7c0,0.5,0,1,0.1,1.5c-4.6,4.3-9.6,7.8-17.7,7.6c-1.4,0-2.3-0.4-2.9-1c-1.1-1.1-1-3.4-0.9-5.6
					c0-0.6,0-1.2,0-1.8v-77.4c0-4-0.5-8.3-7-8.3h-4.3l-1.7,1.7v90.7c0,7.8,4.7,12.3,13.1,12.9c0.9,0.1,1.8,0.1,2.7,0.1
					c11,0,18.5-4.5,22.5-7.7c3.5,5.1,9.4,8.7,17.5,8.7c7.2,0,14.2-3.1,21.1-9.2c1.6,4.1,4.5,6.9,8.8,8.5l0.5,0.2l0.5-0.2
					c2.5-1.1,4.6-4,5.4-6l0.3-0.9l-0.7-0.6C636.8,335.5,636.3,331.9,636.3,325.9z M623.5,312.8v12.2c-5.1,6.4-12,10.2-18.4,10.2
					c-7,0-9.6-5.7-9.6-10.7c0-7.9,5.2-12.5,14.3-12.5C613.3,312,618.5,312.1,623.5,312.8z"/>
				<path class="st2" d="M501.2,236.7c-6.1,0-11.9,0.1-17.9,0.2c-3.6,0.1-7.3,0.2-11.2,0.2l-0.6,0l-1.7,1.7v105l1.1,0.2
					c1.5,0.3,3.7,0.5,5.9,0.5c2.5,0,4.7-0.2,6.2-0.5l1.1-0.2v-39h17.1c21.6,0,35-13.1,35-34.2C536.1,249.7,522.7,236.7,501.2,236.7z
					 M501.5,292.3c-3.8,0-11.3,0-17.4,0.1v-43.3c5.5,0.1,12.8,0.1,17.4,0.1c17,0,19.5,13.5,19.5,21.5
					C521,278.8,518.4,292.3,501.5,292.3z"/>
				<path class="st2" d="M692,300.8l1.3,0.2c1.6,0.3,3,0.4,4.7,0.4c6.8,0,6.8-5.9,6.8-7.8c0-8.2-6.9-21.2-25.4-21.2
					c-13.5,0-29.3,9.9-29.3,37.7c0,17.6,7.5,36.5,28.4,36.5c9.2,0,17.6-3.5,24.9-10.4l0.6-0.5l-0.2-0.8c-0.6-2.7-3-5.9-5.5-7.4
					l-0.8-0.5l-0.8,0.5c-5.1,3.7-10.6,7.4-16.9,7.4c-13.5,0-16.3-13.5-16.3-24.8c0-16.7,5.8-26.6,15.5-26.6c4,0,7.2,1.2,9.4,3.6
					c2.6,2.8,3.9,7.3,3.6,12.4L692,300.8z"/>
				<path class="st2" d="M743.6,272.4c-17.7,0-29.1,14.5-29.1,37c0,24,10.2,37.2,28.7,37.2c9.1,0,18.8-3,26-8l0.7-0.5l-0.1-0.8
					c-0.3-2.4-1.9-6-4.2-8l-0.7-0.6l-0.9,0.5c-7.2,3.9-13.2,5.7-19.4,5.7c-10.4,0-15.7-6.6-16.4-20.8h42.7l0.2-1.2
					c0.6-3.6,0.7-6.1,0.7-9.4C771.8,284.6,760.7,272.4,743.6,272.4z M743.6,283.2c13.5,0,15,13.9,15,19.8v0.4h-30.4
					C729.2,290.5,734.8,283.2,743.6,283.2z"/>
				<path class="st2" d="M1336.6,274.3c-7.4,0-13.8,2.6-18.6,7.2c-4-2.9-11.4-6.8-20.8-6.4c-7.8,0.3-14.2,3.9-18.1,10
					c-1.9-4.9-5.3-8.4-9.9-10.1l-0.7-0.2l-0.6,0.4c-2.2,1.4-4.4,4.3-5,6.6l-0.2,0.8l0.6,0.6c2.2,2.1,4.6,6.6,4.6,13.1v50.2l1.1,0.2
					c1.5,0.3,3.3,0.4,5.5,0.4c2,0,3.8-0.2,5.3-0.4l1.1-0.2v-47c2.9-6.3,8.8-12.8,16.6-12.8c6.7,0,11.2,2.8,13.6,4.8
					c-2.4,5.5-3.7,12.2-3.7,19.8c0,24,10.2,37.2,28.7,37.2c9.1,0,18.8-3,26-8l0.7-0.5l-0.1-0.8c-0.3-2.4-1.9-6-4.2-8l-0.7-0.6
					l-0.9,0.5c-7.2,3.9-13.2,5.7-19.4,5.7c-10.4,0-15.7-6.6-16.4-20.8h42.7l0.2-1.2c0.6-3.6,0.7-6.1,0.7-9.4
					C1364.7,286.5,1353.7,274.3,1336.6,274.3z M1351.5,304.8v0.4h-30.4c1-12.9,6.6-20.2,15.4-20.2
					C1350.1,285,1351.5,298.9,1351.5,304.8z"/>
				<path class="st2" d="M1077.8,335.1c0-0.4,0-0.8,0-1.2c0-1,0.1-2,0.1-3.1V300c2.9,0.1,5.6,0.1,7.7,0.1h32.7l0.2-1.2
					c0.3-1.6,0.5-3.7,0.5-5.3c0-1.5-0.2-3.5-0.5-5.3l-0.2-1.2h-32.8c-1.1,0-2.5,0-3.9,0.1c-1.2,0-2.5,0.1-3.9,0.1v-25.6
					c0-2,0-3.4-0.1-4.8c0-1-0.1-2-0.1-3.2c1.9,0,3.7,0,5.4,0c0.9,0,1.8,0,2.5,0h39.9l0.3-1c0.6-1.8,0.8-4.2,0.8-5.8c0-1.4,0-3-0.3-5
					l-0.2-1.2h-60.7l-1.7,1.7v96.2c0,5.5,3.1,9,8,9h48.1c4.8,0,8-2.3,8.9-6.5l0,0c0.3-1.8,0.3-4.1,0.3-5.1v-1.4h-43.2
					C1082.7,334.8,1080.1,334.9,1077.8,335.1z"/>
				<path class="st2" d="M1198,332.3v-34.4c0-14.6-7-23-19.3-23c-7.7,0-16.1,3.1-22.5,8.2c-0.2-4-1.3-7.5-6.9-7.5h-4.5l-1.7,1.7
					v69.4l1.1,0.2c1.5,0.3,3.3,0.4,5.5,0.4c2,0,3.8-0.2,5.3-0.4l1.1-0.2v-49.9c5.2-5.8,13.3-9.8,20-9.8c6.7,0,8.7,3.3,8.7,14.1v38.4
					c0,3.5,0.7,8.2,6.7,8.2c3,0,5.9-1,7.5-2.6l0.7-0.7l-0.4-0.9C1198.2,340.5,1198,336.2,1198,332.3z"/>
				<path class="st2" d="M1251.4,276l-17.4,0.3v-20l-1.7-1.7h-4.3c-6.3,0-6.8,4.3-6.8,8.3v13.1l-9.6-0.1l-0.2,1.1
					c-0.3,1.6-0.4,2.8-0.4,4.2c0,1.7,0.2,3,0.4,4.3l0.2,1.1l9.6-0.1v47.9c0,8.1,5.2,12.9,14,12.9c5.3,0,9.7-0.3,14.2-0.8l0.7-0.1
					l0.3-0.7c0.4-0.9,0.4-1.9,0.4-2.7c0-2.1-0.4-4.4-1.1-6.1l-0.4-0.9H1238c-2.8,0-4-1.3-4-4.4v-45.2l17.4,0.1l0.2-1.1
					c0.3-1.3,0.4-2.6,0.4-4.3c0-1.4-0.1-2.6-0.4-4.2L1251.4,276z"/>
				<path class="st2" d="M1412.9,274.3c-6.9,0-13.7,2.7-19,7.4c-0.4-3.4-1.9-6.2-7-6.2h-4.2l-1.7,1.7V375l1.7,1.7h4.3
					c6.4,0,7-4.3,7-8.3v-24.9c5.3,3.1,10.6,4.6,16.2,4.6c13.2,0,27.3-11.7,27.3-37.3C1437.6,287.9,1428.4,274.3,1412.9,274.3z
					 M1411,286.1c6.5,0,13.4,6.4,13.4,24.5c0,18.9-8.1,25.6-15.1,25.6c-4.8,0-9.6-1.8-15.2-5.6v-34.5
					C1398.2,290.1,1404.8,286.1,1411,286.1z"/>
				<path class="st2" d="M1484.7,275.1c-7.7,0-14.1,3.5-18.2,10c-1.9-4.9-5.3-8.4-9.9-10.1l-0.7-0.2l-0.6,0.4
					c-2.2,1.4-4.4,4.3-5,6.6l-0.2,0.8l0.6,0.6c2.2,2.1,4.6,6.6,4.6,13.1v50.2l1.1,0.2c1.5,0.3,3.3,0.4,5.5,0.4c2,0,3.8-0.2,5.3-0.4
					l1.1-0.2v-47c2.5-5.3,7.2-11.5,15.5-11.5c1.5,0,3.1,0,4.7,0.1l0.8,0.1l0.5-0.7c1.6-2.6,2.6-6.5,2.6-10.5v-1.2l-1.2-0.2
					C1488.2,275.2,1485.8,275.1,1484.7,275.1z"/>
				<path class="st2" d="M1503.3,264.9l0.4,0.2c1.7,1,4.6,1.7,7,1.7c1.9,0,5.5-0.6,7.1-1.8l0.3-0.2l0.1-0.3c0.7-1.4,1.1-4,1.1-5.8
					c0-1.7-0.4-4.4-1.1-5.8l-0.2-0.3l-0.3-0.2c-1.7-1.1-5.2-1.6-7-1.6c-2.5,0-5.4,0.7-7,1.6l-0.4,0.2l-0.2,0.4
					c-0.7,1.4-1.1,4-1.1,5.8c0,1.7,0.4,4.4,1.1,5.8L1503.3,264.9z"/>
				<path class="st2" d="M1508.9,275.6h-1.1c-1.6,0-4,0.3-7.1,0.7l-0.9,0.1l-0.3,0.9c-0.4,1.4-0.6,2.7-0.6,4.1
					c0,1.6,0.2,2.8,0.6,4.3l0.3,1h2.3c3.3,0,4.3,0.7,4.3,5.3v54.7l1.1,0.2c1.5,0.3,3.3,0.4,5.5,0.4c2,0,3.8-0.2,5.3-0.4l1.1-0.2V287
					C1519.4,279.9,1515.4,275.6,1508.9,275.6z"/>
				<path class="st2" d="M1567.5,306.2l-8.2-3.2c-6.8-2.6-9.5-5.1-9.5-8.8c0-5.2,4.4-8.7,10.9-8.7c5.3,0,11.3,1.4,17.6,4.2l0.9,0.4
					l0.7-0.7c2.2-2.2,3.6-5.8,3.6-9v-0.9l-0.8-0.4c-6.1-2.8-15.1-4.7-21.7-4.7c-14.2,0-24.6,8.6-24.6,20.5c0,9.1,6.1,15.9,18.6,20.6
					l7.8,3.1c5.8,2.1,9.2,5.7,9.2,9.7c-0.1,5.6-5.5,9.4-13.3,9.4c-7.1,0-14.3-3.5-19-6.2l-0.8-0.5l-0.7,0.6
					c-2.4,1.9-4.4,5.6-4.5,8.5l0,0.8l0.7,0.4c5.1,3.3,13.5,7.2,24.3,7.2c16.4,0,26.9-8.2,26.9-21
					C1585.6,317.9,1579.6,310.9,1567.5,306.2z"/>
				<path class="st2" d="M1625.1,274.3c-17.7,0-29.1,14.5-29.1,37c0,24,10.2,37.2,28.7,37.2c9.1,0,18.8-3,26-8l0.7-0.5l-0.1-0.8
					c-0.3-2.4-1.9-6-4.2-8l-0.7-0.6l-0.9,0.5c-7.2,3.9-13.2,5.7-19.4,5.7c-10.4,0-15.7-6.6-16.4-20.8h42.7l0.2-1.2
					c0.6-3.6,0.7-6.1,0.7-9.4C1653.2,286.5,1642.2,274.3,1625.1,274.3z M1625.1,285c13.5,0,15,13.9,15,19.8v0.4h-30.4
					C1610.7,292.4,1616.2,285,1625.1,285z"/>
				<path class="st2" d="M1697.4,306.2l-8.2-3.2c-6.8-2.6-9.5-5.1-9.5-8.8c0-5.2,4.4-8.7,10.9-8.7c5.3,0,11.3,1.4,17.6,4.2l0.9,0.4
					l0.7-0.7c2.2-2.2,3.6-5.8,3.6-9v-0.9l-0.8-0.4c-6.1-2.8-15.1-4.7-21.7-4.7c-14.2,0-24.6,8.6-24.6,20.5c0,9.1,6.1,15.9,18.6,20.6
					l7.8,3.1c5.8,2.1,9.2,5.7,9.2,9.7c-0.1,5.6-5.5,9.4-13.3,9.4c-7.1,0-14.3-3.5-19-6.2l-0.8-0.5l-0.7,0.6
					c-2.4,1.9-4.4,5.6-4.5,8.5l0,0.8l0.7,0.4c5.1,3.3,13.5,7.2,24.3,7.2c16.4,0,26.9-8.2,26.9-21
					C1715.5,317.9,1709.6,310.9,1697.4,306.2z"/>
			</g>
		</g>
	</g>
</g>
<g id="Calque_3">
</g>
</svg>
