<?xml version="1.0" encoding="utf-8"?>
<!-- Generator: Adobe Illustrator 23.0.1, SVG Export Plug-In . SVG Version: 6.00 Build 0)  -->
<svg version="1.1" xmlns="http://www.w3.org/2000/svg" xmlns:xlink="http://www.w3.org/1999/xlink" x="0px" y="0px"
	 viewBox="0 0 600 600" style="enable-background:new 0 0 600 600;" xml:space="preserve">
<style type="text/css">
	.st0{fill:#F2C2C2;}
	.st1{fill:none;stroke:#2A4E96;stroke-width:5;stroke-miterlimit:10;}
	.st2{fill:#2A4E96;}
	.st3{fill:none;stroke:#000000;stroke-width:1.005;stroke-miterlimit:10;}
	.st4{fill:none;stroke:#000000;stroke-width:1.005;stroke-miterlimit:10;stroke-dasharray:11.8904,11.8904;}
	.st5{fill:none;stroke:#000000;stroke-width:1.005;stroke-miterlimit:10;stroke-dasharray:11.6667,11.6667;}
	.st6{fill:#80B276;}
	.st7{fill-rule:evenodd;clip-rule:evenodd;fill:#FFFFFF;}
	.st8{fill:#FFFFFF;}
	.st9{fill:#F1A34F;}
	.st10{fill:#A5A5A5;}
	.st11{fill:none;stroke:#000000;stroke-width:2;stroke-miterlimit:10;}
	.st12{fill:none;stroke:#000000;stroke-width:2;stroke-miterlimit:10;stroke-dasharray:12.0597,12.0597;}
	.st13{fill:none;stroke:#000000;stroke-width:2;stroke-miterlimit:10;stroke-dasharray:12.3704,12.3704;}
	.st14{fill:none;stroke:#000000;stroke-width:0.25;stroke-miterlimit:10;}
	.st15{fill:none;stroke:#000000;stroke-width:0.2739;stroke-miterlimit:10;}
	.st16{fill:none;stroke:#000000;stroke-width:0.2732;stroke-miterlimit:10;}
</style>
<g id="encart">
</g>
<g id="Calque_1">
	<g>
		<circle class="st8" cx="289.7" cy="297.5" r="225"/>
		<g>
			<g>
				<path class="st2" d="M262.7,367.7c1.7,36.2,18.2,68.6,44.1,93.2c89.1-9.8,156.3-87.4,151.9-178.2c-1.2-26.1-8.3-50.5-19.7-72.1
					c-4.1-0.1-8.3,0-12.5,0.2C332.1,215.4,258.8,285.6,262.7,367.7z"/>
				<path class="st9" d="M163,178.4c-24.6,28-40.3,64.2-42.3,104.3c-4.5,89,60,165.6,146.5,177.9c24.6-28,40.3-64.2,42.3-104.3
					C314,267.3,249.6,190.7,163,178.4z"/>
				<path class="st2" d="M294.9,447.8C244,385.1,267.8,324,267.8,324c18.1,37.7,55,97,55,97L294.9,447.8z"/>
				<ellipse transform="matrix(0.5 -0.866 0.866 0.5 -17.6843 299.313)" class="st9" cx="250.4" cy="165" rx="33.1" ry="22.4"/>
				
					<ellipse transform="matrix(0.9297 -0.3682 0.3682 0.9297 -47.0494 138.509)" class="st2" cx="339.4" cy="192.6" rx="23.7" ry="29.5"/>
			</g>
		</g>
	</g>
</g>
<g id="Calque_3">
</g>
</svg>
