<?xml version="1.0" encoding="utf-8"?>
<!-- Generator: Adobe Illustrator 22.0.1, SVG Export Plug-In . SVG Version: 6.00 Build 0)  -->
<svg version="1.1" id="Calque_1" xmlns="http://www.w3.org/2000/svg" xmlns:xlink="http://www.w3.org/1999/xlink" x="0px" y="0px"
	 viewBox="0 0 688.2 195.6" style="enable-background:new 0 0 688.2 195.6;" xml:space="preserve">
<style type="text/css">
	.st0{fill:#00ADAD;}
	.st1{fill:#DC405A;}
	.st2{fill:#902B4C;}
	.st3{fill:#FFFFFF;}
</style>
<g id="logo">
	<g>
		<g>
			<path class="st0" d="M203,121.8h18.8v5.9h-12v7.6h11.8v5.9h-11.9v8.1h12v5.9h-18.8v-33.4H203z"/>
			<path class="st0" d="M248.5,145l-0.1-23.2h6.5v33.5h-6l-15.4-23.2l0.1,23.2h-6.5v-33.5h6L248.5,145z"/>
			<path class="st0" d="M284.8,121.8c5.7,0,7.9,0.8,9.9,2.3c2.4,2,3.8,5.2,3.8,8.5s-1.4,6.7-3.5,8.5c-2.3,1.9-4.5,2.7-9.4,2.7h-4.1
				v11.5h-6.8v-33.5H284.8z M281.5,137.9h4c1.5,0,3-0.1,4.4-0.9c1.2-0.6,2.2-2.1,2.2-4.3c0-2.1-1-3.5-2.3-4.2
				c-1.4-0.7-2.9-0.9-4.6-0.9h-3.7V137.9z"/>
			<path class="st0" d="M302.8,155.3h-7.3l13.6-33.5h5.9l13.3,33.5h-7.4l-2.4-6.6h-13.2L302.8,155.3z M311.7,129.8l-4.7,13.6h9.6
				L311.7,129.8z"/>
			<path class="st0" d="M334.9,143.3l-10.2-21.5h7.3l6.3,15.2l6.4-15.2h7.2l-10.2,21.5v12H335L334.9,143.3L334.9,143.3z"/>
			<path class="st0" d="M359.2,144.9c0.2,4.5,3.3,5.4,4.7,5.4c2.6,0,4.6-2.1,4.6-4.4c0-2.8-2.4-3.6-7.1-5.4c-2.5-0.9-8.4-3-8.4-9.3
				c0-6.4,5.7-9.9,11.1-9.9c4.4,0,10.3,2.4,10.6,9.8h-6.6c-0.3-1.5-0.9-4.1-4.2-4.1c-2.2,0-4.1,1.5-4.1,3.8c0,2.5,1.8,3.1,7.4,5.5
				c5.1,2.2,8,4.7,8,9.4c0,5.4-3.3,10.4-11.2,10.4c-7.6,0-11.5-4.6-11.5-11h6.7V144.9z"/>
			<path class="st0" d="M393.2,121.8h10.6c4.2,0,10.2,0.4,14.2,5.8c2.4,3.1,3.4,6.8,3.4,10.9c0,9.5-5,16.8-17.1,16.8h-11.1V121.8z
				 M400,149.4h4.7c7.2,0,10-4.7,10-10.8c0-2.6-0.7-5.4-2.3-7.5c-1.4-1.8-3.7-3.3-7.7-3.3h-4.8L400,149.4L400,149.4z"/>
			<path class="st0" d="M426.3,121.8h18.8v5.9h-12v7.6h11.8v5.9h-11.8v8.1h12v5.9h-18.8V121.8z"/>
			<path class="st0" d="M464.2,121.8h6.7v27.5h11v5.9h-17.7V121.8z"/>
			<path class="st0" d="M489.9,155.3h-7.3l13.6-33.5h5.9l13.3,33.5H508l-2.4-6.6h-13.2L489.9,155.3z M498.8,129.8l-4.7,13.6h9.6
				L498.8,129.8z"/>
			<path class="st0" d="M532.6,121.8h6.7v27.5h11v5.9h-17.7V121.8z"/>
			<path class="st0" d="M550.3,138.8c0-10.7,8.2-17.6,17.5-17.6c10.1,0,17.6,7.9,17.6,17.4S578,156,567.8,156
				C557.5,155.9,550.3,147.8,550.3,138.8L550.3,138.8z M557,138.6c0,6.1,4.4,11.4,10.9,11.4c6.8,0,10.8-5.9,10.8-11.4
				c0-5.6-4-11.5-10.8-11.5C561.2,127.1,557,132.6,557,138.6L557,138.6z"/>
			<path class="st0" d="M590.3,121.8h6.7v33.5h-6.7V121.8z"/>
			<path class="st0" d="M603.2,121.8h10.1c5.2,0,8.2,0.8,10,2.1c2.8,2,4.3,5.4,4.3,9.1c0,2.4-0.7,4.6-1.8,6.2
				c-1.4,2.1-3.4,3.1-5.5,3.6l7.5,12.4h-7.1l-9-15.6h1.3c2.2,0,4.6-0.1,6-1.2c1.3-1.1,2.1-2.9,2.1-4.9s-1-3.9-2.5-4.8
				c-1.2-0.8-2.8-1-4.7-1H610v27.5h-6.7L603.2,121.8L603.2,121.8z"/>
			<path class="st0" d="M631.7,121.8h18.8v5.9h-12v7.6h11.8v5.9h-11.8v8.1h12v5.9h-18.8V121.8z"/>
		</g>
	</g>
	<g>
		<g>
			<path class="st1" d="M186.1,51.5h16.8v6.4c2.1-2.9,5.9-8.5,16.6-8.5c20.3,0,22.4,16.5,22.4,24.6v37.7h-18V78.8
				c0-6.6-1.4-12.5-9.4-12.5c-8.9,0-10.3,6.4-10.3,12.6v32.8h-18L186.1,51.5L186.1,51.5z"/>
			<path class="st1" d="M255.1,65.1h-8.9V51.5h8.9V31.4h18v20.1h8.7v13.7h-8.7v46.6h-18V65.1z"/>
			<path class="st1" d="M286.2,51.5h16.9v6.7c1.7-3.3,4.9-8.8,15.3-8.8v18.1h-0.7c-9.2,0-13.6,3.4-13.6,11.8v32.4h-18V51.5H286.2z"
				/>
			<path class="st1" d="M335.6,87.8c0.8,6.4,6.8,10.6,13.9,10.6c5.8,0,8.8-2.5,11-5.6H379c-2.9,6.7-7.2,11.9-12.3,15.4
				c-5,3.6-11,5.4-17.2,5.4c-17.3,0-31.9-14-31.9-31.9c0-16.8,13.2-32.4,31.6-32.4c9.2,0,17.2,3.6,22.8,9.6
				c7.6,8.1,9.9,17.8,8.5,28.9L335.6,87.8L335.6,87.8z M362.8,74.2c-0.4-2.8-4.1-9.6-13.5-9.6s-13,6.7-13.5,9.6H362.8z"/>
			<path class="st1" d="M387.7,51.5h17v6.6c3.9-4.6,9.9-8.7,19.1-8.7c21.4,0,29.4,18.8,29.4,32.8c0,17.4-12.2,31.6-29.3,31.6
				c-10.9,0-16-5.2-18.1-7.5v5.4v20.1h-18V51.5H387.7z M435.2,81.5c0-7.1-5.2-15.3-15.1-15.3c-4.3,0-8.1,1.7-10.9,4.6
				c-2.6,2.7-4.2,6.6-4.2,11c0,4.2,1.6,8,4.3,10.7c2.7,2.7,6.5,4.5,10.7,4.5c9.4,0,15.1-7.7,15.1-15.3v-0.2H435.2z"/>
			<path class="st1" d="M460,51.5h16.9v6.7c1.7-3.3,4.9-8.8,15.3-8.8v18.1h-0.6c-9.2,0-13.6,3.4-13.6,11.8v32.4h-18L460,51.5
				L460,51.5z"/>
			<path class="st1" d="M497.4,31.4h18v13.7h-18V31.4z M497.4,51.5h18v60.3h-18V51.5z"/>
			<path class="st1" d="M550.8,68.4c-0.1-1.3-0.3-4.6-5.6-4.6c-3.8,0-5.1,2.4-5.1,4c0,2.7,4.5,4.6,9.2,6
				c10.2,2.8,21.1,5.9,21.1,18.9c0,13.2-11.2,21.1-24.5,21.1c-9.1,0-22.9-4.1-24.5-20h17.9c0.8,5.5,6.1,5.5,6.8,5.5
				c3,0,6.3-1.7,6.3-4.7c0-4.1-4.5-4.7-16-9.1c-7.8-2.5-14.3-7.6-14.3-15.7c0-12.5,10.9-20.4,23.3-20.4c7.9,0,21.6,3.1,23.1,19
				C568.5,68.4,550.8,68.4,550.8,68.4z"/>
			<path class="st1" d="M590.9,87.8c0.8,6.4,6.8,10.6,13.9,10.6c5.8,0,8.8-2.5,11-5.6h18.5c-2.9,6.7-7.2,11.9-12.3,15.4
				c-5,3.6-11,5.4-17.2,5.4c-17.3,0-31.9-14-31.9-31.9c0-16.8,13.2-32.4,31.6-32.4c9.2,0,17.2,3.6,22.8,9.6
				c7.6,8.1,9.9,17.8,8.5,28.9L590.9,87.8L590.9,87.8z M618,74.2c-0.4-2.8-4.1-9.6-13.5-9.6c-9.3,0-13,6.7-13.5,9.6H618z"/>
			<path class="st1" d="M668.6,68.4c-0.1-1.3-0.3-4.6-5.6-4.6c-3.8,0-5.1,2.4-5.1,4c0,2.7,4.4,4.6,9.2,6
				c10.2,2.8,21.1,5.9,21.1,18.9c0,13.2-11.2,21.1-24.5,21.1c-9.1,0-22.9-4.1-24.5-20h17.9c0.8,5.5,6.1,5.5,6.8,5.5
				c3,0,6.3-1.7,6.3-4.7c0-4.1-4.4-4.7-16-9.1c-7.8-2.5-14.3-7.6-14.3-15.7c0-12.5,10.9-20.4,23.3-20.4c7.9,0,21.6,3.1,23.1,19
				C686.3,68.4,668.6,68.4,668.6,68.4z"/>
		</g>
	</g>
	<g>
		<path class="st1" d="M195.6,97.8c0,54-43.8,97.8-97.8,97.8S0,151.8,0,97.8S43.8,0,97.8,0C151.8,0,195.6,43.8,195.6,97.8z"/>
		<path class="st2" d="M98,55.8c-22.6,0-34.9,16.3-36.1,28.9h72.4C133.1,72.5,120.3,55.5,98,55.8z"/>
		<path class="st2" d="M195.4,103l-50-53.5c15.6,16.1,21.4,36.1,18.8,58.4H61.4c1.4,20.5,19.6,31.9,37,31.7
			c14.9,0,24.9-6.8,30.7-17.2h31.4c-6.1,14.2-15.1,24.9-25.8,32.1c-10.7,7.5-23.3,11.2-36.6,11.2c-16.2,0-30.4-5.4-41.6-14.3v0.3
			l43.8,43.8C151.5,194.2,192.8,153.7,195.4,103z"/>
		<g>
			<path class="st3" d="M61.4,107.9c1.4,20.5,19.6,31.9,37,31.7c14.9,0,24.9-6.8,30.7-17.2h31.4c-6.1,14.2-15.1,24.9-25.8,32.1
				c-10.7,7.5-23.3,11.2-36.6,11.2c-39.3,0-67.5-31.9-67.5-67.5C30.6,61.9,59,30,97.7,30c19.1,0,35.8,7.2,47.7,19.6
				c15.6,16.1,21.4,36.1,18.8,58.4L61.4,107.9L61.4,107.9z M134.3,84.6c-1.2-12.1-14-29.1-36.3-28.9c-22.6,0-34.9,16.3-36.1,28.9
				H134.3z"/>
		</g>
	</g>
</g>
</svg>
