<svg id="Groupe_1230" data-name="Groupe 1230" xmlns="http://www.w3.org/2000/svg" xmlns:xlink="http://www.w3.org/1999/xlink" width="199.37" height="75" viewBox="0 0 199.37 75">
  <defs>
    <clipPath id="clip-path">
      <rect id="Rectangle_508" data-name="Rectangle 508" width="199.37" height="75" fill="none"/>
    </clipPath>
  </defs>
  <g id="Groupe_1229" data-name="Groupe 1229" clip-path="url(#clip-path)">
    <path id="Tracé_10484" data-name="Tracé 10484" d="M44.515,31.888a5.352,5.352,0,1,0-5.352-5.352,5.351,5.351,0,0,0,5.352,5.352" transform="translate(-10.444 -5.649)" fill="#e30613"/>
    <path id="Tracé_10485" data-name="Tracé 10485" d="M69.285,29.474a3.118,3.118,0,0,0-3.912-2.036L41.49,34.968,57.812,15.516a3.118,3.118,0,0,0-4.777-4.009L34.342,33.786,15.735,11.611a3.118,3.118,0,1,0-4.777,4.009L27.137,34.9,4.109,27.2A3.118,3.118,0,1,0,2.13,33.109L31.7,43a3.1,3.1,0,0,0,3.091-.672,3.105,3.105,0,0,0,2.72.431l29.738-9.376a3.119,3.119,0,0,0,2.036-3.912" transform="translate(0 -2.772)" fill="#efd000"/>
    <path id="Tracé_10486" data-name="Tracé 10486" d="M66.112,21.086a3.119,3.119,0,0,0-4.279-1.067L35.324,35.948a3.228,3.228,0,0,0-.331.04,3.1,3.1,0,0,0-.561-.422l-27-15.59a3.118,3.118,0,1,0-3.118,5.4L31.3,40.959,21.608,71.7a3.118,3.118,0,0,0,5.948,1.875L34.894,50.3,40.5,73.667a3.118,3.118,0,0,0,6.064-1.456l-7.5-31.239L65.045,25.365a3.118,3.118,0,0,0,1.067-4.279" transform="translate(-0.734 -5.216)" fill="#e30613"/>
    <path id="Tracé_10487" data-name="Tracé 10487" d="M155.849,33.233l-1.267,3.626h2.534Z" transform="translate(-41.223 -8.862)" fill="#c61618"/>
    <path id="Tracé_10488" data-name="Tracé 10488" d="M222.478,65.42a1.52,1.52,0,0,0-1.082-.387,1.705,1.705,0,0,0-1.091.334,1.662,1.662,0,0,0-.563,1h3.186a1.376,1.376,0,0,0-.449-.95" transform="translate(-58.6 -17.343)" fill="#c61618"/>
    <path id="Tracé_10489" data-name="Tracé 10489" d="M125.682,61.265a3.185,3.185,0,0,0-2.429,1.012,3.937,3.937,0,0,0,0,5.13,3.2,3.2,0,0,0,2.429,1,3.165,3.165,0,0,0,2.411-1.012,3.925,3.925,0,0,0,0-5.122,3.165,3.165,0,0,0-2.411-1.012" transform="translate(-32.615 -16.338)" fill="#c61618"/>
    <path id="Tracé_10490" data-name="Tracé 10490" d="M202.365,34.6a1.267,1.267,0,0,0,.334-.924,1.19,1.19,0,0,0-.334-.88,1.237,1.237,0,0,0-.915-.334h-1.2v2.482h1.2a1.219,1.219,0,0,0,.915-.343" transform="translate(-53.403 -8.658)" fill="#c61618"/>
    <path id="Tracé_10491" data-name="Tracé 10491" d="M184.619,70.021a.63.63,0,0,0-.229.519.66.66,0,0,0,.246.537.994.994,0,0,0,.651.2,2.236,2.236,0,0,0,1.03-.229,2.117,2.117,0,0,0,.783-.722v-.88l-1.742.3a1.637,1.637,0,0,0-.739.273" transform="translate(-49.172 -18.52)" fill="#c61618"/>
    <path id="Tracé_10492" data-name="Tracé 10492" d="M181.76,0H74.588a42.236,42.236,0,0,1,0,75H181.76a37.5,37.5,0,1,0,0-75M163.608,21.22h4.136a5.236,5.236,0,0,1,3.423,1.021,3.448,3.448,0,0,1,1.241,2.816,3.7,3.7,0,0,1-.5,1.954,3.477,3.477,0,0,1-1.434,1.3l3.766,5.227h-3.661l-3.1-4.664h-.739V33.54h-3.133Zm-31.133,0h4.083l4.47,12.32H137.7l-1-2.9h-4.365l-1,2.9H128Zm-13.745,0h7.6v2.587h-4.47v2.165h3.766v2.587h-3.766v2.394h4.47V33.54h-7.6Zm-12.53,0h10.313v2.834h-3.59V33.54H109.79V24.054H106.2Zm11.466,31.908a6.838,6.838,0,0,1-9.425,0,6.63,6.63,0,0,1,0-9.257,6.838,6.838,0,0,1,9.425,0,6.652,6.652,0,0,1,0,9.257m6.609-1.338a1.934,1.934,0,0,0,1.478.6,1.9,1.9,0,0,0,.906-.22,1.944,1.944,0,0,0,.678-.59l2.182,1.654a4.3,4.3,0,0,1-1.628,1.32,5.021,5.021,0,0,1-2.156.458,4.852,4.852,0,0,1-3.564-1.346,5.022,5.022,0,0,1,0-6.882,4.852,4.852,0,0,1,3.564-1.346,5.021,5.021,0,0,1,2.156.458,4.3,4.3,0,0,1,1.628,1.32l-2.182,1.654a1.781,1.781,0,0,0-.686-.6,2.1,2.1,0,0,0-.95-.211,1.852,1.852,0,0,0-1.434.607,2.221,2.221,0,0,0-.554,1.558,2.189,2.189,0,0,0,.563,1.566m9.2,0a1.936,1.936,0,0,0,1.478.6,1.9,1.9,0,0,0,.906-.22,1.944,1.944,0,0,0,.678-.59l2.182,1.654a4.293,4.293,0,0,1-1.628,1.32,5.021,5.021,0,0,1-2.156.458,4.852,4.852,0,0,1-3.564-1.346,5.022,5.022,0,0,1,0-6.882,4.852,4.852,0,0,1,3.564-1.346,5.021,5.021,0,0,1,2.156.458,4.293,4.293,0,0,1,1.628,1.32l-2.182,1.654a1.781,1.781,0,0,0-.686-.6,2.1,2.1,0,0,0-.95-.211,1.852,1.852,0,0,0-1.434.607,2.22,2.22,0,0,0-.554,1.558,2.189,2.189,0,0,0,.563,1.566m9.416,2.869h-2.8v-8.87h2.8Zm-.15-10.366a1.661,1.661,0,0,1-1.223.528,1.8,1.8,0,0,1-1.778-1.778,1.679,1.679,0,0,1,.528-1.241,1.721,1.721,0,0,1,1.25-.519,1.661,1.661,0,0,1,1.223.528,1.705,1.705,0,0,1,.519,1.232,1.725,1.725,0,0,1-.519,1.25m8.315,10.225a3.724,3.724,0,0,1-.81.238,5.938,5.938,0,0,1-1.038.079,3.329,3.329,0,0,1-2.543-.924,3.8,3.8,0,0,1-.871-2.7V48.289h-1.654v-2.5H145.8V43.572h2.816v2.218h2.429v2.5h-2.429V51.21a1.1,1.1,0,0,0,.282.81,1.121,1.121,0,0,0,.827.282,4.887,4.887,0,0,0,.757-.053,3.244,3.244,0,0,0,.581-.141Zm-.845-25.2h-2.13l-2.112-3.7v7.92h-3.133V21.22h3.872l2.429,4.4,2.446-4.4h3.872V33.54h-3.133V25.62ZM160.6,54.66h-2.781v-.669a2.572,2.572,0,0,1-1.03.669,3.822,3.822,0,0,1-1.4.264,3.188,3.188,0,0,1-2.209-.748,2.569,2.569,0,0,1-.836-2.015,2.3,2.3,0,0,1,.783-1.769,4.175,4.175,0,0,1,2.191-.942l2.5-.422a1.093,1.093,0,0,0-.422-.854,1.549,1.549,0,0,0-1-.326,1.963,1.963,0,0,0-.95.229,2.1,2.1,0,0,0-.739.7l-2.042-1.549a4.058,4.058,0,0,1,1.61-1.329,5.137,5.137,0,0,1,2.209-.466,4.335,4.335,0,0,1,3.018.994,3.376,3.376,0,0,1,1.1,2.631Zm10.789,0h-2.816V49.573a1.607,1.607,0,0,0-.361-1.109,1.285,1.285,0,0,0-1.012-.4,1.617,1.617,0,0,0-.871.246,2.29,2.29,0,0,0-.73.827V54.66h-2.8v-8.87h2.8v.493a3.223,3.223,0,0,1,1.118-.66,4.015,4.015,0,0,1,1.241-.185,3.15,3.15,0,0,1,2.49,1.074,4.3,4.3,0,0,1,.942,2.939Zm5,0h-2.8v-8.87h2.8Zm-.15-10.366a1.661,1.661,0,0,1-1.223.528,1.8,1.8,0,0,1-1.778-1.778,1.679,1.679,0,0,1,.528-1.241,1.721,1.721,0,0,1,1.25-.519,1.661,1.661,0,0,1,1.223.528,1.705,1.705,0,0,1,.519,1.232,1.725,1.725,0,0,1-.519,1.25m9.16,10.261a5.489,5.489,0,0,1-2.27.458,4.955,4.955,0,0,1-3.626-1.329,4.629,4.629,0,0,1-1.355-3.458,4.831,4.831,0,0,1,1.258-3.45,4.386,4.386,0,0,1,3.353-1.338,4.135,4.135,0,0,1,3.018,1.126,3.948,3.948,0,0,1,1.153,2.957A6.719,6.719,0,0,1,186.752,51h-5.738a1.778,1.778,0,0,0,.66,1.153,2.432,2.432,0,0,0,1.434.361,2.846,2.846,0,0,0,1.144-.229,2.194,2.194,0,0,0,.845-.616l1.971,1.566a4.218,4.218,0,0,1-1.672,1.32M187.28,33.54h-3.133V28.683h-5.262V33.54h-3.133V21.22h3.133v4.629h5.262V21.22h3.133Z" transform="translate(-19.891)" fill="#c61618"/>
  </g>
</svg>
