<svg xmlns="http://www.w3.org/2000/svg" width="113" height="54" fill="none" viewBox="0 0 113 54"><path fill="#122f62" d="M101.169 11.399q3.027 0 5.345 1.23 2.364 1.182 3.689 3.689 1.371 2.46 1.371 6.337v14.568h-7.378V23.791q0-3.075-1.277-4.541t-3.595-1.466q-1.607 0-2.885.757-1.276.71-1.986 2.175-.71 1.467-.71 3.737v12.77h-7.378V23.791q0-3.075-1.277-4.541-1.23-1.466-3.547-1.466-1.608 0-2.885.757-1.278.71-1.987 2.175-.71 1.467-.71 3.737c-.283 9.838-3.83 13.385-9.743 13.385v-9.46c2.204.25 2.779-3.084 2.365-16.6h7.047v6.952l-1.324-2.034q1.325-2.601 3.737-3.926Q80.5 11.4 83.62 11.4q3.501 0 6.102 1.797 2.65 1.75 3.5 5.392l-2.601-.71q1.277-2.98 4.067-4.73 2.838-1.75 6.48-1.75"/><path fill="#bc2e67" d="M50.94 11.399q3.026 0 5.391 1.23 2.412 1.182 3.784 3.689 1.372 2.46 1.372 6.337c0 5.723 2.364 5.723 2.364 5.723v9.46s-9.743-2.365-9.743-14.047c0 0-.457-3.564-1.371-4.541q-1.325-1.466-3.784-1.466-1.75 0-3.169.757-1.372.709-2.176 2.223-.756 1.513-.756 3.878v12.581h-7.379V2.128h7.379v16.696l-1.656-2.128a9.43 9.43 0 0 1 3.926-3.926q2.554-1.371 5.817-1.371"/><path fill="#bc2e67" fill-rule="evenodd" d="M22.182 11.777v25.446h7.379V11.777z" clip-rule="evenodd"/><path fill="#bc2e67" d="M25.872 8.23q-2.034 0-3.311-1.183-1.277-1.182-1.277-2.932t1.277-2.933T25.87 0t3.311 1.135q1.278 1.088 1.277 2.838 0 1.845-1.277 3.074-1.23 1.183-3.31 1.183M13.432 37.601q-4.492 0-7-2.27-2.505-2.318-2.506-6.858V6.149h7.378v22.23q0 1.608.851 2.506.851.852 2.318.851 1.75 0 2.98-.945l1.986 5.202q-1.135.804-2.743 1.23-1.56.378-3.264.378M0 18.021v-5.676h17.642v5.675z"/><path fill="#565656" d="M6.324 48.918v.92H2.06v-.92zm-4.043-7.611v8.53h-1.13v-8.53zm7.805 8.648q-.662 0-1.201-.223a2.7 2.7 0 0 1-.92-.638 2.8 2.8 0 0 1-.586-.973 3.6 3.6 0 0 1-.205-1.23v-.246q0-.774.228-1.377.23-.61.621-1.032a2.7 2.7 0 0 1 .891-.638 2.6 2.6 0 0 1 1.031-.217q.68 0 1.172.234.498.235.815.657.316.416.468.984.153.563.153 1.23v.487H7.818v-.885h3.65v-.082a2.7 2.7 0 0 0-.175-.82 1.5 1.5 0 0 0-.469-.657q-.322-.258-.879-.258a1.48 1.48 0 0 0-1.213.616 2.3 2.3 0 0 0-.345.744q-.123.439-.123 1.014v.246q0 .45.123.85.129.392.369.69.246.3.592.47.351.17.797.17.574 0 .972-.235a2.4 2.4 0 0 0 .697-.627l.657.521q-.205.312-.522.592-.315.282-.78.457a3 3 0 0 1-1.083.176m7.787-5.197v5.08h-1.09v-6.34h1.031zm-.223 1.67-.503-.018a4.3 4.3 0 0 1 .17-1.201q.163-.556.486-.967t.802-.633q.48-.228 1.114-.228.445 0 .82.129.375.123.65.392.276.27.428.692.153.42.152 1.02v4.224h-1.083v-4.172q0-.498-.17-.797a.97.97 0 0 0-.47-.434 1.7 1.7 0 0 0-.714-.14q-.48 0-.803.17-.322.17-.515.469-.194.298-.282.685a4 4 0 0 0-.082.809m4.108-.598-.727.223q.005-.522.17-1.002.17-.48.486-.856.323-.375.791-.592.469-.222 1.073-.222.51 0 .902.135.398.134.668.416.276.275.416.709t.14 1.03v4.167h-1.09V45.66q0-.532-.169-.826a.9.9 0 0 0-.469-.416 1.9 1.9 0 0 0-.715-.123q-.357 0-.632.123a1.3 1.3 0 0 0-.463.34q-.188.21-.287.486a1.8 1.8 0 0 0-.094.586m8.191 4.125q-.662 0-1.201-.223a2.7 2.7 0 0 1-.92-.638 2.8 2.8 0 0 1-.586-.973 3.6 3.6 0 0 1-.205-1.23v-.246q0-.774.229-1.377.228-.61.62-1.032a2.7 2.7 0 0 1 .891-.638 2.6 2.6 0 0 1 1.032-.217q.68 0 1.171.234.498.235.815.657.316.416.469.984a4.7 4.7 0 0 1 .152 1.23v.487h-4.734v-.885h3.65v-.082a2.7 2.7 0 0 0-.176-.82 1.5 1.5 0 0 0-.468-.657q-.322-.258-.88-.258a1.48 1.48 0 0 0-1.212.616 2.3 2.3 0 0 0-.346.744q-.123.439-.123 1.014v.246q0 .45.123.85.129.392.37.69.245.3.59.47.352.17.798.17.574 0 .973-.235.397-.234.697-.627l.656.521q-.205.312-.522.592-.315.282-.779.457a3 3 0 0 1-1.084.176m7.424-1.799q0-.234-.105-.433-.1-.205-.416-.37-.31-.169-.938-.293a7 7 0 0 1-.955-.263 3 3 0 0 1-.72-.37 1.55 1.55 0 0 1-.452-.509 1.4 1.4 0 0 1-.158-.686q0-.375.164-.709.17-.334.475-.591a2.3 2.3 0 0 1 .744-.405 3 3 0 0 1 .966-.146q.762 0 1.301.27.54.27.826.72.288.446.288.99h-1.084a.93.93 0 0 0-.159-.51 1.17 1.17 0 0 0-.45-.416 1.46 1.46 0 0 0-.722-.163q-.45 0-.732.14a.94.94 0 0 0-.404.346.87.87 0 0 0-.065.761q.064.135.223.253.158.111.445.21.288.1.733.2.78.176 1.283.421.504.247.75.604t.246.867q0 .417-.176.762-.17.346-.498.598a2.5 2.5 0 0 1-.773.386q-.445.135-1.002.135-.838 0-1.418-.299t-.88-.773a1.85 1.85 0 0 1-.298-1.002h1.09q.023.445.258.709.234.258.574.369.34.105.674.105.445 0 .744-.117.304-.117.463-.322a.75.75 0 0 0 .158-.469m6.2 0q0-.234-.106-.433-.1-.205-.416-.37-.31-.169-.938-.293a7 7 0 0 1-.955-.263 3 3 0 0 1-.72-.37 1.55 1.55 0 0 1-.452-.509 1.4 1.4 0 0 1-.158-.686q0-.375.164-.709.17-.334.475-.591a2.3 2.3 0 0 1 .744-.405 3 3 0 0 1 .967-.146q.762 0 1.3.27.54.27.827.72.287.446.287.99h-1.084a.93.93 0 0 0-.158-.51 1.17 1.17 0 0 0-.452-.416 1.46 1.46 0 0 0-.72-.163q-.451 0-.733.14a.94.94 0 0 0-.404.346.87.87 0 0 0-.064.761q.065.135.222.253.158.111.446.21.286.1.732.2.78.176 1.283.421.504.247.75.604t.246.867q0 .417-.175.762-.17.346-.499.598a2.5 2.5 0 0 1-.773.386q-.445.135-1.002.135-.838 0-1.418-.299t-.879-.773a1.85 1.85 0 0 1-.299-1.002h1.09q.024.445.258.709.234.258.574.369.34.105.674.105.446 0 .744-.117.305-.117.463-.322a.75.75 0 0 0 .158-.469m6.245.598V45.49q0-.375-.152-.65a1 1 0 0 0-.445-.434 1.6 1.6 0 0 0-.739-.152q-.41 0-.72.14a1.25 1.25 0 0 0-.48.37.8.8 0 0 0-.17.492h-1.085q0-.34.176-.674.175-.334.504-.604a2.5 2.5 0 0 1 .797-.433 3.1 3.1 0 0 1 1.043-.164q.69 0 1.219.234.532.235.832.71.304.468.304 1.177v2.953q0 .317.053.674.06.357.17.615v.094h-1.13a2 2 0 0 1-.13-.498 4 4 0 0 1-.047-.586m.188-2.76.012.762h-1.096q-.463 0-.826.076-.363.071-.61.217-.246.146-.375.369a1 1 0 0 0-.129.51q0 .298.135.545a1 1 0 0 0 .405.392q.275.14.673.14.498 0 .88-.21.38-.21.603-.516.228-.304.246-.592l.463.522a1.6 1.6 0 0 1-.223.545q-.181.299-.486.574-.3.27-.715.451a2.3 2.3 0 0 1-.926.176q-.645 0-1.13-.252a1.93 1.93 0 0 1-.75-.674 1.8 1.8 0 0 1-.264-.955q0-.51.199-.896.2-.393.574-.65.374-.264.902-.4.528-.134 1.178-.134zm6.709-2.496h.984v6.205q0 .838-.34 1.43a2.2 2.2 0 0 1-.949.896q-.603.31-1.394.31-.33 0-.774-.105a3.1 3.1 0 0 1-.867-.345 2.2 2.2 0 0 1-.709-.65l.568-.645q.399.48.832.668.44.187.868.187.515 0 .89-.193.376-.193.58-.574.21-.375.211-.926v-4.863zm-4.365 3.24v-.123q0-.727.17-1.318.175-.598.498-1.025a2.24 2.24 0 0 1 1.834-.891q.597 0 1.043.21.45.206.761.604.317.392.498.95.181.555.252 1.26v.538a5.5 5.5 0 0 1-.252 1.254 3 3 0 0 1-.498.95q-.31.392-.761.603-.452.205-1.055.205-.57 0-1.031-.24a2.35 2.35 0 0 1-.786-.674 3.2 3.2 0 0 1-.504-1.02 4.6 4.6 0 0 1-.17-1.283m1.084-.123v.123q0 .476.093.89.1.417.3.733.205.317.52.498.317.177.756.176.54 0 .891-.228.351-.23.557-.604.21-.375.328-.814v-1.412a3 3 0 0 0-.2-.621 1.9 1.9 0 0 0-.34-.54 1.5 1.5 0 0 0-.509-.38 1.7 1.7 0 0 0-.715-.141 1.5 1.5 0 0 0-.767.187q-.317.182-.522.504a2.4 2.4 0 0 0-.299.739 4 4 0 0 0-.093.89m8.543 3.34q-.663 0-1.202-.223a2.7 2.7 0 0 1-.92-.638 2.8 2.8 0 0 1-.585-.973 3.6 3.6 0 0 1-.206-1.23v-.246q0-.774.229-1.377.229-.61.621-1.032a2.7 2.7 0 0 1 .89-.638 2.6 2.6 0 0 1 1.032-.217q.68 0 1.172.234.498.235.814.657.316.416.469.984.153.563.152 1.23v.487H59.71v-.885h3.65v-.082a2.7 2.7 0 0 0-.175-.82 1.5 1.5 0 0 0-.47-.657q-.321-.258-.878-.258a1.48 1.48 0 0 0-1.213.616 2.3 2.3 0 0 0-.346.744q-.123.439-.123 1.014v.246q0 .45.123.85.13.392.37.69.244.3.591.47.352.17.797.17.574 0 .973-.235.398-.234.697-.627l.656.521q-.204.312-.521.592-.316.282-.78.457-.457.176-1.083.176m4.816-5.46v5.343H65.71v-6.34h1.055zm1.98-1.032-.005 1.008a1.6 1.6 0 0 0-.258-.035 3 3 0 0 0-.27-.012q-.374 0-.662.117a1.4 1.4 0 0 0-.486.328 1.6 1.6 0 0 0-.317.504 2.4 2.4 0 0 0-.146.633l-.305.176q0-.574.112-1.079.117-.503.357-.89a1.75 1.75 0 0 1 .61-.61 1.7 1.7 0 0 1 1.16-.193.8.8 0 0 1 .21.053m7.975 5.144v-7.77h1.09v9h-.996zm-4.266-1.869v-.123q0-.727.176-1.318a3.2 3.2 0 0 1 .51-1.025q.334-.428.791-.657a2.25 2.25 0 0 1 1.031-.234q.598 0 1.043.21.452.206.762.604.316.392.498.95.181.555.252 1.26v.538a5.5 5.5 0 0 1-.252 1.254 3 3 0 0 1-.498.95q-.31.392-.762.603-.45.205-1.055.205-.555 0-1.019-.24a2.4 2.4 0 0 1-.791-.674 3.3 3.3 0 0 1-.51-1.02 4.5 4.5 0 0 1-.176-1.283m1.09-.123v.123q0 .476.094.89.1.417.305.733.204.317.521.498.316.177.756.176.54 0 .885-.228.351-.23.562-.604.21-.375.328-.814v-1.412a3 3 0 0 0-.205-.621 1.9 1.9 0 0 0-.34-.54 1.5 1.5 0 0 0-.51-.38q-.299-.141-.708-.141a1.5 1.5 0 0 0-.768.187q-.316.182-.521.504a2.3 2.3 0 0 0-.305.739 4 4 0 0 0-.094.89m8.584 3.34q-.662 0-1.2-.223a2.7 2.7 0 0 1-.92-.638 2.8 2.8 0 0 1-.587-.973 3.6 3.6 0 0 1-.205-1.23v-.246q0-.774.229-1.377.228-.61.62-1.032a2.7 2.7 0 0 1 .891-.638 2.6 2.6 0 0 1 1.032-.217q.68 0 1.171.234.498.235.815.657.316.416.469.984.152.563.152 1.23v.487H79.89v-.885h3.65v-.082a2.7 2.7 0 0 0-.176-.82 1.5 1.5 0 0 0-.469-.657q-.321-.258-.878-.258a1.48 1.48 0 0 0-1.213.616 2.3 2.3 0 0 0-.346.744q-.123.439-.123 1.014v.246q0 .45.123.85.129.392.37.69.245.3.591.47.351.17.797.17.575 0 .972-.235a2.4 2.4 0 0 0 .698-.627l.656.521q-.205.312-.522.592-.315.282-.779.457a3 3 0 0 1-1.084.176m7.424-1.799q0-.234-.105-.433-.1-.205-.416-.37-.31-.169-.938-.293a7 7 0 0 1-.955-.263 3 3 0 0 1-.72-.37 1.55 1.55 0 0 1-.452-.509 1.4 1.4 0 0 1-.158-.686q0-.375.164-.709.17-.334.475-.591a2.3 2.3 0 0 1 .744-.405 3 3 0 0 1 .967-.146q.761 0 1.3.27.54.27.826.72.288.446.288.99h-1.084a.93.93 0 0 0-.159-.51 1.17 1.17 0 0 0-.45-.416 1.46 1.46 0 0 0-.721-.163q-.451 0-.733.14a.94.94 0 0 0-.404.346.87.87 0 0 0-.065.761q.065.135.223.253.159.111.445.21.288.1.733.2.78.176 1.283.421.504.247.75.604t.246.867q0 .417-.176.762-.17.346-.498.598a2.5 2.5 0 0 1-.773.386q-.446.135-1.002.135-.838 0-1.418-.299t-.879-.773a1.85 1.85 0 0 1-.299-1.002h1.09q.024.445.258.709.234.258.574.369.34.105.674.105.446 0 .744-.117.304-.117.463-.322a.75.75 0 0 0 .158-.469m8.567-6.85v8.532h-1.114v-8.531zm2.742 0v.926h-6.592v-.925zm2.478 0v8.532h-1.131v-8.531zm7.629 3.669v.92h-4.617v-.92zm-4.441-3.668v8.53h-1.131v-8.53zm5.425 0v8.53h-1.125v-8.53z"/></svg>