<svg xmlns="http://www.w3.org/2000/svg" width="96" height="96" viewBox="0 0 96 115.2"><g fill="none" fill-rule="evenodd"><path d="M0 11.2h96v96H0z"/><path d="M17 36.2h63" stroke="#f8f8f8" stroke-width="2" stroke-linecap="round" stroke-linejoin="round"/><path d="M22.423 32.229a1.5 1.5 0 1 1-3.001-.001 1.5 1.5 0 0 1 3 0m5.001.001a1.5 1.5 0 1 1-3.001-.001 1.5 1.5 0 0 1 3 0m5.001.001a1.5 1.5 0 1 1-3.001-.001 1.5 1.5 0 0 1 3 0" fill="#fff"/><path d="M68.433 71.447h-39.87m39.87 8.073h-39.87M51.49 63.375H28.564m50.833 23.208V47.23c0-1.672-1.837-3.027-3.489-3.027H19.095c-1.652 0-2.492 1.355-2.492 3.027v39.353" stroke="#006be6" stroke-width="2.006" stroke-linecap="round" stroke-linejoin="round"/><path d="M94.985 97.68a3.917 3.928 0 0 1-3.912 3.933H4.91A3.913 3.924 0 0 1 1 97.68V40.934a3.913 3.924 0 0 1 3.908-3.933h86.164a3.917 3.928 0 0 1 3.912 3.933zm-27.997 16.519c-5.836-1.749-10.64-2.486-11.381-8.803v-3.783H38.075v3.394c-.582 6.681-5.467 7.407-11.421 9.192zM2 86.629h92.984" stroke="#006be6" stroke-width="2.002" stroke-linecap="round" stroke-linejoin="round"/></g></svg>